<svg width="354" height="354" viewBox="0 0 354 354" fill="none" xmlns="http://www.w3.org/2000/svg">
<g clip-path="url(#clip0_106_1180)">
<rect width="354" height="354" rx="177" fill="#49C3EB"/>
<g opacity="0.3">
<path d="M327.123 49.6316C327.997 49.205 328.888 48.7567 329.615 48.1C330.038 47.718 330.386 47.3128 330.68 46.8234C330.925 46.4146 331.094 45.9693 331.269 45.5277C331.352 45.3189 331.437 45.1105 331.534 44.9078C331.584 44.8036 331.643 44.7042 331.694 44.6009C331.756 44.4739 331.566 44.7712 331.704 44.584C331.741 44.5345 331.775 44.4839 331.813 44.4351C331.881 44.3474 331.954 44.266 332.029 44.1846C332.107 44.1005 332.032 44.1284 332.013 44.1977C332.018 44.1786 332.103 44.1234 332.125 44.1064C332.173 44.0702 332.221 44.0362 332.272 44.004C332.302 43.9844 332.437 43.9235 332.315 43.9747C332.172 44.0353 332.386 43.9504 332.397 43.9464C332.419 43.9388 332.441 43.9312 332.463 43.9237C332.565 43.8952 332.552 43.8965 332.424 43.9273C332.483 43.8784 332.635 43.9231 332.706 43.907C332.536 43.9456 332.529 43.8904 332.615 43.907C332.647 43.9131 332.679 43.9163 332.711 43.9224C332.75 43.9299 332.789 43.9442 332.828 43.9501C332.942 43.9673 332.606 43.8603 332.762 43.9316C332.835 43.9652 332.909 43.9946 332.98 44.0332C333.006 44.0473 333.038 44.0726 333.065 44.0815C333.053 44.0774 332.872 43.9493 332.989 44.0353C333.05 44.0798 333.111 44.1225 333.171 44.169C333.299 44.2705 333.421 44.3802 333.539 44.4931C334.04 44.9704 334.487 45.466 335.091 45.8184C335.928 46.306 336.986 46.2197 337.763 45.6545C338.656 45.0055 339.04 43.9503 339.198 42.8967C339.356 41.842 339.461 40.7769 339.589 39.7181C339.723 38.6121 339.858 37.506 339.992 36.3999C340.122 35.3317 340.242 34.2602 340.245 33.1828C340.248 32.0368 340.071 30.9558 339.51 29.9455C339.268 29.5114 338.962 29.1323 338.646 28.7514C338.323 28.3628 338.031 27.9443 337.696 27.567C336.469 26.186 334.386 25.5733 332.639 26.2869C332.395 26.3863 332.164 26.5162 331.938 26.6487C331.894 26.6744 331.85 26.7002 331.806 26.7259C331.627 26.8303 331.821 26.7246 331.823 26.717C331.817 26.7355 331.711 26.7625 331.686 26.7743C331.51 26.8597 331.825 26.776 331.646 26.7784C331.678 26.7788 331.709 26.7791 331.741 26.7795C331.663 26.7612 331.663 26.7625 331.741 26.783C331.761 26.7885 331.78 26.7939 331.8 26.7994C331.732 26.7636 331.734 26.766 331.804 26.8065C331.822 26.8172 331.84 26.8279 331.858 26.8386C331.785 26.7738 331.799 26.7932 331.901 26.8972C331.902 26.8918 331.828 26.8015 331.831 26.8055C331.834 26.81 331.773 26.705 331.768 26.7045C331.828 26.7102 331.849 26.8887 331.803 26.7582C331.767 26.6579 331.726 26.5609 331.695 26.4589C331.568 26.0494 331.484 25.6359 331.312 25.2407C331.117 24.792 330.872 24.3495 330.554 23.9755C329.917 23.2262 329.044 22.6396 328.04 22.5614C327.015 22.4818 326.003 22.7752 325.293 23.5489C324.998 23.8707 324.812 24.2819 324.624 24.6714C324.587 24.7475 324.55 24.8234 324.511 24.8981C324.492 24.9347 324.47 24.9705 324.451 25.0073C324.361 25.1839 324.55 24.9007 324.465 24.9873C324.456 24.9964 324.297 25.181 324.3 25.1913C324.293 25.1664 324.485 25.057 324.348 25.1409C324.165 25.2518 324.362 25.1341 324.369 25.1407C324.355 25.1283 324.275 25.1961 324.257 25.181C324.234 25.1616 324.451 25.1727 324.293 25.1618C324.508 25.1766 324.345 25.1664 324.29 25.1568C324.26 25.1516 324.114 25.1143 324.232 25.149C324.368 25.1895 324.151 25.1117 324.143 25.1082C324.099 25.0881 324.057 25.0644 324.014 25.0428C323.972 25.0219 323.878 24.9469 324.029 25.0559C323.967 25.0108 323.903 24.9683 323.842 24.9217C323.663 24.7858 323.496 24.6359 323.336 24.4788C323.289 24.4325 323.243 24.3848 323.196 24.3382C323.171 24.3131 323.074 24.2098 323.196 24.3401C323.105 24.2431 323.017 24.1436 322.928 24.0446C322.264 23.3 321.615 22.5607 320.714 22.0972C319.866 21.661 318.831 21.5728 317.957 21.9875C317.142 22.3742 316.543 23.0324 315.949 23.6937C315.825 23.8321 315.7 23.9701 315.572 24.1047C315.505 24.1754 315.436 24.2451 315.366 24.3135C315.342 24.3371 315.235 24.4304 315.337 24.343C315.449 24.2468 315.278 24.3925 315.256 24.411C315.12 24.5274 314.976 24.6365 314.824 24.732C314.789 24.7543 314.752 24.7747 314.716 24.7968C314.538 24.9081 314.867 24.7323 314.741 24.7832C314.646 24.8212 314.554 24.8647 314.457 24.8975C314.409 24.9134 314.361 24.9258 314.314 24.9415C314.215 24.974 314.255 24.9084 314.382 24.9299C314.316 24.9186 314.218 24.9604 314.149 24.9694C313.95 24.9953 313.752 24.9984 313.553 24.9971C313.413 24.9962 313.602 25.0112 313.611 25.0003C313.606 25.0058 313.484 24.9909 313.489 24.9912C313.407 24.9844 313.326 24.9757 313.245 24.9657C313.038 24.9406 312.833 24.907 312.629 24.87C311.831 24.7261 311.049 24.5535 310.235 24.5385C309.385 24.5228 308.496 24.7773 307.833 25.3214C307.137 25.8928 306.669 26.6681 306.394 27.5193C306.098 28.4364 305.997 29.361 305.972 30.3217C305.945 31.3655 306.007 32.4102 306.131 33.4464C306.387 35.5723 306.881 37.6793 307.468 39.7364C308.552 43.534 310.321 47.3662 313.617 49.7327C315.103 50.7996 316.837 51.5531 318.673 51.71C320.691 51.8824 322.685 51.4531 324.57 50.7469C325.44 50.4206 326.287 50.0376 327.123 49.6316C327.556 49.4211 327.878 48.9387 327.672 48.4461C327.495 48.0222 326.952 47.6707 326.487 47.8969C325.651 48.3029 324.804 48.6861 323.933 49.012C323.487 49.1794 323.034 49.3319 322.576 49.4638C322.373 49.522 322.17 49.5762 321.965 49.6259C321.914 49.6383 321.863 49.6495 321.812 49.6621C322 49.6152 321.864 49.651 321.823 49.6595C321.695 49.6859 321.567 49.7118 321.438 49.7351C320.991 49.8156 320.538 49.8716 320.084 49.8969C319.863 49.9091 319.643 49.9143 319.422 49.9115C319.371 49.911 319.074 49.8986 319.272 49.9099C319.142 49.9023 319.012 49.8929 318.882 49.8799C318.456 49.8376 318.034 49.7641 317.62 49.6586C317.518 49.6325 317.416 49.6046 317.315 49.5751C317.271 49.5621 317.223 49.5514 317.181 49.5344C317.207 49.5451 317.365 49.5965 317.206 49.5407C317.007 49.4712 316.81 49.3991 316.615 49.3182C316.237 49.1604 315.869 48.978 315.514 48.7742C315.422 48.7216 315.331 48.6672 315.241 48.6124C315.202 48.5887 315.09 48.5364 315.262 48.6255C315.221 48.6046 315.18 48.573 315.143 48.5484C314.966 48.4315 314.792 48.309 314.622 48.182C314.29 47.9339 313.972 47.6676 313.667 47.3858C313.519 47.2487 313.374 47.1077 313.233 46.9636C313.2 46.9296 313.167 46.8952 313.134 46.8612C313.015 46.7385 313.129 46.8607 313.15 46.8806C313.065 46.8004 312.989 46.7042 312.912 46.6159C312.313 45.9335 311.79 45.1885 311.332 44.4056C311.273 44.3048 311.215 44.2034 311.158 44.1014C311.129 44.0504 311.101 43.9992 311.073 43.948C311.079 43.9586 310.944 43.7054 311.007 43.8259C311.06 43.9259 310.975 43.7633 310.964 43.7411C310.938 43.689 310.911 43.6369 310.885 43.5846C310.82 43.4538 310.756 43.3224 310.694 43.1903C310.476 42.7267 310.276 42.2549 310.091 41.7773C309.718 40.8179 309.407 39.836 309.131 38.8451C308.994 38.3523 308.865 37.8572 308.743 37.3607C308.684 37.1241 308.627 36.8868 308.572 36.6494C308.546 36.5376 308.521 36.4254 308.496 36.3134C308.534 36.4819 308.5 36.3354 308.493 36.3031C308.475 36.2188 308.457 36.1348 308.439 36.0505C308.025 34.0911 307.755 32.0896 307.817 30.0833C307.819 30.026 307.821 29.9687 307.823 29.9116C307.822 29.9397 307.812 30.09 307.822 29.9333C307.828 29.8446 307.834 29.7557 307.841 29.6672C307.859 29.4649 307.883 29.2631 307.915 29.0624C307.946 28.8606 307.986 28.6602 308.034 28.4617C308.056 28.3739 308.08 28.2871 308.104 28.1999C308.14 28.0672 308.123 28.2232 308.092 28.2322C308.102 28.2293 308.153 28.0559 308.158 28.0426C308.218 27.8776 308.287 27.7156 308.365 27.5583C308.409 27.4713 308.458 27.3882 308.504 27.3026C308.564 27.1917 308.407 27.4419 308.48 27.3399C308.511 27.2969 308.539 27.2523 308.571 27.2095C308.626 27.1332 308.685 27.0592 308.748 26.9883C308.775 26.9569 308.803 26.926 308.832 26.8957C308.839 26.8881 308.847 26.8806 308.854 26.873C308.926 26.8022 308.912 26.8133 308.814 26.9064C308.83 26.8558 308.964 26.7801 309.008 26.7477C309.077 26.6958 309.222 26.6426 309.272 26.5744C309.259 26.592 309.066 26.6694 309.224 26.6004C309.264 26.5829 309.303 26.564 309.343 26.5472C309.417 26.516 309.493 26.4885 309.57 26.4643C309.608 26.4523 309.647 26.4426 309.685 26.4308C309.844 26.3815 309.633 26.4515 309.617 26.4438C309.663 26.465 309.853 26.4053 309.91 26.3992C310.08 26.3813 310.248 26.3865 310.418 26.3809C310.551 26.3767 310.186 26.3615 310.391 26.3795C310.432 26.383 310.472 26.3854 310.513 26.3891C310.615 26.3981 310.717 26.4098 310.819 26.4233C311.544 26.5193 312.254 26.7097 312.981 26.7919C313.795 26.8839 314.653 26.8643 315.406 26.5044C316.196 26.1269 316.797 25.5143 317.375 24.8706C317.498 24.7327 317.621 24.5943 317.747 24.4585C317.806 24.3955 317.865 24.3327 317.924 24.271C317.954 24.2405 317.984 24.21 318.014 24.1799C318.103 24.091 318.132 24.0866 318.021 24.1682C318.161 24.0648 318.284 23.9382 318.427 23.8371C318.501 23.7848 318.578 23.7386 318.655 23.6908C318.772 23.618 318.633 23.7414 318.594 23.7224C318.611 23.7307 318.713 23.669 318.73 23.6618C318.742 23.657 318.986 23.5797 318.987 23.5751C318.986 23.5858 318.746 23.6132 318.924 23.5891C318.966 23.5836 319.006 23.576 319.048 23.5714C319.12 23.5633 319.249 23.5343 319.316 23.5592C319.175 23.5075 319.199 23.5476 319.276 23.5616C319.341 23.5736 319.407 23.5801 319.472 23.5938C319.515 23.6028 319.558 23.6145 319.601 23.6246C319.772 23.6647 319.581 23.612 319.567 23.6128C319.638 23.6087 319.782 23.6983 319.846 23.7292C319.923 23.7656 320.059 23.8127 320.117 23.8737C320.101 23.8574 319.949 23.7595 320.091 23.858C320.139 23.8907 320.186 23.923 320.233 23.957C320.391 24.0723 320.542 24.198 320.685 24.331C320.755 24.3955 320.822 24.4618 320.889 24.5295C320.926 24.5673 320.963 24.6058 321 24.644C320.86 24.499 321.024 24.6706 321.053 24.703C321.401 25.0868 321.737 25.4816 322.103 25.8486C322.839 26.5858 323.897 27.2982 324.978 26.8869C325.488 26.693 325.828 26.2935 326.097 25.8377C326.188 25.684 326.265 25.523 326.342 25.3621C326.378 25.285 326.415 25.2078 326.453 25.1315C326.477 25.084 326.501 25.0369 326.526 24.9901C326.543 24.9594 326.607 24.7972 326.557 24.9277C326.513 25.0433 326.554 24.9334 326.579 24.8981C326.61 24.855 326.642 24.8135 326.677 24.7734C326.693 24.7543 326.758 24.6976 326.761 24.681C326.757 24.7019 326.591 24.8185 326.724 24.7178C326.79 24.6675 326.854 24.6158 326.925 24.571C326.917 24.576 327.029 24.5043 327.032 24.5073C326.914 24.5683 326.887 24.5832 326.952 24.5522C326.98 24.5387 327.009 24.5261 327.038 24.5141C327.116 24.4818 327.197 24.4589 327.276 24.4308C327.427 24.3772 327.249 24.4369 327.219 24.4384C327.259 24.4363 327.305 24.4217 327.345 24.4155C327.44 24.4007 327.536 24.3914 327.632 24.3872C327.675 24.3853 327.718 24.3872 327.76 24.3848C327.829 24.3857 327.803 24.3837 327.682 24.3789C327.714 24.3809 327.746 24.3837 327.779 24.3872C327.864 24.3959 327.949 24.4088 328.034 24.4258C328.086 24.4365 328.138 24.4508 328.19 24.4624C328.3 24.4868 328.226 24.4345 328.149 24.448C328.205 24.4382 328.335 24.521 328.386 24.5454C328.427 24.5648 328.468 24.5855 328.508 24.6071C328.563 24.637 328.736 24.6893 328.553 24.6298C328.711 24.6813 328.872 24.882 328.994 24.9907C329.166 25.1427 328.913 24.887 329.003 24.9971C329.034 25.0341 329.066 25.0694 329.096 25.1065C329.172 25.1997 329.244 25.2961 329.311 25.3959C329.365 25.4761 329.416 25.5581 329.464 25.642C329.497 25.6986 329.596 25.8107 329.469 25.647C329.494 25.6797 329.516 25.7436 329.532 25.7784C329.624 25.9768 329.702 26.1817 329.767 26.3907C329.88 26.7549 329.941 27.1335 330.107 27.4802C330.363 28.0171 330.755 28.4488 331.356 28.5868C331.965 28.7267 332.504 28.4501 333.012 28.1529C333.025 28.1455 333.23 28.0108 333.09 28.1038C332.976 28.1794 333.091 28.104 333.126 28.0875C333.214 28.0461 333.304 28.0086 333.396 27.9757C333.477 27.9465 333.56 27.9229 333.642 27.8983C333.712 27.8776 333.78 27.8976 333.589 27.9072C333.65 27.9042 333.719 27.8824 333.78 27.8736C333.951 27.8484 334.124 27.8364 334.297 27.837C334.335 27.8372 334.387 27.8329 334.426 27.8397C334.208 27.8019 334.353 27.8381 334.414 27.8444C334.511 27.8542 334.608 27.8676 334.705 27.8848C334.801 27.9022 334.897 27.9233 334.991 27.948C335.033 27.9589 335.075 27.9717 335.117 27.9831C335.249 28.019 334.911 27.9011 335.109 27.9833C335.29 28.0587 335.47 28.1302 335.643 28.2252C335.664 28.2366 335.741 28.2915 335.756 28.2899C335.74 28.2915 335.577 28.1683 335.72 28.2684C335.791 28.3179 335.862 28.3675 335.93 28.4209C336.006 28.4809 336.08 28.5439 336.151 28.6103C336.183 28.6396 336.212 28.6711 336.244 28.7003C336.327 28.7773 336.127 28.5565 336.234 28.691C336.839 29.4477 337.52 30.1799 338.006 31.0211C337.898 30.8342 338.058 31.1384 338.081 31.1929C338.123 31.2908 338.161 31.3902 338.196 31.4911C338.235 31.6072 338.268 31.7245 338.299 31.8429C338.289 31.8056 338.268 31.6643 338.298 31.8463C338.312 31.9311 338.327 32.0157 338.337 32.1011C338.398 32.58 338.409 33.0669 338.4 33.5492C338.399 33.6059 338.398 33.6628 338.396 33.7195C338.396 33.707 338.385 33.986 338.391 33.8555C338.396 33.7472 338.387 33.9252 338.386 33.9488C338.383 34.0056 338.379 34.0625 338.375 34.1192C338.356 34.3892 338.332 34.6589 338.304 34.9282C338.254 35.4161 338.194 35.9032 338.134 36.3901C338.005 37.4518 337.877 38.5134 337.748 39.5751C337.623 40.5984 337.528 41.6304 337.367 42.6485C337.332 42.8654 337.29 43.0813 337.232 43.2932C337.225 43.32 337.173 43.4735 337.212 43.3649C337.259 43.2354 337.169 43.4709 337.17 43.4693C337.127 43.5757 337.067 43.6751 337.024 43.7808C336.974 43.9054 337.152 43.6175 337.017 43.7963C336.987 43.8351 336.96 43.8749 336.93 43.9131C336.875 43.9826 336.808 44.0787 336.734 44.1289C336.915 44.0066 336.679 44.1598 336.63 44.1929C336.603 44.2106 336.543 44.2579 336.508 44.2679C336.732 44.2058 336.527 44.25 336.47 44.2701C336.443 44.2797 336.37 44.3119 336.336 44.3111C336.549 44.3158 336.417 44.2952 336.369 44.2943C336.34 44.2938 336.118 44.2799 336.297 44.3049C336.446 44.3257 336.33 44.3073 336.294 44.3013C336.234 44.2915 336.14 44.2564 336.081 44.2598C336.094 44.259 336.301 44.3427 336.171 44.2873C336.134 44.2718 336.097 44.2583 336.06 44.242C335.994 44.2125 335.932 44.1772 335.868 44.1428C335.738 44.0724 336.053 44.2714 335.862 44.1345C335.738 44.0456 335.621 43.9471 335.508 43.8449C335.058 43.4382 334.67 42.9545 334.165 42.6114C333.415 42.101 332.496 41.871 331.632 42.2664C330.653 42.7141 330.062 43.6007 329.666 44.568C329.491 44.9954 329.338 45.4331 329.12 45.8416C329.096 45.888 329.067 45.9327 329.044 45.9797C328.982 46.1035 329.125 45.8677 329.047 45.9762C328.982 46.0672 328.919 46.1596 328.849 46.2476C328.787 46.325 328.723 46.4002 328.655 46.473C328.622 46.5094 328.587 46.5453 328.553 46.5806C328.527 46.6066 328.344 46.7611 328.512 46.6225C328.18 46.8962 327.845 47.15 327.476 47.372C327.302 47.4764 327.125 47.5789 326.944 47.6711C327.143 47.5697 326.88 47.7029 326.825 47.7302C326.713 47.787 326.599 47.8426 326.486 47.898C326.053 48.1094 325.731 48.5904 325.937 49.0836C326.114 49.5058 326.658 49.8587 327.123 49.6316Z" fill="white"/>
<path d="M332.584 72.8707C334.825 71.7783 337.094 70.6143 338.954 68.9292C339.9 68.0731 340.713 67.1278 341.372 66.0337C342.041 64.9217 342.493 63.7004 342.971 62.4989C343.78 60.4655 344.922 57.8732 347.294 57.311C347.783 57.1951 348.104 57.2117 348.509 57.2825C348.94 57.3579 349.05 57.3997 349.464 57.5985C349.896 57.8058 350.008 57.8849 350.384 58.1678C350.713 58.4154 351.024 58.6851 351.327 58.9643C352.61 60.1499 353.733 61.5139 355.231 62.4437C357.042 63.5669 359.214 63.571 360.991 62.3465C363.168 60.847 363.992 58.2529 364.362 55.7585C364.791 52.87 365.08 49.9555 365.432 47.0569C365.794 44.0743 366.157 41.0918 366.519 38.1091C366.854 35.3415 367.177 32.5643 367.18 29.7725C367.182 28.3812 367.135 26.9569 366.86 25.5894C366.586 24.2244 366.104 22.9541 365.426 21.7394C364.756 20.5394 363.885 19.4991 363.013 18.4446C362.15 17.401 361.372 16.2652 360.457 15.2679C357.483 12.0282 352.349 10.7298 348.288 12.6162C347.734 12.8736 347.223 13.201 346.689 13.4957C346.276 13.7238 345.766 13.9806 345.283 13.8464C345.009 13.7707 344.81 13.5837 344.593 13.2565C344.383 12.939 344.209 12.4767 344.072 12.0393C343.739 10.9763 343.527 9.89406 343.096 8.8606C342.63 7.74418 342.024 6.66527 341.253 5.7303C339.774 3.93833 337.715 2.60517 335.359 2.41633C333.121 2.23672 330.779 2.92114 329.279 4.6634C328.566 5.49176 328.144 6.52004 327.666 7.49011C327.456 7.91603 327.256 8.31034 326.972 8.67638C326.717 9.00436 326.452 9.25104 326.108 9.38371C325.162 9.74956 324.129 9.16013 323.38 8.61134C322.349 7.85505 321.46 6.93116 320.609 5.9816C318.951 4.12939 317.336 2.21732 315.094 1.04897C313.022 -0.0308618 310.622 -0.180342 308.528 0.917418C306.633 1.91022 305.237 3.5795 303.828 5.14401C302.478 6.64144 301.035 8.15421 299.086 8.74919C297.334 9.28412 295.348 9.01711 293.497 8.68285C291.449 8.31293 289.416 7.82604 287.324 7.80109C285.248 7.77615 283.157 8.37003 281.559 9.73516C279.842 11.2019 278.815 13.2195 278.168 15.3511C277.494 17.5745 277.311 19.8944 277.269 22.2065C277.219 24.9996 277.401 27.7934 277.746 30.5645C278.441 36.1507 279.739 41.6825 281.29 47.0889C282.866 52.5825 284.895 57.985 287.885 62.8775C290.386 66.9726 293.623 70.6694 297.541 73.4642C301.368 76.1939 305.824 78.0588 310.534 78.4472C315.724 78.8753 320.874 77.695 325.709 75.877C328.052 74.996 330.334 73.9643 332.584 72.8707C333.033 72.6526 333.318 72.1875 333.133 71.6851C332.975 71.2526 332.399 70.9165 331.948 71.136C327.469 73.3126 322.793 75.3171 317.868 76.2109C313.196 77.0588 308.426 76.7996 304.01 74.9773C299.928 73.2929 296.314 70.5415 293.391 67.2492C289.935 63.3569 287.426 58.7378 285.525 53.9148C283.5 48.7756 282.057 43.3828 280.896 37.9875C279.755 32.6791 278.993 27.2572 279.116 21.8164C279.203 17.9866 279.851 13.0709 283.276 10.7472C284.812 9.70559 286.666 9.52525 288.475 9.703C290.462 9.89813 292.398 10.4159 294.371 10.6988C296.361 10.9841 298.461 11.0362 300.353 10.2586C302.354 9.43638 303.873 7.85284 305.293 6.27484C306.552 4.8759 307.895 3.20958 309.574 2.44848C311.43 1.60682 313.431 2.05565 315.116 3.19905C317.142 4.57471 318.59 6.58046 320.276 8.32051C321.853 9.94765 324.239 12.0229 326.692 11.1374C328.789 10.38 329.248 8.02264 330.316 6.35466C331.35 4.73878 333.342 4.05382 335.212 4.25191C337.336 4.47696 339.07 5.76799 340.267 7.49104C340.897 8.39682 341.366 9.39258 341.713 10.4381C342.041 11.4275 342.199 12.4721 342.614 13.4329C343.034 14.4061 343.691 15.2814 344.741 15.6027C346.075 16.0109 347.26 15.2929 348.373 14.6434C350.06 13.6594 352.083 13.3987 354.017 13.7505C355.919 14.0964 357.772 15.0316 359.073 16.4756C359.976 17.4775 360.753 18.6085 361.615 19.6475C362.453 20.6577 363.279 21.6638 363.922 22.8142C365.232 25.1579 365.376 27.8488 365.333 30.476C365.288 33.1737 364.933 35.8569 364.608 38.5315C364.256 41.4338 363.904 44.3359 363.551 47.2382C363.211 50.0383 362.946 52.8602 362.51 55.647C362.179 57.7633 361.449 60.2946 359.27 61.2033C359.046 61.2971 358.812 61.3768 358.572 61.4169C358.443 61.4385 358.311 61.4505 358.18 61.457C358.129 61.4594 357.814 61.454 357.944 61.4625C357.765 61.4509 357.586 61.4237 357.411 61.3868C357.31 61.3655 357.209 61.3404 357.11 61.3114C357.009 61.2816 357.108 61.3101 357.125 61.316C357.07 61.297 357.014 61.2765 356.96 61.2552C356.203 60.961 355.769 60.6303 355.134 60.0811C353.866 58.9854 352.809 57.6498 351.448 56.6598C349.85 55.4966 347.866 54.9719 345.984 55.8148C343.626 56.8703 342.328 59.1569 341.403 61.4492C340.937 62.6041 340.515 63.7824 339.914 64.8765C339.37 65.8661 338.623 66.7704 337.777 67.5175C336.05 69.0424 334.007 70.1319 331.948 71.1358C331.499 71.3544 331.214 71.8185 331.399 72.3213C331.557 72.7535 332.133 73.0907 332.584 72.8707Z" fill="white"/>
<path d="M338.046 96.1102C341.656 94.35 345.304 92.468 348.301 89.7518C349.763 88.4271 351.036 86.9489 352.056 85.2567C353.148 83.443 353.885 81.449 354.665 79.4889C356.058 75.988 358.019 71.7374 362.048 70.7211C364.833 70.0184 367.261 71.7252 369.2 73.5171C371.252 75.4129 373.052 77.6238 375.445 79.1149C378.221 80.8448 381.52 80.8984 384.259 79.0111C387.685 76.6509 388.942 72.5533 389.524 68.6331C390.224 63.92 390.696 59.1644 391.27 54.4347C391.861 49.5678 392.453 44.7012 393.043 39.8343C393.585 35.3688 394.109 30.8873 394.115 26.3824C394.12 21.8818 393.584 17.5486 391.36 13.5657C390.266 11.6078 388.845 9.91029 387.422 8.18965C386.014 6.48693 384.746 4.63157 383.251 3.00609C378.561 -2.09412 370.448 -4.07456 364.072 -1.1124C363.216 -0.714759 362.422 -0.211051 361.601 0.249598C360.795 0.701747 359.809 1.17458 358.863 0.921625C357.433 0.539321 356.838 -1.13993 356.443 -2.40066C355.9 -4.13516 355.554 -5.90126 354.85 -7.58735C354.109 -9.36342 353.142 -11.0697 351.915 -12.5566C349.594 -15.3711 346.364 -17.4328 342.671 -17.729C339.234 -18.0049 335.605 -16.9396 333.303 -14.2655C332.172 -12.9516 331.508 -11.3182 330.75 -9.77954C330.106 -8.47225 329.324 -6.94524 327.88 -6.38703C326.127 -5.70964 324.247 -6.72444 322.855 -7.74533C321.132 -9.0092 319.652 -10.5604 318.231 -12.1469C315.596 -15.0893 313.024 -18.1492 309.461 -20.0053C306.236 -21.6856 302.531 -21.9412 299.263 -20.2383C293.235 -17.0976 290.495 -9.47022 283.787 -7.42252C280.732 -6.48995 277.443 -6.94783 274.363 -7.5042C271.075 -8.09807 267.801 -8.89556 264.443 -8.93584C261.146 -8.97539 257.864 -8.05502 255.326 -5.88685C252.651 -3.6019 251.036 -0.415786 250.029 2.90484C248.944 6.48415 248.636 10.2172 248.569 13.9399C248.488 18.4974 248.784 23.0562 249.347 27.5779C250.475 36.6421 252.58 45.616 255.096 54.3885C257.652 63.3003 260.934 72.0753 265.784 80.0128C269.843 86.6568 275.081 92.6419 281.438 97.1763C287.604 101.575 294.783 104.557 302.37 105.183C310.731 105.872 319.04 103.944 326.827 101.016C330.649 99.5783 334.374 97.8947 338.046 96.1102C339.105 95.5954 338.479 93.8553 337.409 94.3755C330.049 97.9526 322.375 101.221 314.282 102.69C306.56 104.092 298.672 103.636 291.376 100.625C284.619 97.8367 278.656 93.2727 273.819 87.8248C268.148 81.4372 264.03 73.8429 260.911 65.9283C257.586 57.4931 255.229 48.6419 253.325 39.7869C251.462 31.1249 250.219 22.278 250.419 13.4002C250.5 9.82344 250.858 6.19516 251.992 2.78252C253.02 -0.312863 254.697 -3.31752 257.45 -5.18488C262.977 -8.93345 270.026 -6.21999 275.997 -5.36355C279.144 -4.91214 282.46 -4.82493 285.453 -6.05499C288.618 -7.35545 291.02 -9.88467 293.265 -12.3793C295.386 -14.7354 297.542 -17.4583 300.499 -18.7992C303.767 -20.2813 307.24 -19.4282 310.114 -17.477C313.422 -15.2317 315.783 -11.9601 318.535 -9.12007C320.937 -6.64129 324.658 -3.25931 328.43 -4.62149C331.7 -5.8024 332.396 -9.64299 334.095 -12.2495C335.917 -15.0446 339.412 -16.2251 342.637 -15.8835C346.245 -15.5013 349.226 -13.2888 351.258 -10.3629C352.313 -8.84438 353.108 -7.16828 353.689 -5.41567C354.225 -3.80109 354.483 -2.09689 355.16 -0.528869C355.77 0.885782 356.724 2.19548 358.257 2.66056C360.236 3.2609 362.025 2.13191 363.67 1.17237C366.579 -0.52444 370.029 -0.983232 373.322 -0.384185C376.576 0.20784 379.725 1.81761 381.944 4.2975C383.413 5.93832 384.684 7.77685 386.091 9.4731C387.459 11.1209 388.809 12.7627 389.856 14.6404C392.047 18.5702 392.338 23.0233 392.265 27.4334C392.191 31.8864 391.612 36.3138 391.076 40.729C390.501 45.4647 389.926 50.2003 389.35 54.936C388.796 59.505 388.364 64.1094 387.652 68.6569C387.076 72.336 385.756 76.5985 381.992 78.1681C379.261 79.3069 376.737 78.0266 374.669 76.2393C372.6 74.4514 370.875 72.2719 368.656 70.6568C366.206 68.8742 363.192 68.0858 360.311 69.3757C356.616 71.0302 354.612 74.6849 353.166 78.2668C352.406 80.1512 351.717 82.0738 350.736 83.8593C349.795 85.5707 348.517 87.103 347.059 88.3981C344.212 90.9268 340.809 92.7171 337.409 94.3753C336.351 94.8916 336.976 96.6318 338.046 96.1102Z" fill="white"/>
<path d="M343.505 119.35C348.485 116.921 353.512 114.321 357.646 110.574C359.625 108.781 361.357 106.77 362.738 104.48C364.254 101.964 365.275 99.1978 366.357 96.4788C368.329 91.522 371.117 85.5855 376.8 84.1309C380.795 83.1084 384.28 85.4898 387.072 88.0695C389.893 90.6757 392.37 93.7327 395.657 95.7859C399.399 98.1228 403.824 98.2252 407.525 95.6754C412.2 92.4546 413.891 86.8533 414.685 81.5077C415.655 74.9701 416.31 68.373 417.106 61.8121C417.926 55.0611 418.747 48.3103 419.566 41.5593C420.313 35.3957 421.041 29.2099 421.048 22.9919C421.055 16.8197 420.345 10.8569 417.292 5.39195C415.775 2.6761 413.803 0.321308 411.829 -2.06546C409.876 -4.42746 408.118 -7.00122 406.044 -9.25586C399.64 -16.2183 388.543 -18.8781 379.854 -14.8411C377.646 -13.8158 375.047 -11.3427 372.442 -12.0033C370.312 -12.5438 369.401 -14.9634 368.813 -16.8408C368.059 -19.2468 367.579 -21.6967 366.603 -24.0354C365.587 -26.4713 364.259 -28.8047 362.577 -30.8437C359.412 -34.6808 355.012 -37.4711 349.981 -37.8749C345.344 -38.2468 340.43 -36.8011 337.326 -33.1948C335.776 -31.3953 334.871 -29.1567 333.832 -27.0493C332.894 -25.1439 331.75 -22.97 329.65 -22.1581C327.093 -21.1694 324.365 -22.6091 322.33 -24.1021C319.915 -25.8734 317.844 -28.0521 315.852 -30.2757C312.24 -34.3085 308.711 -38.516 303.828 -41.06C299.448 -43.3415 294.439 -43.7016 289.996 -41.3943C281.604 -37.0365 277.838 -26.4494 268.486 -23.5946C264.184 -22.2814 259.566 -22.9079 255.228 -23.6916C250.7 -24.5096 246.185 -25.6177 241.56 -25.6731C237.043 -25.7272 232.57 -24.4804 229.092 -21.5092C225.459 -18.4058 223.256 -14.051 221.888 -9.54171C220.392 -4.60651 219.96 0.539708 219.868 5.67281C219.755 11.9948 220.166 18.3186 220.946 24.5908C222.507 37.1331 225.419 49.5488 228.9 61.6874C232.437 74.0174 236.972 86.165 243.681 97.1472C249.298 106.34 256.536 114.614 265.332 120.888C273.838 126.955 283.74 131.055 294.204 131.918C305.737 132.869 317.204 130.192 327.943 126.154C333.245 124.16 338.412 121.825 343.505 119.35C344.564 118.835 343.939 117.095 342.868 117.615C332.628 122.592 321.955 127.126 310.695 129.169C299.922 131.125 288.916 130.472 278.74 126.273C269.309 122.381 260.996 116.004 254.246 108.4C246.359 99.5177 240.633 88.9481 236.295 77.9418C231.672 66.2105 228.4 53.9009 225.751 41.586C223.167 29.5707 221.443 17.2986 221.721 4.98378C221.926 -4.07953 223.458 -15.5787 231.622 -21.1171C239.395 -26.3889 249.219 -22.6311 257.621 -21.426C261.926 -20.8085 266.457 -20.686 270.552 -22.3689C274.88 -24.1474 278.165 -27.6223 281.236 -31.0337C284.225 -34.3547 287.255 -38.1578 291.422 -40.0473C296.074 -42.1569 301.025 -40.9268 305.111 -38.1529C309.7 -35.0382 312.974 -30.5006 316.792 -26.5606C320.018 -23.2322 325.078 -18.5426 330.168 -20.3804C334.601 -21.9813 335.56 -27.3228 337.872 -30.8535C340.48 -34.8351 345.462 -36.506 350.061 -36.0188C355.152 -35.4794 359.38 -32.3458 362.247 -28.2169C363.728 -26.0859 364.849 -23.7294 365.665 -21.2695C366.408 -19.0296 366.765 -16.6658 367.704 -14.4906C368.504 -12.6369 369.756 -10.8867 371.772 -10.2814C374.398 -9.49294 376.786 -11.0273 378.966 -12.2986C383.085 -14.702 387.958 -15.3679 392.625 -14.5189C397.231 -13.6809 401.68 -11.3954 404.813 -7.88039C406.847 -5.59969 408.613 -3.05457 410.566 -0.701248C412.464 1.58463 414.336 3.86163 415.789 6.46662C418.863 11.9807 419.298 18.1996 419.196 24.3911C419.093 30.5994 418.289 36.7711 417.541 42.9268C416.744 49.4958 415.946 56.0648 415.148 62.6338C414.379 68.9717 413.78 75.3588 412.792 81.6668C411.971 86.9078 410.06 92.9025 404.712 95.1329C400.807 96.7614 397.166 94.9572 394.203 92.3975C388.749 87.6846 382.997 79.1935 374.638 82.9365C369.606 85.1895 366.893 90.2132 364.928 95.0843C363.873 97.6984 362.917 100.365 361.557 102.842C360.22 105.274 358.41 107.438 356.34 109.279C352.37 112.808 347.613 115.301 342.869 117.615C341.81 118.131 342.435 119.871 343.505 119.35Z" fill="white"/>
<path d="M348.965 142.589C355.315 139.493 361.721 136.175 366.992 131.397C369.487 129.136 371.68 126.592 373.42 123.703C375.36 120.485 376.666 116.947 378.05 113.469C380.6 107.059 384.216 99.4313 391.552 97.5414C396.758 96.2005 401.3 99.2545 404.945 102.622C408.535 105.939 411.689 109.841 415.871 112.457C420.577 115.402 426.131 115.552 430.792 112.34C436.716 108.259 438.841 101.153 439.846 94.3822C441.087 86.02 441.925 77.5818 442.944 69.1898C443.992 60.5546 445.042 51.9196 446.089 43.2844C447.043 35.4227 447.973 27.5327 447.982 19.6019C447.991 11.758 447.106 4.16567 443.225 -2.78157C441.284 -6.25537 438.763 -9.26743 436.238 -12.3205C433.74 -15.3414 431.491 -18.6351 428.838 -21.5176C420.716 -30.3396 406.643 -33.6829 395.636 -28.5696C392.741 -27.2244 389.439 -24.0777 386.022 -24.9278C383.192 -25.6318 381.965 -28.7837 381.183 -31.2805C380.219 -34.3579 379.605 -37.4915 378.357 -40.4831C377.065 -43.5787 375.376 -46.5393 373.239 -49.1303C369.23 -53.9901 363.661 -57.5088 357.292 -58.0199C351.456 -58.4881 345.256 -56.6618 341.349 -52.1233C339.381 -49.8381 338.234 -46.9944 336.916 -44.3185C335.683 -41.8151 334.177 -38.994 331.421 -37.9284C328.059 -36.6286 324.483 -38.4932 321.804 -40.4581C318.697 -42.737 316.035 -45.5432 313.473 -48.4035C308.885 -53.5267 304.398 -58.8817 298.194 -62.1138C292.663 -64.9952 286.346 -65.4629 280.73 -62.5493C269.978 -56.9704 265.181 -43.4268 253.186 -39.7654C247.637 -38.0716 241.691 -38.8667 236.094 -39.8776C230.325 -40.9197 224.57 -42.3384 218.677 -42.409C212.94 -42.4777 207.276 -40.9046 202.858 -37.1301C198.267 -33.2084 195.476 -27.6849 193.748 -21.9869C191.84 -15.6958 191.284 -9.13624 191.167 -2.59273C191.023 5.49366 191.548 13.5825 192.546 21.6053C194.54 37.6256 198.258 53.4832 202.705 68.9878C207.223 84.736 213.009 100.256 221.579 114.283C228.754 126.026 237.993 136.587 249.227 144.601C260.073 152.337 272.698 157.554 286.038 158.655C300.743 159.868 315.369 156.441 329.059 151.294C335.842 148.743 342.451 145.756 348.965 142.589C350.025 142.075 349.399 140.335 348.329 140.855C335.207 147.233 321.535 153.031 307.108 155.649C293.285 158.157 279.16 157.309 266.105 151.921C253.999 146.925 243.337 138.735 234.673 128.976C224.572 117.598 217.236 104.053 211.68 89.9557C205.758 74.9284 201.571 59.1601 198.179 43.3855C194.873 28.0167 192.667 12.3195 193.023 -3.43254C193.288 -15.1184 195.271 -29.9098 205.796 -37.049C215.813 -43.8442 228.413 -39.0418 239.245 -37.4882C244.709 -36.7046 250.455 -36.547 255.651 -38.6824C261.143 -40.9391 265.312 -45.3597 269.207 -49.6876C273.064 -53.9735 276.97 -58.8566 282.346 -61.2945C288.382 -64.0318 294.811 -62.425 300.109 -58.8283C305.979 -54.8439 310.166 -49.0403 315.05 -44.0005C319.098 -39.8232 325.5 -33.8254 331.905 -36.1386C337.502 -38.1593 338.726 -45.0027 341.651 -49.4568C345.045 -54.6246 351.513 -56.786 357.485 -56.1535C364.061 -55.4569 369.534 -51.4021 373.237 -46.0704C375.143 -43.3266 376.59 -40.2898 377.641 -37.1227C378.591 -34.2578 379.048 -31.2343 380.249 -28.4519C381.239 -26.1573 382.788 -23.971 385.287 -23.2231C388.557 -22.2439 391.55 -24.1876 394.261 -25.7691C399.592 -28.8789 405.887 -29.7522 411.929 -28.6529C417.89 -27.5683 423.629 -24.6058 427.683 -20.0578C430.284 -17.1404 432.543 -13.8852 435.042 -10.875C437.468 -7.95126 439.864 -5.03862 441.721 -1.70672C445.678 5.39112 446.258 13.3766 446.126 21.3492C445.994 29.3129 444.966 37.2287 444.007 45.125C442.987 53.5273 441.967 61.9299 440.946 70.3322C439.962 78.439 439.196 86.6089 437.932 94.6772C436.867 101.48 434.364 109.207 427.432 112.098C422.353 114.216 417.594 111.889 413.737 108.556C406.842 102.599 399.538 91.7634 388.964 96.4978C382.595 99.3494 379.175 105.742 376.689 111.902C375.34 115.246 374.118 118.657 372.377 121.825C370.645 124.978 368.304 127.773 365.62 130.16C360.526 134.69 354.416 137.886 348.328 140.855C347.27 141.371 347.896 143.111 348.965 142.589Z" fill="white"/>
<path d="M354.426 165.828C362.146 162.064 369.93 158.028 376.339 152.219C379.351 149.49 382.003 146.412 384.104 142.926C386.467 139.005 388.058 134.695 389.744 130.459C392.872 122.595 397.316 113.275 406.306 110.951C412.722 109.292 418.321 113.018 422.819 117.174C427.179 121.203 431.011 125.943 436.085 129.127C441.752 132.684 448.442 132.875 454.06 129.004C461.232 124.062 463.792 115.452 465.008 107.256C466.52 97.0689 467.541 86.7896 468.782 76.5664C470.059 66.0471 471.338 55.5279 472.614 45.0085C473.774 35.4487 474.907 25.8546 474.917 16.2107C474.928 6.69523 473.868 -2.52679 469.159 -10.9561C466.795 -15.1879 463.724 -18.857 460.648 -22.5764C457.604 -26.2564 454.866 -30.2701 451.633 -33.7803C441.792 -44.4615 424.744 -48.4889 411.42 -42.2991C407.84 -40.6354 403.831 -36.8118 399.604 -37.8536C396.075 -38.7231 394.532 -42.6045 393.555 -45.7214C392.38 -49.4703 391.632 -53.2878 390.112 -56.9321C388.545 -60.6874 386.495 -64.2752 383.902 -67.4184C379.05 -73.3008 372.312 -77.5481 364.604 -78.1665C357.569 -78.731 350.083 -76.5239 345.374 -71.0534C342.988 -68.2824 341.599 -64.8337 340.001 -61.5892C338.473 -58.4879 336.606 -55.0195 333.193 -53.7004C329.027 -52.0897 324.603 -54.3793 321.281 -56.8159C317.482 -59.6022 314.229 -63.0359 311.096 -66.5333C305.531 -72.7466 300.087 -79.2495 292.563 -83.1695C285.88 -86.6513 278.254 -87.2263 271.466 -83.7065C258.353 -76.9067 252.525 -60.4065 237.888 -55.9386C231.092 -53.8641 223.817 -54.8277 216.961 -56.0661C209.952 -57.3322 202.956 -59.0615 195.797 -59.1474C188.839 -59.2308 181.985 -57.3312 176.626 -52.7536C171.078 -48.0135 167.698 -41.3213 165.61 -34.4346C163.291 -26.7876 162.611 -18.8149 162.468 -10.8608C162.292 -1.00996 162.932 8.84382 164.148 18.617C166.574 38.1154 171.099 57.4147 176.512 76.2857C182.01 95.4521 189.049 114.345 199.479 131.417C208.211 145.708 219.451 158.558 233.124 168.312C246.309 177.717 261.657 184.051 277.874 185.389C295.75 186.863 313.535 182.688 330.178 176.431C338.44 173.324 346.49 169.686 354.426 165.828C355.486 165.313 354.86 163.573 353.79 164.094C337.787 171.872 321.117 178.934 303.522 182.128C286.649 185.19 269.406 184.144 253.47 177.568C238.689 171.468 225.678 161.466 215.101 149.551C202.784 135.678 193.84 119.158 187.066 101.969C179.844 83.6452 174.743 64.4184 170.606 45.1841C166.58 26.4617 163.893 7.33955 164.326 -11.8495C164.65 -26.1579 167.084 -44.2415 179.969 -52.9818C192.232 -61.3001 207.608 -55.4534 220.87 -53.5513C227.492 -52.6015 234.453 -52.4088 240.751 -54.9968C247.406 -57.7317 252.458 -63.098 257.178 -68.3423C261.904 -73.5931 266.686 -79.5564 273.271 -82.5428C280.691 -85.9076 288.597 -83.924 295.108 -79.5047C302.258 -74.6509 307.359 -67.581 313.309 -61.4416C318.179 -56.4159 325.922 -49.1098 333.644 -51.8979C340.403 -54.3382 341.893 -62.6839 345.43 -68.0612C349.609 -74.4157 357.564 -77.0673 364.91 -76.2892C372.969 -75.4355 379.689 -70.4595 384.228 -63.9246C386.56 -60.5682 388.332 -56.8512 389.618 -52.9768C390.776 -49.4867 391.332 -45.8034 392.795 -42.414C393.976 -39.6786 395.821 -37.0564 398.803 -36.1654C402.718 -34.9956 406.316 -37.3487 409.558 -39.2403C416.1 -43.0567 423.817 -44.1373 431.234 -42.7878C438.55 -41.4567 445.58 -37.8172 450.554 -32.2362C453.722 -28.6818 456.475 -24.7167 459.518 -21.0496C462.474 -17.4878 465.393 -13.9395 467.656 -9.88073C472.496 -1.19936 473.22 8.55316 473.058 18.3066C472.897 28.0255 471.645 37.6858 470.475 47.3225C469.232 57.5584 467.989 67.7941 466.746 78.03C465.547 87.9056 464.613 97.8581 463.074 107.687C461.764 116.051 458.669 125.512 450.154 129.063C443.901 131.671 438.023 128.819 433.273 124.714C424.938 117.513 416.08 104.333 403.292 110.059C395.587 113.509 391.458 121.271 388.453 128.72C386.809 132.793 385.32 136.949 383.2 140.808C381.071 144.681 378.2 148.108 374.903 151.041C368.684 156.571 361.222 160.471 353.79 164.094C352.731 164.61 353.357 166.35 354.426 165.828Z" fill="white"/>
<path d="M359.887 189.068C368.977 184.636 378.139 179.881 385.685 173.042C389.214 169.844 392.326 166.233 394.788 162.149C397.573 157.526 399.45 152.444 401.438 147.449C405.144 138.133 410.416 127.118 421.06 124.361C428.686 122.385 435.341 126.782 440.693 131.727C445.822 136.466 450.332 142.049 456.299 145.799C462.929 149.965 470.75 150.2 477.328 145.668C485.749 139.866 488.743 129.752 490.171 120.13C491.953 108.119 493.157 95.9984 494.62 83.9442C496.126 71.5406 497.634 59.1373 499.139 46.7338C500.504 35.4761 501.84 24.1775 501.853 12.8206C501.865 1.63344 500.63 -9.21815 495.093 -19.1298C492.306 -24.1195 488.684 -28.4458 485.057 -32.8313C481.469 -37.1703 478.241 -41.9044 474.427 -46.0421C462.868 -58.5824 442.845 -63.2942 427.204 -56.0277C422.938 -54.0459 418.221 -49.5448 413.184 -50.7783C408.957 -51.8135 407.097 -56.4246 405.926 -60.1611C404.541 -64.5816 403.659 -69.0829 401.866 -73.3799C400.024 -77.7948 397.613 -82.0099 394.565 -85.7051C388.869 -92.6102 380.961 -97.5857 371.916 -98.3117C363.681 -98.9724 354.909 -96.3846 349.397 -89.9819C346.594 -86.7254 344.963 -82.6716 343.085 -78.8583C341.262 -75.1593 339.033 -71.0432 334.965 -69.4706C329.994 -67.5487 324.722 -70.2633 320.756 -73.1718C316.265 -76.4657 312.421 -80.5267 308.718 -84.6611C302.177 -91.9647 295.775 -99.6151 286.93 -104.223C279.095 -108.305 270.161 -108.987 262.201 -104.861C246.726 -96.8412 239.868 -77.384 222.589 -72.1095C214.546 -69.6544 205.942 -70.7865 197.827 -72.2522C189.578 -73.7424 181.341 -75.7823 172.914 -75.8832C164.737 -75.9812 156.692 -73.7552 150.393 -68.3745C143.886 -62.816 139.918 -54.955 137.47 -46.8797C134.74 -37.8769 133.935 -28.4909 133.768 -19.1264C133.56 -7.51136 134.315 4.10741 135.749 15.6314C138.607 38.6078 143.939 61.3489 150.318 83.5861C156.796 106.171 165.087 128.436 177.378 148.553C187.667 165.393 200.907 180.531 217.02 192.025C232.544 203.099 250.615 210.551 269.709 212.125C290.757 213.862 311.7 208.938 331.295 201.57C341.037 197.907 350.529 193.616 359.887 189.068C360.946 188.553 360.321 186.813 359.251 187.333C340.366 196.512 320.698 204.839 299.936 208.607C280.013 212.223 259.651 210.98 240.836 203.216C223.38 196.012 208.02 184.197 195.528 170.127C180.996 153.758 170.444 134.263 162.451 113.982C153.931 92.3628 147.915 69.6775 143.034 46.9832C138.286 24.9076 135.118 2.35998 135.629 -20.266C136.012 -37.1971 138.897 -58.5726 154.143 -68.914C168.651 -78.7554 186.802 -71.8645 202.495 -69.6138C210.275 -68.4981 218.451 -68.2701 225.851 -71.3108C233.67 -74.5238 239.605 -80.8358 245.15 -86.9966C250.744 -93.2122 256.401 -100.256 264.195 -103.791C272.999 -107.783 282.383 -105.423 290.106 -100.181C298.538 -94.4576 304.551 -86.1217 311.567 -78.8824C317.259 -73.0083 326.345 -64.3936 335.382 -67.657C343.307 -70.5184 345.052 -80.3661 349.208 -86.6655C354.182 -94.2037 363.609 -97.349 372.334 -96.4247C381.878 -95.4138 389.844 -89.5166 395.218 -81.7789C397.975 -77.8097 400.073 -73.4126 401.594 -68.8309C402.96 -64.7157 403.616 -60.3725 405.34 -56.3762C406.711 -53.2 408.854 -50.1416 412.319 -49.108C416.879 -47.7476 421.08 -50.51 424.855 -52.7118C432.608 -57.2348 441.747 -58.5225 450.538 -56.9231C459.21 -55.3453 467.53 -51.0287 473.424 -44.4148C477.16 -40.2237 480.405 -35.5485 483.994 -31.2245C487.48 -27.0247 490.921 -22.841 493.589 -18.0551C499.312 -7.79018 500.181 3.72936 499.99 15.2635C499.8 26.7378 498.323 38.1422 496.941 49.5193C495.476 61.5885 494.01 73.6578 492.545 85.727C491.131 97.3715 490.03 109.107 488.215 120.696C486.661 130.622 482.974 141.815 472.875 146.027C465.448 149.124 458.453 145.749 452.808 140.872C443.034 132.426 432.621 116.902 417.62 123.619C408.578 127.667 403.74 136.799 400.215 145.537C398.277 150.339 396.522 155.239 394.021 159.789C391.497 164.384 388.095 168.442 384.184 171.92C376.842 178.451 368.026 183.053 359.251 187.333C358.192 187.849 358.817 189.589 359.887 189.068Z" fill="white"/>
<path d="M365.347 212.308C375.807 207.208 386.348 201.735 395.031 193.865C399.076 190.199 402.649 186.055 405.471 181.372C408.679 176.048 410.841 170.194 413.131 164.439C417.414 153.671 423.515 140.962 435.812 137.772C444.649 135.479 452.361 140.547 458.565 146.28C464.465 151.731 469.651 158.156 476.512 162.47C484.105 167.246 493.058 167.526 500.595 162.333C510.265 155.67 513.692 144.053 515.332 133.006C517.385 119.169 518.771 105.208 520.457 91.3224C522.192 77.0347 523.929 62.7474 525.662 48.4595C527.234 35.5037 528.771 22.5009 528.786 9.43109C528.801 -3.42753 527.39 -15.909 521.025 -27.3026C517.815 -33.0502 513.643 -38.0339 509.465 -43.0855C505.332 -48.0829 501.617 -53.5403 497.221 -58.3031C483.935 -72.6971 460.951 -78.1018 442.986 -69.7552C438.036 -67.4555 432.61 -62.277 426.764 -63.7021C421.839 -64.9028 419.661 -70.2436 418.296 -74.6001C416.701 -79.692 415.685 -84.877 413.619 -89.8268C411.502 -94.9014 408.73 -99.7436 405.227 -103.991C398.687 -111.919 389.61 -117.623 379.226 -118.456C369.792 -119.213 359.735 -116.245 353.42 -108.91C350.199 -105.168 348.327 -100.509 346.168 -96.127C344.051 -91.8302 341.46 -87.0666 336.735 -85.2403C330.96 -83.0075 324.839 -86.1468 320.23 -89.5273C315.048 -93.3285 310.612 -98.0172 306.339 -102.788C298.821 -111.182 291.462 -119.98 281.296 -125.276C272.309 -129.958 262.068 -130.748 252.935 -126.016C235.099 -116.775 227.21 -94.3609 207.289 -88.2799C197.999 -85.4441 188.066 -86.7447 178.693 -88.4378C169.203 -90.152 159.725 -92.5028 150.032 -92.6188C140.634 -92.7313 131.398 -90.179 124.159 -83.9951C116.695 -77.6182 112.139 -68.5886 109.329 -59.3246C106.188 -48.966 105.26 -38.1665 105.067 -27.3916C104.827 -14.0121 105.697 -0.628346 107.349 12.6462C110.64 39.1007 116.779 65.2836 124.123 90.8869C131.582 116.89 141.125 142.528 155.276 165.689C167.122 185.079 182.363 202.505 200.915 215.738C218.779 228.481 239.573 237.05 261.543 238.862C285.763 240.86 309.865 235.188 332.411 226.71C343.634 222.489 354.568 217.547 365.347 212.308C366.407 211.793 365.781 210.053 364.711 210.573C342.945 221.152 320.278 230.744 296.349 235.087C273.376 239.256 249.896 237.817 228.201 228.864C208.07 220.557 190.361 206.929 175.956 190.703C159.208 171.839 147.048 149.369 137.836 125.996C128.017 101.081 121.086 74.9371 115.461 48.783C109.992 23.3539 106.343 -2.61876 106.932 -28.6817C107.374 -48.2354 110.71 -72.9031 128.316 -84.8456C145.07 -96.2101 165.996 -88.2749 184.12 -85.6756C193.057 -84.3938 202.449 -84.1307 210.95 -87.6239C219.932 -91.315 226.751 -98.5729 233.121 -105.65C239.583 -112.83 246.116 -120.955 255.119 -125.038C265.307 -129.658 276.169 -126.92 285.104 -120.856C294.816 -114.263 301.743 -104.661 309.825 -96.3219C316.339 -89.5997 326.767 -79.6767 337.12 -83.4149C346.206 -86.6956 348.219 -98.0461 352.987 -105.269C358.746 -113.993 369.66 -117.629 379.759 -116.559C390.786 -115.391 399.998 -108.573 406.208 -99.632C409.391 -95.0501 411.815 -89.9728 413.57 -84.6837C415.143 -79.9435 415.899 -74.9406 417.886 -70.3371C419.447 -66.7203 421.886 -63.2256 425.834 -62.0491C431.039 -60.4981 435.845 -63.6702 440.151 -66.1818C449.115 -71.4112 459.676 -72.9062 469.842 -71.0568C479.87 -69.2323 489.48 -64.2389 496.295 -56.5919C500.597 -51.7639 504.336 -46.3787 508.47 -41.3979C512.485 -36.5601 516.449 -31.7409 519.522 -26.2281C526.128 -14.3798 527.142 -1.09288 526.921 12.222C526.702 25.4514 525.001 38.6003 523.408 51.7178C521.72 65.6205 520.032 79.5231 518.343 93.4257C516.715 106.839 515.447 120.357 513.356 133.707C511.557 145.194 507.278 158.121 495.595 162.993C486.995 166.58 478.881 162.681 472.342 157.031C461.129 147.341 449.162 129.472 431.947 137.18C421.568 141.827 416.023 152.329 411.978 162.355C409.746 167.887 407.723 173.532 404.843 178.773C401.922 184.088 397.989 188.778 393.465 192.802C384.999 200.333 374.83 205.639 364.711 210.573C363.652 211.089 364.278 212.829 365.347 212.308Z" fill="white"/>
<path d="M369.354 229.361C380.82 223.77 392.372 217.77 401.89 209.144C406.314 205.134 410.223 200.6 413.31 195.478C416.829 189.638 419.201 183.218 421.711 176.906C426.405 165.108 433.132 151.066 446.638 147.611C456.383 145.118 464.83 150.627 471.681 156.958C478.145 162.93 483.829 169.973 491.345 174.703C499.644 179.926 509.428 180.239 517.669 174.561C528.255 167.266 532.001 154.545 533.796 142.452C536.048 127.277 537.568 111.964 539.417 96.7349C541.32 81.0647 543.225 65.3945 545.126 49.724C546.849 35.522 548.535 21.2687 548.552 6.94184C548.568 -7.14333 547.028 -20.8209 540.056 -33.302C536.535 -39.6059 531.959 -45.0719 527.377 -50.6123C522.844 -56.0931 518.77 -62.0797 513.948 -67.3024C499.399 -83.0596 474.235 -88.9681 454.569 -79.8309C449.117 -77.2979 443.169 -71.6219 436.73 -73.1877C431.293 -74.5098 428.882 -80.3865 427.375 -85.1977C425.625 -90.7822 424.51 -96.4691 422.245 -101.898C419.926 -107.457 416.89 -112.759 413.052 -117.412C405.893 -126.09 395.957 -132.329 384.592 -133.241C374.278 -134.068 363.277 -130.821 356.373 -122.802C352.845 -118.703 350.796 -113.6 348.431 -108.801C346.098 -104.066 343.241 -98.8268 338.036 -96.8146C331.67 -94.3536 324.927 -97.8048 319.846 -101.532C314.155 -105.705 309.286 -110.854 304.595 -116.093C296.36 -125.287 288.298 -134.927 277.164 -140.728C267.331 -145.851 256.13 -146.719 246.136 -141.542C226.568 -131.406 217.923 -106.821 196.063 -100.149C185.858 -97.0336 174.949 -98.458 164.653 -100.318C154.252 -102.197 143.864 -104.775 133.241 -104.902C122.948 -105.026 112.839 -102.234 104.91 -95.4606C96.7424 -88.4832 91.7543 -78.5958 88.6808 -68.4597C85.238 -57.1061 84.218 -45.2696 84.0067 -33.4596C83.7439 -18.7852 84.6981 -4.10633 86.5096 10.4528C90.1187 39.4596 96.849 68.1682 104.902 96.2418C113.08 124.753 123.542 152.866 139.058 178.261C152.047 199.522 168.757 218.627 189.098 233.137C208.679 247.104 231.471 256.493 255.552 258.48C282.099 260.669 308.519 254.448 333.232 245.155C345.54 240.528 357.532 235.107 369.354 229.361C370.414 228.846 369.788 227.106 368.718 227.626C344.838 239.233 319.971 249.752 293.717 254.517C268.505 259.093 242.738 257.509 218.929 247.684C196.836 238.567 177.402 223.609 161.593 205.801C143.22 185.107 129.879 160.453 119.774 134.811C109.001 107.477 101.399 78.7955 95.2281 50.1026C89.2297 22.2126 85.2269 -6.2734 85.8731 -34.8588C86.3587 -56.3368 90.0252 -83.4205 109.363 -96.5378C127.765 -109.02 150.729 -100.319 170.636 -97.4634C180.423 -96.0596 190.706 -95.7706 200.016 -99.5961C209.852 -103.638 217.319 -111.59 224.294 -119.34C231.393 -127.228 238.568 -136.145 248.459 -140.631C259.662 -145.711 271.609 -142.697 281.433 -136.029C292.086 -128.798 299.683 -118.267 308.546 -109.121C315.664 -101.776 327.077 -90.8929 338.395 -94.9798C348.334 -98.5683 350.543 -111.022 355.759 -118.921C362.095 -128.517 374.1 -132.512 385.207 -131.336C397.323 -130.052 407.449 -122.558 414.273 -112.734C417.768 -107.703 420.431 -102.126 422.358 -96.3183C424.083 -91.1192 424.912 -85.6323 427.091 -80.5833C428.792 -76.6429 431.449 -72.8282 435.752 -71.5471C441.43 -69.8564 446.68 -73.3287 451.375 -76.0679C461.228 -81.8157 472.833 -83.4628 484.007 -81.4299C495.03 -79.4245 505.587 -73.9343 513.077 -65.5293C517.796 -60.2338 521.897 -54.328 526.431 -48.865C530.834 -43.559 535.181 -38.2734 538.552 -32.2272C545.806 -19.2168 546.926 -4.63313 546.684 9.98845C546.443 24.506 544.577 38.9349 542.829 53.3297C540.978 68.5777 539.126 83.8257 537.275 99.0738C535.488 113.785 534.098 128.611 531.805 143.253C529.826 155.886 525.113 170.085 512.268 175.441C502.806 179.387 493.872 175.104 486.677 168.887C474.407 158.285 461.3 138.696 442.46 147.131C431.1 152.217 425.035 163.724 420.609 174.695C418.16 180.763 415.942 186.954 412.783 192.702C409.572 198.546 405.25 203.699 400.276 208.124C390.984 216.389 379.824 222.211 368.718 227.626C367.66 228.142 368.285 229.882 369.354 229.361Z" fill="white"/>
<path d="M373.361 246.414C385.832 240.334 398.395 233.807 408.748 224.425C413.551 220.071 417.798 215.145 421.149 209.584C424.979 203.229 427.56 196.242 430.292 189.374C435.408 176.515 442.745 161.219 457.464 157.452C468.099 154.73 477.317 160.726 484.797 167.637C491.826 174.132 498.006 181.792 506.178 186.937C515.184 192.607 525.799 192.952 534.743 186.79C546.246 178.864 550.31 165.039 552.26 151.9C554.711 135.386 556.365 118.722 558.377 102.149C560.448 85.0959 562.521 68.0432 564.59 50.99C566.464 35.5421 568.299 20.038 568.316 4.45411C568.334 -10.8576 566.666 -25.7312 559.086 -39.2999C555.254 -46.16 550.275 -52.1083 545.289 -58.1376C540.356 -64.102 535.923 -70.6176 530.674 -76.3004C514.863 -93.4209 487.519 -99.8329 466.15 -89.9052C460.196 -87.1389 453.728 -80.9657 446.695 -82.6723C440.746 -84.1159 438.102 -90.5281 436.452 -95.794C434.548 -101.871 433.335 -108.06 430.871 -113.968C428.35 -120.01 425.048 -125.773 420.876 -130.831C413.098 -140.26 402.304 -147.033 389.957 -148.024C378.763 -148.922 366.818 -145.395 359.326 -136.692C355.49 -132.237 353.264 -126.69 350.694 -121.474C348.145 -116.3 345.022 -110.586 339.336 -108.387C332.379 -105.698 325.014 -109.461 319.461 -113.534C313.262 -118.08 307.959 -123.69 302.849 -129.396C293.898 -139.39 285.133 -149.872 273.03 -156.178C262.352 -161.741 250.191 -162.688 239.336 -157.066C218.036 -146.034 208.634 -119.28 184.835 -112.015C173.716 -108.621 161.831 -110.169 150.611 -112.196C139.301 -114.239 128.002 -117.045 116.449 -117.184C105.26 -117.318 94.2775 -114.286 85.6588 -106.924C76.7882 -99.346 71.3687 -88.601 68.0305 -77.5926C64.286 -65.2441 63.1748 -52.3705 62.9449 -39.5256C62.6591 -23.5564 63.6975 -7.58225 65.6687 8.26145C69.5952 39.8206 76.9176 71.0549 85.6789 101.599C94.5769 132.618 105.958 163.206 122.839 190.836C136.972 213.967 155.149 234.751 177.28 250.538C198.577 265.73 223.368 275.939 249.56 278.099C278.434 280.481 307.172 273.71 334.051 263.604C347.445 258.567 360.496 252.668 373.361 246.414C374.42 245.9 373.795 244.16 372.725 244.68C346.73 257.314 319.663 268.762 291.085 273.948C263.635 278.93 235.579 277.203 209.657 266.505C185.601 256.578 164.443 240.29 147.23 220.9C127.231 198.374 112.71 171.537 101.71 143.627C89.9841 113.874 81.7112 82.6547 74.9942 51.4227C68.4666 21.0718 64.1105 -9.92762 64.8137 -41.035C65.3428 -64.4376 69.3404 -93.937 90.4105 -108.229C110.46 -121.829 135.461 -112.361 157.151 -109.25C167.788 -107.725 178.963 -107.41 189.081 -111.568C199.771 -115.961 207.886 -124.606 215.466 -133.029C223.203 -141.625 231.021 -151.335 241.799 -156.223C254.017 -161.764 267.049 -158.474 277.762 -151.202C289.355 -143.333 297.622 -131.873 307.267 -121.919C314.988 -113.952 327.387 -102.109 339.671 -106.544C350.461 -110.44 352.867 -123.996 358.531 -132.573C365.444 -143.04 378.54 -147.395 390.654 -146.111C403.86 -144.713 414.901 -136.542 422.337 -125.836C426.144 -120.355 429.046 -114.279 431.146 -107.952C433.024 -102.294 433.925 -96.323 436.297 -90.8287C438.137 -86.565 441.012 -82.4302 445.669 -81.0442C451.82 -79.2136 457.514 -82.9862 462.6 -85.9532C473.341 -92.2195 485.989 -94.0187 498.173 -91.8021C510.19 -89.6158 521.694 -83.6289 529.859 -74.4656C534.994 -68.7028 539.457 -62.2758 544.391 -56.3308C549.183 -50.5567 553.914 -44.8046 557.583 -38.2249C565.485 -24.0527 566.71 -8.17206 566.446 7.75626C566.185 23.5621 564.154 39.2709 562.251 54.9427C560.236 71.5361 558.221 88.1296 556.206 104.723C554.262 120.732 552.749 136.867 550.254 152.8C548.096 166.579 542.948 182.049 528.941 187.891C518.618 192.196 508.863 187.528 501.012 180.745C487.685 169.23 473.437 147.92 452.973 157.082C440.633 162.608 434.048 175.119 429.24 187.037C426.576 193.64 424.162 200.377 420.724 206.632C417.222 213.005 412.51 218.622 407.087 223.447C396.97 232.446 384.816 238.784 372.725 244.68C371.666 245.196 372.291 246.936 373.361 246.414Z" fill="white"/>
<path d="M377.369 263.468C390.845 256.898 404.42 249.843 415.607 239.705C420.79 235.008 425.374 229.69 428.99 223.691C433.13 216.82 435.92 209.267 438.874 201.842C444.412 187.921 452.359 171.372 468.291 167.293C479.816 164.342 489.806 170.825 497.913 178.316C505.507 185.333 512.185 193.611 521.012 199.17C530.725 205.288 542.17 205.666 551.818 199.018C564.237 190.461 568.62 175.533 570.725 161.347C573.375 143.494 575.163 125.479 577.339 107.563C579.577 89.127 581.818 70.6916 584.054 52.2557C586.08 35.5616 588.063 18.807 588.082 1.96607C588.101 -14.5724 586.305 -30.6419 578.118 -45.2982C573.975 -52.7144 568.592 -59.145 563.201 -65.6632C557.869 -72.111 553.076 -79.1558 547.402 -85.2987C530.328 -103.782 500.803 -110.698 477.733 -99.9797C471.256 -96.9707 464.31 -90.3386 456.661 -92.157C450.202 -93.6925 447.317 -100.691 445.531 -106.391C443.473 -112.961 442.161 -119.651 439.497 -126.038C436.774 -132.565 433.207 -138.788 428.701 -144.251C420.304 -154.43 408.652 -161.738 395.323 -162.807C383.249 -163.776 370.361 -159.97 362.279 -150.583C358.137 -145.772 355.733 -139.78 352.958 -134.147C350.193 -128.534 346.804 -122.345 340.636 -119.961C333.089 -117.043 325.102 -121.118 319.076 -125.537C312.371 -130.456 306.634 -136.526 301.105 -142.699C291.437 -153.494 281.97 -164.818 268.897 -171.628C257.373 -177.632 244.254 -178.658 232.538 -172.591C209.505 -160.664 199.347 -131.739 173.609 -123.883C161.574 -120.209 148.715 -121.881 136.571 -124.074C124.351 -126.282 112.141 -129.316 99.6592 -129.466C87.5744 -129.611 75.718 -126.34 66.4093 -118.388C56.8358 -110.209 50.9845 -98.6065 47.3819 -86.7259C43.3356 -73.3824 42.1333 -59.4717 41.8848 -45.5918C41.5756 -28.3279 42.6983 -11.0587 44.8294 6.06977C49.0735 40.1812 56.9877 73.9413 66.4577 106.955C76.075 140.483 88.3752 173.545 106.621 203.41C121.897 228.412 141.542 250.875 165.463 267.938C188.477 284.355 215.266 295.384 243.569 297.718C274.771 300.292 305.827 292.971 334.872 282.05C349.352 276.606 363.461 270.229 377.369 263.468C378.428 262.954 377.803 261.214 376.733 261.734C348.624 275.396 319.356 287.771 288.454 293.379C258.766 298.767 228.422 296.896 200.386 285.327C174.367 274.589 151.486 256.971 132.868 236C111.244 211.643 95.542 182.622 83.648 152.443C70.9688 120.272 62.0249 86.5142 54.7617 52.7435C47.7049 19.9319 42.9955 -13.5811 43.7556 -47.2108C44.3281 -72.5378 48.6567 -104.453 71.4589 -119.92C93.1559 -134.638 120.194 -124.404 143.667 -121.037C155.154 -119.39 167.221 -119.049 178.147 -123.539C189.691 -128.283 198.455 -137.623 206.64 -146.718C215.014 -156.022 223.474 -166.524 235.14 -171.815C248.374 -177.816 262.489 -174.25 274.092 -166.374C286.625 -157.867 295.562 -145.478 305.99 -134.717C314.314 -126.128 327.698 -113.324 340.947 -118.108C352.589 -122.312 355.192 -136.971 361.305 -146.225C368.794 -157.562 382.982 -162.277 396.103 -160.887C410.398 -159.373 422.353 -150.527 430.403 -138.938C434.522 -133.007 437.663 -126.432 439.935 -119.586C441.965 -113.469 442.94 -107.014 445.504 -101.074C447.484 -96.4869 450.576 -92.0321 455.588 -90.5415C462.212 -88.5713 468.349 -92.6441 473.825 -95.8385C485.456 -102.623 499.147 -104.575 512.339 -102.175C525.351 -99.8072 537.802 -93.3235 546.643 -83.4023C552.194 -77.172 557.019 -70.2242 562.353 -63.7973C567.534 -57.555 572.648 -51.3365 576.614 -44.2233C585.164 -28.8891 586.496 -11.7115 586.21 5.52339C585.927 22.6173 583.732 39.606 581.674 56.5551C579.495 74.4939 577.317 92.4326 575.139 110.371C573.037 127.679 571.401 145.121 568.704 162.347C566.367 177.271 560.784 194.014 545.615 200.34C534.43 205.005 523.855 199.952 515.348 192.602C500.965 180.174 485.576 157.144 463.488 167.034C450.167 172.998 443.062 186.515 437.872 199.378C434.992 206.516 432.382 213.799 428.666 220.562C424.874 227.464 419.772 233.544 413.899 238.769C402.956 248.503 389.811 255.357 376.732 261.734C375.674 262.25 376.299 263.99 377.369 263.468Z" fill="white"/>
<path d="M381.376 280.522C395.857 273.461 410.443 265.88 422.465 254.985C428.027 249.944 432.949 244.236 436.829 237.797C441.28 230.411 444.279 222.292 447.454 214.309C453.415 199.326 461.971 181.525 479.117 177.133C491.532 173.953 502.292 180.923 511.028 188.995C519.187 196.533 526.362 205.429 535.844 211.404C546.263 217.97 558.54 218.379 568.891 211.247C582.227 202.058 586.928 186.026 589.189 170.795C592.037 151.603 593.959 132.237 596.298 112.976C598.705 93.1581 601.114 73.34 603.518 53.5216C605.694 35.5814 607.827 17.5762 607.847 -0.521805C607.867 -18.2868 605.943 -35.5523 597.148 -51.2963C592.694 -59.2688 586.908 -66.1815 581.113 -73.1886C575.38 -80.12 570.229 -87.694 564.128 -94.2968C545.792 -114.144 514.087 -121.563 489.315 -110.054C482.335 -106.812 474.869 -99.6836 466.626 -101.642C459.655 -103.298 456.536 -110.833 454.608 -116.987C452.395 -124.05 450.986 -131.242 448.122 -138.108C445.197 -145.119 441.365 -151.802 436.525 -157.67C427.509 -168.6 414.999 -176.442 400.688 -177.59C387.733 -178.63 373.902 -174.544 365.231 -164.473C360.783 -159.306 358.202 -152.87 355.22 -146.819C352.239 -140.768 348.585 -134.104 341.936 -131.533C333.798 -128.388 325.188 -132.774 318.691 -137.54C311.477 -142.831 305.307 -149.361 299.359 -156.002C288.974 -167.597 278.805 -179.763 264.763 -187.078C252.394 -193.522 238.315 -194.627 225.739 -188.115C200.973 -175.293 190.059 -144.198 162.382 -135.75C149.432 -131.797 135.597 -133.592 122.53 -135.953C109.399 -138.325 96.2795 -141.587 82.8672 -141.748C69.8868 -141.903 57.157 -138.393 47.1584 -129.851C36.8818 -121.073 30.5988 -108.612 26.7318 -95.8593C22.384 -81.5208 21.0904 -66.5731 20.8234 -51.6581C20.4912 -33.0994 21.698 -14.5349 23.9888 3.87792C28.5506 40.5415 37.0566 76.8273 47.2352 112.311C57.5722 148.348 70.7915 183.885 90.4026 215.984C106.821 242.856 127.934 266.999 153.645 285.339C178.376 302.98 207.163 314.829 237.577 317.338C271.106 320.103 304.48 312.233 335.691 300.498C351.257 294.645 366.424 287.789 381.376 280.522C382.435 280.007 381.809 278.267 380.739 278.787C350.517 293.477 319.048 306.781 285.821 312.811C253.895 318.605 221.262 316.589 191.114 304.148C163.132 292.6 138.527 273.651 118.505 251.099C95.2549 224.91 78.3727 193.707 65.5847 161.259C51.9522 126.669 42.3372 90.3733 34.5279 54.0637C26.9419 18.7911 21.8794 -17.2352 22.6965 -53.387C23.3125 -80.6387 27.9719 -114.97 52.5064 -131.612C75.8511 -147.447 104.926 -136.447 130.183 -132.824C142.52 -131.055 155.478 -130.688 167.212 -135.51C179.61 -140.605 189.022 -150.639 197.813 -160.407C206.824 -170.419 215.926 -181.714 228.48 -187.407C242.729 -193.869 257.929 -190.026 270.421 -181.546C283.894 -172.401 293.501 -159.083 304.711 -147.516C313.638 -138.304 328.008 -124.54 342.222 -129.672C354.717 -134.184 357.516 -149.946 364.077 -159.877C372.142 -172.085 387.422 -177.159 401.551 -175.663C416.935 -174.033 429.804 -164.511 438.467 -152.039C442.899 -145.659 446.279 -138.585 448.723 -131.22C450.905 -124.644 451.954 -117.705 454.71 -111.319C456.829 -106.409 460.14 -101.634 465.506 -100.038C472.603 -97.9282 479.184 -102.302 485.05 -105.724C497.569 -113.027 512.304 -115.13 526.505 -112.547C540.511 -109.998 553.91 -103.018 563.425 -92.3386C569.393 -85.6409 574.579 -78.1721 580.314 -71.2631C585.883 -64.5525 591.38 -57.8679 595.644 -50.2211C604.842 -33.7249 606.28 -15.2504 605.973 3.29107C605.668 21.673 603.308 39.9418 601.095 58.1682C598.753 77.4524 596.412 96.7366 594.07 116.021C591.811 134.626 590.052 153.377 587.152 171.894C584.636 187.965 578.618 205.979 562.288 212.789C550.241 217.813 538.846 212.377 529.683 204.46C514.243 191.119 497.714 166.368 474.001 176.985C459.699 183.389 452.075 197.911 446.503 211.719C443.407 219.393 440.602 227.222 436.607 234.493C432.524 241.923 427.033 248.467 420.709 254.093C408.942 264.56 394.803 271.93 380.739 278.788C379.681 279.303 380.306 281.044 381.376 280.522Z" fill="white"/>
<path d="M385.382 297.576C400.869 290.024 416.466 281.916 429.323 270.265C435.264 264.881 440.523 258.781 444.668 251.903C449.429 244.003 452.637 235.316 456.034 226.777C462.417 210.732 471.584 191.678 489.942 186.974C503.248 183.565 514.779 191.022 524.143 199.674C532.866 207.734 540.538 217.25 550.676 223.637C561.804 230.648 574.907 231.094 585.965 223.475C600.217 213.655 605.237 196.52 607.652 180.243C610.699 159.711 612.756 138.994 615.258 118.39C617.832 97.1892 620.409 75.9886 622.981 54.7873C625.309 35.601 627.59 16.3454 627.612 -3.00981C627.633 -22.0014 625.58 -40.463 616.178 -57.2945C611.413 -65.8232 605.223 -73.2184 599.024 -80.7142C592.892 -88.1289 587.381 -96.2321 580.855 -103.295C561.255 -124.505 527.37 -132.428 500.896 -120.129C493.414 -116.653 485.428 -109.028 476.591 -111.126C469.108 -112.903 465.756 -120.976 463.686 -127.584C461.319 -135.139 459.811 -142.833 456.746 -150.178C453.62 -157.673 449.523 -164.817 444.349 -171.09C434.714 -182.77 421.346 -191.147 406.052 -192.374C392.218 -193.484 377.443 -189.119 368.183 -178.364C363.428 -172.84 360.67 -165.961 357.483 -159.493C354.285 -153.003 350.365 -145.863 343.235 -143.107C334.507 -139.733 325.274 -144.431 318.305 -149.543C310.584 -155.206 303.979 -162.197 297.613 -169.305C286.512 -181.7 275.64 -194.709 260.629 -202.529C247.414 -209.413 232.375 -210.596 218.939 -203.64C192.441 -189.922 180.77 -156.658 151.154 -147.617C137.289 -143.385 122.479 -145.304 108.488 -147.831C94.4473 -150.368 80.4172 -153.858 66.0754 -154.03C52.1994 -154.196 38.5959 -150.446 27.9073 -141.315C16.9279 -131.936 10.2132 -118.618 6.08163 -104.993C1.43209 -89.6594 0.0473742 -73.6746 -0.238291 -57.7245C-0.593802 -37.8709 0.697234 -18.0113 3.14811 1.68613C8.02733 40.9021 17.1256 79.7135 28.0126 117.668C39.0691 156.212 53.2073 194.225 74.1836 228.558C91.7442 257.301 114.326 283.122 141.826 302.739C168.274 321.605 199.059 334.274 231.584 336.957C267.441 339.914 303.133 331.495 336.51 318.945C353.162 312.684 369.387 305.35 385.382 297.576C386.441 297.061 385.816 295.321 384.745 295.841C352.408 311.558 318.739 325.79 283.188 332.242C249.024 338.442 214.103 336.282 181.841 322.968C151.897 310.611 125.567 290.332 104.141 266.197C79.2657 238.178 61.2032 204.791 47.521 170.075C32.9353 133.066 22.6489 94.2324 14.2939 55.3838C6.17846 17.6505 0.76283 -20.8894 1.63701 -59.5635C2.29648 -88.7396 7.28675 -125.487 33.5533 -143.304C58.5459 -160.257 89.6579 -148.49 116.698 -144.612C129.885 -142.72 143.735 -142.328 156.277 -147.482C169.529 -152.928 179.589 -163.655 188.985 -174.096C198.634 -184.816 208.378 -196.904 221.819 -202.999C237.084 -209.922 253.368 -205.802 266.75 -196.719C281.163 -186.936 291.441 -172.689 303.433 -160.314C312.963 -150.48 328.318 -135.756 343.497 -141.237C356.844 -146.056 359.84 -162.921 366.85 -173.529C375.491 -186.608 391.862 -192.042 406.999 -190.438C423.472 -188.694 437.256 -178.496 446.532 -165.141C451.276 -158.311 454.895 -150.738 457.511 -142.853C459.846 -135.819 460.967 -128.396 463.915 -121.565C466.175 -116.331 469.703 -111.236 475.423 -109.536C482.994 -107.286 490.018 -111.959 496.274 -115.609C509.682 -123.431 525.461 -125.686 540.67 -122.919C555.671 -120.19 570.017 -112.712 580.207 -101.275C586.591 -94.1102 592.14 -86.1204 598.274 -78.7293C604.232 -71.5508 610.113 -64.3995 614.674 -56.2193C624.52 -38.5612 626.064 -18.7898 625.735 1.05842C625.41 20.7285 622.885 40.2773 620.516 59.7807C618.011 80.4103 615.506 101.04 613.001 121.67C610.584 141.573 608.703 161.632 605.601 181.441C602.905 198.657 596.453 217.943 578.96 225.239C566.053 230.622 553.836 224.801 544.017 216.317C527.522 202.064 509.851 175.592 484.514 186.936C469.232 193.779 461.087 209.306 455.134 224.06C451.822 232.269 448.821 240.645 444.547 248.422C440.174 256.382 434.293 263.389 427.52 269.415C414.927 280.617 399.796 288.502 384.746 295.841C383.687 296.357 384.312 298.097 385.382 297.576Z" fill="white"/>
<path d="M389.39 314.629C405.883 306.587 422.489 297.951 436.182 285.545C442.503 279.818 448.099 273.325 452.508 266.009C457.58 257.593 460.997 248.34 464.616 239.244C471.421 222.138 481.198 201.83 500.769 196.814C514.965 193.176 527.267 201.12 537.26 210.353C546.548 218.934 554.717 229.069 565.51 235.871C577.345 243.329 591.278 243.808 603.04 235.704C618.208 225.252 623.547 207.013 626.117 189.69C629.363 167.82 631.554 145.751 634.219 123.804C636.961 101.22 639.706 78.6367 642.446 56.0529C644.924 35.6207 647.354 15.1143 647.377 -5.49792C647.4 -25.716 645.219 -45.3737 635.209 -63.2928C630.134 -72.3777 623.54 -80.2551 616.936 -88.2399C610.404 -96.1382 604.535 -104.77 597.582 -112.293C576.72 -134.867 540.654 -143.294 512.479 -130.203C504.494 -126.494 495.989 -118.374 486.557 -120.611C478.562 -122.508 474.977 -131.118 472.764 -138.18C470.243 -146.229 468.636 -154.424 465.372 -162.248C462.044 -170.227 457.683 -177.831 452.174 -184.509C441.92 -196.94 427.693 -205.851 411.418 -207.157C396.703 -208.338 380.984 -203.694 371.136 -192.255C366.074 -186.375 363.139 -179.051 359.746 -172.166C356.332 -165.237 352.147 -157.623 344.535 -154.68C335.217 -151.078 325.362 -156.088 317.92 -161.546C309.691 -167.582 302.653 -175.033 295.868 -182.609C284.05 -195.804 272.476 -209.654 256.496 -217.979C242.436 -225.304 226.437 -226.566 212.14 -219.165C183.91 -204.552 171.482 -169.117 139.928 -159.485C125.148 -154.973 109.363 -157.016 94.4482 -159.71C79.4968 -162.411 64.5561 -166.129 49.2846 -166.312C34.5132 -166.489 20.0359 -162.5 8.65754 -152.78C-3.02497 -142.8 -10.1712 -128.624 -14.5672 -114.126C-19.5185 -97.798 -20.9945 -80.776 -21.2985 -63.791C-21.6771 -42.6427 -20.3018 -21.488 -17.6913 -0.505808C-12.4946 41.2626 -2.80454 82.5998 8.79114 123.024C20.5672 164.077 35.6242 204.564 57.9656 241.132C76.6697 271.746 100.719 299.246 130.01 320.14C158.174 340.23 190.958 353.719 225.594 356.576C263.778 359.725 301.787 350.757 337.331 337.392C355.069 330.723 372.352 322.911 389.39 314.629C390.449 314.114 389.824 312.374 388.753 312.894C354.302 329.64 318.433 344.799 280.557 351.673C244.155 358.279 206.945 355.975 172.57 341.789C140.663 328.622 112.61 307.012 89.779 281.296C63.2783 251.446 44.0355 215.875 29.4592 178.891C13.9202 139.463 2.96272 98.0915 -5.93854 56.7039C-14.5831 16.5097 -20.3521 -24.5434 -19.4208 -65.7398C-18.7177 -96.8403 -13.3965 -136.003 14.602 -154.995C41.2422 -173.066 74.3914 -160.533 103.215 -156.399C117.251 -154.386 131.993 -153.968 145.344 -159.454C159.45 -165.25 170.158 -176.672 180.159 -187.785C190.445 -199.213 200.832 -212.094 215.16 -218.592C231.44 -225.975 248.809 -221.579 263.08 -211.892C278.433 -201.47 289.381 -186.294 302.155 -173.113C312.288 -162.657 328.629 -146.972 344.773 -152.801C358.972 -157.928 362.165 -175.895 369.623 -187.182C378.841 -201.131 396.303 -206.925 412.448 -205.215C430.009 -203.354 444.708 -192.481 454.597 -178.243C459.654 -170.963 463.512 -162.891 466.301 -154.488C468.787 -146.995 469.981 -139.087 473.122 -131.811C475.521 -126.253 479.267 -120.838 485.342 -119.034C493.385 -116.644 500.854 -121.618 507.5 -125.495C521.796 -133.835 538.619 -136.243 554.837 -133.292C570.832 -130.382 586.125 -122.408 596.991 -110.212C603.791 -102.58 609.701 -94.0692 616.236 -86.1961C622.582 -78.5493 628.847 -70.9317 633.705 -62.218C644.199 -43.3981 645.849 -22.3296 645.499 -1.1747C645.152 19.7834 642.462 40.6122 639.939 61.393C637.27 83.368 634.602 105.343 631.933 127.318C629.359 148.52 627.355 169.886 624.051 190.988C621.175 209.349 614.289 229.907 595.634 237.687C581.865 243.43 568.828 237.224 558.353 228.174C540.801 213.008 521.99 184.815 495.029 196.887C478.765 204.169 470.101 220.701 463.767 236.401C460.239 245.145 457.041 254.067 452.489 262.352C447.825 270.841 441.555 278.311 434.331 284.737C420.913 296.673 404.79 305.075 388.753 312.894C387.695 313.411 388.32 315.151 389.39 314.629Z" fill="white"/>
<path d="M393.396 331.684C410.894 323.151 428.513 313.988 443.04 300.826C449.74 294.755 455.674 287.872 460.347 280.117C465.73 271.185 469.356 261.366 473.196 251.713C480.424 233.545 490.811 211.984 511.595 206.656C526.681 202.788 539.755 211.219 550.375 221.032C560.228 230.136 568.894 240.888 580.343 248.105C592.884 256.011 607.648 256.522 620.113 247.933C636.199 236.85 641.855 217.507 644.581 199.138C648.026 175.929 650.351 152.51 653.179 129.218C656.089 105.252 659.002 81.2861 661.91 57.3196C664.539 35.6412 667.118 13.8843 667.143 -7.98498C667.167 -29.4296 664.857 -50.2834 654.239 -69.2901C648.854 -78.9312 641.856 -87.2908 634.848 -95.7645C627.916 -104.146 621.688 -113.308 614.309 -121.291C592.184 -145.227 553.938 -154.158 524.061 -140.277C515.574 -136.335 506.548 -127.718 496.523 -130.095C488.016 -132.113 484.197 -141.26 481.842 -148.776C479.166 -157.317 477.461 -166.015 473.998 -174.317C470.467 -182.78 465.841 -190.845 459.998 -197.928C449.125 -211.109 434.04 -220.555 416.783 -221.94C401.188 -223.191 384.526 -218.268 374.089 -206.145C368.72 -199.908 365.607 -192.141 362.009 -184.838C358.379 -177.471 353.928 -169.381 345.835 -166.252C335.927 -162.422 325.449 -167.744 317.535 -173.548C308.798 -179.956 301.327 -187.868 294.123 -195.911C281.589 -209.906 269.312 -224.599 252.363 -233.429C237.457 -241.194 220.499 -242.535 205.341 -234.689C175.378 -219.18 162.194 -181.575 128.701 -171.351C113.006 -166.561 96.2453 -168.727 80.407 -171.588C64.5454 -174.453 48.6943 -178.399 32.493 -178.593C16.826 -178.781 1.47509 -174.552 -10.5932 -164.242C-22.9787 -153.662 -30.5565 -138.629 -35.2172 -123.259C-40.4702 -105.936 -42.0373 -87.8766 -42.3599 -69.8564C-42.7616 -47.4134 -41.3022 -24.9634 -38.5319 -2.69666C-33.0181 41.6241 -22.736 85.4868 -10.4318 128.381C2.06379 171.943 18.04 214.905 41.7465 253.707C61.5934 286.191 87.1111 315.371 118.191 337.541C148.072 358.856 182.854 373.165 219.601 376.196C260.112 379.537 300.44 370.019 338.15 355.84C356.974 348.762 375.315 340.472 393.396 331.684C394.456 331.169 393.83 329.429 392.76 329.949C356.194 347.721 318.124 363.809 277.925 371.104C239.284 378.117 199.787 375.669 163.298 360.611C129.428 346.634 99.6508 323.694 75.4156 296.396C47.289 264.715 26.8658 226.961 11.3954 187.707C-5.09687 145.861 -16.7254 101.951 -26.1727 58.0251C-35.3465 15.3701 -41.4687 -28.1966 -40.4805 -71.915C-39.734 -104.94 -34.0819 -146.519 -4.3513 -166.686C23.9366 -185.874 59.1229 -172.574 89.7297 -168.185C104.616 -166.05 120.249 -165.606 134.409 -171.424C149.368 -177.572 160.724 -189.687 171.331 -201.473C182.254 -213.609 193.283 -227.282 208.499 -234.183C225.795 -242.026 244.248 -237.354 259.408 -227.063C275.701 -216.004 287.319 -199.899 300.876 -185.91C311.612 -174.831 328.938 -158.186 346.047 -164.364C361.098 -169.799 364.488 -188.869 372.395 -200.833C382.189 -215.653 400.742 -221.806 417.895 -219.989C436.545 -218.013 452.158 -206.464 462.661 -191.343C468.03 -183.614 472.127 -175.043 475.088 -166.12C477.727 -158.169 478.994 -149.777 482.327 -142.055C484.863 -136.181 488.83 -130.428 495.259 -128.529C503.784 -126.011 511.678 -131.269 518.723 -135.379C533.909 -144.238 551.775 -146.797 569.001 -143.663C585.992 -140.572 602.231 -132.101 613.772 -119.147C620.989 -111.048 627.261 -102.016 634.196 -93.661C640.931 -85.546 647.579 -77.462 652.735 -68.2149C663.877 -48.2331 665.633 -25.8677 665.261 -3.40602C664.893 18.8402 662.038 40.9489 659.36 63.0069C656.528 86.3272 653.696 109.648 650.864 132.968C648.132 155.468 646.005 178.142 642.499 200.536C639.444 220.043 632.123 241.873 612.306 250.138C597.676 256.24 583.819 249.65 572.687 240.032C554.079 223.953 534.127 194.041 505.541 206.84C488.297 214.561 479.113 232.098 472.397 248.743C468.653 258.023 465.26 267.491 460.429 276.283C455.474 285.301 448.815 293.235 441.141 300.062C426.898 312.732 409.782 321.649 392.76 329.949C391.701 330.465 392.327 332.205 393.396 331.684Z" fill="white"/>
</g>
</g>
<defs>
<clipPath id="clip0_106_1180">
<rect width="354" height="354" rx="177" fill="white"/>
</clipPath>
</defs>
</svg>
