<svg width="160" height="160" viewBox="0 0 160 160" fill="none" xmlns="http://www.w3.org/2000/svg">
<g clip-path="url(#clip0_106_1289)">
<path d="M160 80.0001C160 124.183 124.183 160 80.0005 160C35.8177 160 0.000457764 124.183 0.000457764 80.0001C0.000457764 35.8174 35.8177 0.00012207 80.0005 0.00012207C124.183 0.00012207 160 35.8174 160 80.0001Z" fill="#8200CC"/>
<g clip-path="url(#clip1_106_1289)">
<path d="M15.7541 191.407C-42.4776 162.839 23.3851 65.8543 77.9183 79.6861C24.5632 83.2409 -0.435 145.904 15.7541 191.407Z" fill="#FF49B8"/>
<path d="M40.1739 202.469C15.4151 161.638 26.4442 93.2481 77.92 80.7877C-10.2358 124.985 98.7248 229.268 40.1739 202.469Z" fill="#B532FF"/>
<path d="M-24.2134 156.009C-66.7832 106.168 35.4806 43.1286 77.9133 79.6851C28.0344 60.098 -21.061 108.065 -24.2134 156.009Z" fill="#FF7020"/>
<path d="M93.4631 208C55.2884 180.318 35.6107 112.911 79.0323 80.7877C15.1833 158.958 157.729 207.244 93.4631 208Z" fill="#FF7020"/>
<path d="M-46.4152 107.337C-62.7235 44.6886 51.5916 29.2737 79.025 78.5756C40.3276 42.2379 -23.6801 64.7465 -46.4152 107.337Z" fill="#10CFC9"/>
<path d="M144.529 191.407C97.4346 181.82 54.2901 128.675 79.0327 80.7877C57.4999 181.481 199.918 163.323 144.529 191.407Z" fill="#FBAC2F"/>
<path d="M-46.4165 54.24C-39.4929 -10.3159 77.6537 22.2944 79.0255 78.572C59.216 28.6064 -7.53526 25.6885 -46.4165 54.24Z" fill="#FF7020"/>
<path d="M183.385 154.903C135.481 166.424 76.0539 134.202 79.0325 80.7877C97.2461 180.5 226.701 107.077 183.385 154.903Z" fill="#10CFC9"/>
<path d="M79.0286 78.5764C84.0891 25.2802 20.0725 -7.08984 -25.3235 5.56976C8.43185 -49.5384 100.535 25.0639 79.0286 78.5764Z" fill="#FBAC2F"/>
<path d="M80.1401 80.7885C108.175 126.032 176.453 116.191 207.806 79.6815C213.478 144.589 92.6585 135.207 80.1401 80.7885Z" fill="#B532FF"/>
<path d="M80.14 78.5766C103.987 31.0106 62.2769 -22.3625 14.6404 -30.9339C68.2358 -66.9007 119.851 40.1117 80.14 78.5766Z" fill="#B532FF"/>
<path d="M80.1401 80.7886C124.549 109.586 183.459 73.8719 196.704 27.6907C228.276 85.3093 115.434 124.322 80.1401 80.7886Z" fill="#FBAC2F"/>
<path d="M80.1401 80.7884C131.434 87.6569 170.774 34.7242 165.618 -15.4523C215.797 26.4888 130.904 103.634 80.1401 80.7884Z" fill="#10CFC9"/>
<path d="M80.1404 79.6825C122.729 46.0912 104.424 -19.1947 65.7059 -47.5282C130.324 -56.1952 132.07 57.0471 80.1404 79.6816V79.6825Z" fill="#FF49B8"/>
<path d="M80.1401 79.6826C132.472 66.2475 143.094 0.330888 118.993 -41.9979C182.439 -27.1986 136.428 85.5308 80.1401 79.6826Z" fill="#FF7020"/>
</g>
</g>
<defs>
<clipPath id="clip0_106_1289">
<rect width="160" height="160" rx="80" fill="white"/>
</clipPath>
<clipPath id="clip1_106_1289">
<rect width="256" height="256" fill="white" transform="translate(-48 -48)"/>
</clipPath>
</defs>
</svg>
