<svg width="160" height="160" viewBox="0 0 160 160" fill="none" xmlns="http://www.w3.org/2000/svg">
<g clip-path="url(#clip0_120_4972)">
<path d="M160 80C160 124.183 124.183 160 80.0005 160C35.8177 160 0.000457764 124.183 0.000457764 80C0.000457764 35.8173 35.8177 0 80.0005 0C124.183 0 160 35.8173 160 80Z" fill="#BD0017"/>
<g opacity="0.8" clip-path="url(#clip1_120_4972)">
<path d="M15.7541 191.407C-42.4776 162.839 23.3851 65.8541 77.9183 79.6858C24.5632 83.2407 -0.435 145.904 15.7541 191.407Z" fill="#FF49B8"/>
<path d="M40.1739 202.469C15.4151 161.637 26.4442 93.248 77.92 80.7876C-10.2358 124.985 98.7248 229.268 40.1739 202.469Z" fill="#FFCC40"/>
<path d="M-24.2134 156.009C-66.7832 106.168 35.4807 43.1287 77.9133 79.6852C28.0344 60.0981 -21.061 108.065 -24.2134 156.009Z" fill="#FF7020"/>
<path d="M93.4631 208C55.2884 180.318 35.6107 112.911 79.0323 80.7876C15.1833 158.958 157.729 207.244 93.4631 208Z" fill="#FF7020"/>
<path d="M-46.4152 107.337C-62.7235 44.6884 51.5916 29.2736 79.025 78.5754C40.3276 42.2378 -23.6801 64.7464 -46.4152 107.337Z" fill="#7A2799"/>
<path d="M144.529 191.407C97.4346 181.82 54.2901 128.675 79.0327 80.7876C57.4999 181.481 199.918 163.322 144.529 191.407Z" fill="#FBAC2F"/>
<path d="M-46.4165 54.2399C-39.4929 -10.316 77.6537 22.2943 79.0255 78.5719C59.216 28.6062 -7.53526 25.6884 -46.4165 54.2399Z" fill="#FF7020"/>
<path d="M183.385 154.903C135.481 166.424 76.0539 134.202 79.0325 80.7876C97.2461 180.5 226.701 107.077 183.385 154.903Z" fill="#7A2799"/>
<path d="M79.0286 78.5763C84.0891 25.28 20.0725 -7.08996 -25.3235 5.56964C8.43185 -49.5385 100.535 25.0638 79.0286 78.5763Z" fill="#FBAC2F"/>
<path d="M80.1401 80.7886C108.175 126.032 176.453 116.191 207.806 79.6816C213.478 144.59 92.6585 135.207 80.1401 80.7886Z" fill="#FFCC40"/>
<path d="M80.14 78.5764C103.987 31.0105 62.2769 -22.3627 14.6404 -30.934C68.2358 -66.9009 119.851 40.1116 80.14 78.5764Z" fill="#FFCC40"/>
<path d="M80.1401 80.7884C124.549 109.586 183.459 73.8716 196.704 27.6904C228.276 85.309 115.434 124.322 80.1401 80.7884Z" fill="#FBAC2F"/>
<path d="M80.1401 80.7885C131.434 87.657 170.774 34.7244 165.618 -15.4521C215.797 26.4889 130.904 103.634 80.1401 80.7885Z" fill="#7A2799"/>
<path d="M80.1404 79.6823C122.729 46.0911 104.424 -19.1948 65.7059 -47.5283C130.324 -56.1953 132.07 57.0469 80.1404 79.6814V79.6823Z" fill="#FF49B8"/>
<path d="M80.1401 79.6824C132.472 66.2474 143.094 0.330765 118.993 -41.998C182.439 -27.1987 136.428 85.5307 80.1401 79.6824Z" fill="#FF7020"/>
</g>
</g>
<defs>
<clipPath id="clip0_120_4972">
<rect width="160" height="160" rx="80" fill="white"/>
</clipPath>
<clipPath id="clip1_120_4972">
<rect width="256" height="256" fill="white" transform="translate(-48 -48)"/>
</clipPath>
</defs>
</svg>
