<svg width="354" height="354" viewBox="0 0 354 354" fill="none" xmlns="http://www.w3.org/2000/svg">
<g clip-path="url(#clip0_120_4862)">
<rect width="354" height="354" rx="177" fill="#E11F26"/>
<g opacity="0.2">
<path d="M327.123 49.6318C327.997 49.2052 328.888 48.7569 329.615 48.1002C330.038 47.7183 330.386 47.3131 330.68 46.8236C330.925 46.4149 331.094 45.9696 331.269 45.5279C331.352 45.3191 331.437 45.1107 331.534 44.908C331.584 44.8038 331.643 44.7044 331.694 44.6011C331.756 44.4742 331.566 44.7715 331.704 44.5843C331.741 44.5348 331.775 44.4841 331.813 44.4354C331.881 44.3476 331.954 44.2663 332.029 44.1848C332.107 44.1007 332.032 44.1286 332.013 44.1979C332.018 44.1789 332.103 44.1236 332.125 44.1066C332.173 44.0704 332.221 44.0364 332.272 44.0043C332.302 43.9847 332.437 43.9237 332.315 43.9749C332.172 44.0355 332.386 43.9507 332.397 43.9466C332.419 43.9391 332.441 43.9315 332.463 43.9239C332.565 43.8954 332.552 43.8967 332.424 43.9276C332.483 43.8786 332.635 43.9233 332.706 43.9073C332.536 43.9459 332.529 43.8906 332.615 43.9073C332.647 43.9134 332.679 43.9165 332.711 43.9226C332.75 43.9302 332.789 43.9444 332.828 43.9503C332.942 43.9675 332.606 43.8605 332.762 43.9318C332.835 43.9655 332.909 43.9948 332.98 44.0335C333.006 44.0475 333.038 44.0728 333.065 44.0817C333.053 44.0776 332.872 43.9496 332.989 44.0355C333.05 44.08 333.111 44.1227 333.171 44.1693C333.299 44.2707 333.421 44.3805 333.539 44.4934C334.04 44.9707 334.487 45.4662 335.091 45.8186C335.928 46.3062 336.986 46.2199 337.763 45.6547C338.656 45.0058 339.04 43.9505 339.198 42.8969C339.356 41.8422 339.461 40.7771 339.589 39.7184C339.723 38.6123 339.858 37.5062 339.992 36.4002C340.122 35.332 340.242 34.2604 340.245 33.183C340.248 32.037 340.071 30.9561 339.51 29.9457C339.268 29.5117 338.962 29.1325 338.646 28.7517C338.323 28.3631 338.031 27.9446 337.696 27.5673C336.469 26.1862 334.386 25.5735 332.639 26.2871C332.395 26.3865 332.164 26.5164 331.938 26.6489C331.894 26.6746 331.85 26.7005 331.806 26.7262C331.627 26.8306 331.821 26.7249 331.823 26.7173C331.817 26.7358 331.711 26.7627 331.686 26.7746C331.51 26.8599 331.825 26.7762 331.646 26.7786C331.678 26.779 331.709 26.7794 331.741 26.7797C331.663 26.7614 331.663 26.7627 331.741 26.7832C331.761 26.7888 331.78 26.7941 331.8 26.7997C331.732 26.7638 331.734 26.7663 331.804 26.8067C331.822 26.8174 331.84 26.8282 331.858 26.8389C331.785 26.774 331.799 26.7934 331.901 26.8974C331.902 26.8921 331.828 26.8017 331.831 26.8058C331.834 26.8102 331.773 26.7053 331.768 26.7047C331.828 26.7104 331.849 26.8889 331.803 26.7585C331.767 26.6582 331.726 26.5612 331.695 26.4592C331.568 26.0497 331.484 25.6362 331.312 25.2409C331.117 24.7923 330.872 24.3497 330.554 23.9758C329.917 23.2265 329.044 22.6398 328.04 22.5617C327.015 22.482 326.003 22.7754 325.293 23.5491C324.998 23.871 324.812 24.2821 324.624 24.6716C324.587 24.7477 324.55 24.8237 324.511 24.8983C324.492 24.9349 324.47 24.9708 324.451 25.0075C324.361 25.1842 324.55 24.9009 324.465 24.9876C324.456 24.9966 324.297 25.1812 324.3 25.1916C324.293 25.1666 324.485 25.0573 324.348 25.1411C324.165 25.252 324.362 25.1343 324.369 25.141C324.355 25.1286 324.275 25.1964 324.257 25.1812C324.234 25.1618 324.451 25.1729 324.293 25.162C324.508 25.1768 324.345 25.1666 324.29 25.157C324.26 25.1519 324.114 25.1145 324.232 25.1493C324.368 25.1897 324.151 25.1119 324.143 25.1084C324.099 25.0883 324.057 25.0646 324.014 25.043C323.972 25.0221 323.878 24.9471 324.029 25.0561C323.967 25.0111 323.903 24.9686 323.842 24.922C323.663 24.786 323.496 24.6361 323.336 24.4791C323.289 24.4327 323.243 24.385 323.196 24.3385C323.171 24.3133 323.074 24.21 323.196 24.3403C323.105 24.2433 323.017 24.1439 322.928 24.0449C322.264 23.3002 321.615 22.5609 320.714 22.0975C319.866 21.6612 318.831 21.5731 317.957 21.9877C317.142 22.3745 316.543 23.0326 315.949 23.694C315.825 23.8324 315.7 23.9704 315.572 24.1049C315.505 24.1757 315.436 24.2453 315.366 24.3137C315.342 24.3374 315.235 24.4307 315.337 24.3433C315.449 24.247 315.278 24.3928 315.256 24.4113C315.12 24.5277 314.976 24.6367 314.824 24.7322C314.789 24.7546 314.752 24.7749 314.716 24.7971C314.538 24.9083 314.867 24.7326 314.741 24.7834C314.646 24.8215 314.554 24.8649 314.457 24.8978C314.409 24.9137 314.361 24.9261 314.314 24.9418C314.215 24.9743 314.255 24.9087 314.382 24.9301C314.316 24.9189 314.218 24.9606 314.149 24.9697C313.95 24.9955 313.752 24.9987 313.553 24.9974C313.413 24.9965 313.602 25.0114 313.611 25.0005C313.606 25.0061 313.484 24.9911 313.489 24.9915C313.407 24.9846 313.326 24.976 313.245 24.966C313.038 24.9408 312.833 24.9072 312.629 24.8703C311.831 24.7263 311.049 24.5537 310.235 24.5388C309.385 24.5231 308.496 24.7775 307.833 25.3217C307.137 25.893 306.669 26.6683 306.394 27.5196C306.098 28.4366 305.997 29.3613 305.972 30.3219C305.945 31.3657 306.007 32.4104 306.131 33.4467C306.387 35.5725 306.881 37.6795 307.468 39.7367C308.552 43.5342 310.321 47.3665 313.617 49.7329C315.103 50.7998 316.837 51.5533 318.673 51.7102C320.691 51.8826 322.685 51.4534 324.57 50.7472C325.44 50.4208 326.287 50.0378 327.123 49.6318C327.556 49.4214 327.878 48.9389 327.672 48.4463C327.495 48.0224 326.952 47.671 326.487 47.8972C325.651 48.3031 324.804 48.6863 323.933 49.0123C323.487 49.1797 323.034 49.3321 322.576 49.4641C322.373 49.5223 322.17 49.5764 321.965 49.6261C321.914 49.6385 321.863 49.6498 321.812 49.6623C322 49.6154 321.864 49.6512 321.823 49.6597C321.695 49.6862 321.567 49.712 321.438 49.7353C320.991 49.8159 320.538 49.8719 320.084 49.8972C319.863 49.9094 319.643 49.9146 319.422 49.9118C319.371 49.9112 319.074 49.8988 319.272 49.9101C319.142 49.9025 319.012 49.8931 318.882 49.8802C318.456 49.8379 318.034 49.7643 317.62 49.6588C317.518 49.6328 317.416 49.6049 317.315 49.5753C317.271 49.5624 317.223 49.5517 317.181 49.5347C317.207 49.5454 317.365 49.5967 317.206 49.5409C317.007 49.4715 316.81 49.3994 316.615 49.3185C316.237 49.1607 315.869 48.9783 315.514 48.7745C315.422 48.7218 315.331 48.6675 315.241 48.6126C315.202 48.589 315.09 48.5367 315.262 48.6257C315.221 48.6049 315.18 48.5733 315.143 48.5487C314.966 48.4317 314.792 48.3092 314.622 48.1823C314.29 47.9341 313.972 47.6678 313.667 47.3861C313.519 47.249 313.374 47.108 313.233 46.9638C313.2 46.9298 313.167 46.8955 313.134 46.8615C313.015 46.7388 313.129 46.8609 313.15 46.8809C313.065 46.8007 312.989 46.7044 312.912 46.6161C312.313 45.9337 311.79 45.1887 311.332 44.4058C311.273 44.3051 311.215 44.2036 311.158 44.1017C311.129 44.0507 311.101 43.9995 311.073 43.9483C311.079 43.9588 310.944 43.7057 311.007 43.8261C311.06 43.9261 310.975 43.7635 310.964 43.7413C310.938 43.6892 310.911 43.6371 310.885 43.5848C310.82 43.454 310.756 43.3226 310.694 43.1905C310.476 42.7269 310.276 42.2552 310.091 41.7775C309.718 40.8182 309.407 39.8363 309.131 38.8453C308.994 38.3525 308.865 37.8575 308.743 37.361C308.684 37.1243 308.627 36.887 308.572 36.6496C308.546 36.5378 308.521 36.4256 308.496 36.3137C308.534 36.4822 308.5 36.3357 308.493 36.3033C308.475 36.2191 308.457 36.135 308.439 36.0507C308.025 34.0914 307.755 32.0899 307.817 30.0836C307.819 30.0263 307.821 29.969 307.823 29.9119C307.822 29.94 307.812 30.0902 307.822 29.9335C307.828 29.8448 307.834 29.7559 307.841 29.6674C307.859 29.4651 307.883 29.2633 307.915 29.0627C307.946 28.8609 307.986 28.6604 308.034 28.462C308.056 28.3742 308.08 28.2873 308.104 28.2001C308.14 28.0675 308.123 28.2234 308.092 28.2325C308.102 28.2295 308.153 28.0562 308.158 28.0429C308.218 27.8779 308.287 27.7158 308.365 27.5586C308.409 27.4715 308.458 27.3884 308.504 27.3028C308.564 27.192 308.407 27.4422 308.48 27.3402C308.511 27.2971 308.539 27.2526 308.571 27.2097C308.626 27.1334 308.685 27.0595 308.748 26.9885C308.775 26.9571 308.803 26.9263 308.832 26.896C308.839 26.8884 308.847 26.8808 308.854 26.8732C308.926 26.8025 308.912 26.8136 308.814 26.9067C308.83 26.8561 308.964 26.7803 309.008 26.748C309.077 26.696 309.222 26.6428 309.272 26.5746C309.259 26.5922 309.066 26.6696 309.224 26.6007C309.264 26.5831 309.303 26.5643 309.343 26.5475C309.417 26.5162 309.493 26.4887 309.57 26.4645C309.608 26.4525 309.647 26.4429 309.685 26.4311C309.844 26.3817 309.633 26.4518 309.617 26.444C309.663 26.4652 309.853 26.4056 309.91 26.3995C310.08 26.3815 310.248 26.3867 310.418 26.3812C310.551 26.3769 310.186 26.3618 310.391 26.3797C310.432 26.3832 310.472 26.3856 310.513 26.3893C310.615 26.3984 310.717 26.41 310.819 26.4235C311.544 26.5196 312.254 26.7099 312.981 26.7921C313.795 26.8841 314.653 26.8646 315.406 26.5046C316.196 26.1271 316.797 25.5146 317.375 24.8708C317.498 24.733 317.621 24.5946 317.747 24.4588C317.806 24.3958 317.865 24.3329 317.924 24.2712C317.954 24.2407 317.984 24.2102 318.014 24.1801C318.103 24.0912 318.132 24.0868 318.021 24.1685C318.161 24.065 318.284 23.9384 318.427 23.8374C318.501 23.7851 318.578 23.7389 318.655 23.691C318.772 23.6182 318.633 23.7416 318.594 23.7226C318.611 23.7309 318.713 23.6692 318.73 23.662C318.742 23.6572 318.986 23.58 318.987 23.5753C318.986 23.5861 318.746 23.6134 318.924 23.5894C318.966 23.5838 319.006 23.5763 319.048 23.5716C319.12 23.5635 319.249 23.5345 319.316 23.5595C319.175 23.5077 319.199 23.5478 319.276 23.5619C319.341 23.5739 319.407 23.5803 319.472 23.594C319.515 23.6031 319.558 23.6147 319.601 23.6249C319.772 23.665 319.581 23.6123 319.567 23.613C319.638 23.609 319.782 23.6986 319.846 23.7294C319.923 23.7658 320.059 23.813 320.117 23.8739C320.101 23.8577 319.949 23.7598 320.091 23.8582C320.139 23.8909 320.186 23.9233 320.233 23.9573C320.391 24.0726 320.542 24.1982 320.685 24.3313C320.755 24.3958 320.822 24.4621 320.889 24.5297C320.926 24.5676 320.963 24.606 321 24.6443C320.86 24.4992 321.024 24.6709 321.053 24.7032C321.401 25.087 321.737 25.4819 322.103 25.8488C322.839 26.5861 323.897 27.2984 324.978 26.8871C325.488 26.6933 325.828 26.2938 326.097 25.8379C326.188 25.6842 326.265 25.5233 326.342 25.3623C326.378 25.2853 326.415 25.208 326.453 25.1317C326.477 25.0842 326.501 25.0371 326.526 24.9904C326.543 24.9597 326.607 24.7974 326.557 24.9279C326.513 25.0436 326.554 24.9336 326.579 24.8983C326.61 24.8553 326.642 24.8137 326.677 24.7736C326.693 24.7546 326.758 24.6979 326.761 24.6812C326.757 24.7021 326.591 24.8187 326.724 24.718C326.79 24.6677 326.854 24.616 326.925 24.5713C326.917 24.5763 327.029 24.5046 327.032 24.5075C326.914 24.5685 326.887 24.5835 326.952 24.5524C326.98 24.5389 327.009 24.5264 327.038 24.5144C327.116 24.482 327.197 24.4591 327.276 24.431C327.427 24.3775 327.249 24.4371 327.219 24.4386C327.259 24.4366 327.305 24.422 327.345 24.4157C327.44 24.4009 327.536 24.3917 327.632 24.3874C327.675 24.3856 327.718 24.3874 327.76 24.385C327.829 24.386 327.803 24.3839 327.682 24.3791C327.714 24.3812 327.746 24.3839 327.779 24.3874C327.864 24.3961 327.949 24.4091 328.034 24.4261C328.086 24.4368 328.138 24.451 328.19 24.4626C328.3 24.487 328.226 24.4347 328.149 24.4482C328.205 24.4384 328.335 24.5212 328.386 24.5456C328.427 24.565 328.468 24.5857 328.508 24.6073C328.563 24.6372 328.736 24.6895 328.553 24.63C328.711 24.6816 328.872 24.8823 328.994 24.9909C329.166 25.143 328.913 24.8873 329.003 24.9974C329.034 25.0343 329.066 25.0696 329.096 25.1068C329.172 25.1999 329.244 25.2964 329.311 25.3961C329.365 25.4763 329.416 25.5584 329.464 25.6423C329.497 25.6988 329.596 25.8109 329.469 25.6472C329.494 25.6799 329.516 25.7439 329.532 25.7786C329.624 25.9771 329.702 26.182 329.767 26.391C329.88 26.7552 329.941 27.1338 330.107 27.4804C330.363 28.0174 330.755 28.449 331.356 28.587C331.965 28.7269 332.504 28.4503 333.012 28.1532C333.025 28.1458 333.23 28.0111 333.09 28.104C332.976 28.1796 333.091 28.1042 333.126 28.0878C333.214 28.0464 333.304 28.0089 333.396 27.976C333.477 27.9468 333.56 27.9231 333.642 27.8986C333.712 27.8779 333.78 27.8978 333.589 27.9074C333.65 27.9045 333.719 27.8827 333.78 27.8738C333.951 27.8487 334.124 27.8367 334.297 27.8372C334.335 27.8374 334.387 27.8331 334.426 27.84C334.208 27.8021 334.353 27.8383 334.414 27.8446C334.511 27.8544 334.608 27.8679 334.705 27.8851C334.801 27.9024 334.897 27.9235 334.991 27.9483C335.033 27.9592 335.075 27.9719 335.117 27.9834C335.249 28.0192 334.911 27.9013 335.109 27.9836C335.29 28.059 335.47 28.1305 335.643 28.2254C335.664 28.2369 335.741 28.2918 335.756 28.2901C335.74 28.2918 335.577 28.1685 335.72 28.2687C335.791 28.3182 335.862 28.3677 335.93 28.4211C336.006 28.4812 336.08 28.5442 336.151 28.6105C336.183 28.6399 336.212 28.6713 336.244 28.7005C336.327 28.7776 336.127 28.5567 336.234 28.6913C336.839 29.4479 337.52 30.1802 338.006 31.0213C337.898 30.8345 338.058 31.1386 338.081 31.1931C338.123 31.2911 338.161 31.3905 338.196 31.4914C338.235 31.6074 338.268 31.7247 338.299 31.8432C338.289 31.8059 338.268 31.6645 338.298 31.8465C338.312 31.9313 338.327 32.0159 338.337 32.1013C338.397 32.5803 338.409 33.0671 338.4 33.5494C338.399 33.6061 338.398 33.6631 338.396 33.7198C338.396 33.7072 338.385 33.9862 338.391 33.8558C338.396 33.7475 338.387 33.9254 338.386 33.9491C338.383 34.0058 338.379 34.0627 338.375 34.1194C338.356 34.3894 338.332 34.6592 338.304 34.9284C338.254 35.4164 338.194 35.9035 338.134 36.3904C338.005 37.4521 337.877 38.5136 337.748 39.5754C337.623 40.5987 337.528 41.6306 337.367 42.6488C337.332 42.8657 337.29 43.0815 337.232 43.2934C337.225 43.3202 337.173 43.4738 337.212 43.3651C337.259 43.2356 337.169 43.4712 337.17 43.4695C337.127 43.576 337.067 43.6754 337.024 43.7811C336.974 43.9056 337.152 43.6177 337.017 43.7966C336.987 43.8354 336.96 43.8751 336.93 43.9134C336.875 43.9828 336.808 44.0789 336.734 44.1292C336.915 44.0069 336.679 44.16 336.63 44.1931C336.603 44.2109 336.543 44.2582 336.508 44.2681C336.732 44.2061 336.527 44.2502 336.47 44.2704C336.443 44.28 336.37 44.3121 336.336 44.3114C336.549 44.316 336.417 44.2955 336.369 44.2946C336.34 44.294 336.118 44.2801 336.297 44.3051C336.446 44.326 336.33 44.3075 336.294 44.3016C336.234 44.2918 336.14 44.2567 336.081 44.26C336.094 44.2593 336.301 44.343 336.171 44.2875C336.134 44.272 336.097 44.2585 336.06 44.2423C335.994 44.2127 335.932 44.1774 335.868 44.143C335.738 44.0726 336.053 44.2717 335.862 44.1347C335.738 44.0459 335.621 43.9474 335.508 43.8452C335.058 43.4385 334.67 42.9547 334.165 42.6116C333.415 42.1013 332.496 41.8712 331.632 42.2666C330.653 42.7144 330.062 43.6009 329.666 44.5682C329.491 44.9956 329.338 45.4333 329.12 45.8419C329.096 45.8883 329.067 45.933 329.044 45.9799C328.982 46.1037 329.125 45.8679 329.047 45.9764C328.982 46.0675 328.919 46.1599 328.849 46.2478C328.787 46.3253 328.723 46.4005 328.655 46.4733C328.622 46.5097 328.587 46.5455 328.553 46.5808C328.527 46.6069 328.344 46.7613 328.512 46.6228C328.18 46.8964 327.845 47.1503 327.476 47.3722C327.302 47.4766 327.125 47.5792 326.944 47.6714C327.143 47.5699 326.88 47.7031 326.825 47.7305C326.713 47.7872 326.599 47.8428 326.486 47.8983C326.053 48.1096 325.731 48.5906 325.937 49.0838C326.114 49.506 326.658 49.8589 327.123 49.6318Z" fill="white"/>
<path d="M332.584 72.871C334.825 71.7786 337.094 70.6147 338.954 68.9295C339.9 68.0735 340.713 67.1282 341.372 66.0341C342.041 64.9221 342.493 63.7007 342.971 62.4993C343.78 60.4658 344.922 57.8736 347.294 57.3113C347.783 57.1955 348.104 57.2121 348.509 57.2829C348.94 57.3583 349.05 57.4 349.464 57.5988C349.896 57.8062 350.008 57.8852 350.384 58.1681C350.713 58.4157 351.024 58.6855 351.327 58.9647C352.61 60.1502 353.733 61.5143 355.231 62.4441C357.042 63.5673 359.214 63.5714 360.991 62.3469C363.168 60.8474 363.992 58.2533 364.362 55.7588C364.791 52.8704 365.08 49.9559 365.432 47.0573C365.794 44.0746 366.157 41.0922 366.519 38.1095C366.854 35.3419 367.177 32.5647 367.18 29.7729C367.182 28.3815 367.135 26.9573 366.86 25.5898C366.586 24.2248 366.104 22.9545 365.426 21.7397C364.756 20.5398 363.885 19.4995 363.013 18.445C362.15 17.4014 361.372 16.2655 360.457 15.2683C357.483 12.0286 352.349 10.7302 348.288 12.6166C347.734 12.874 347.223 13.2014 346.689 13.4961C346.276 13.7241 345.766 13.981 345.283 13.8468C345.009 13.7711 344.81 13.5841 344.593 13.2568C344.383 12.9394 344.21 12.4771 344.072 12.0397C343.739 10.9767 343.527 9.89443 343.096 8.86097C342.63 7.74455 342.024 6.66564 341.253 5.73067C339.774 3.9387 337.715 2.60554 335.359 2.41669C333.121 2.23709 330.779 2.92151 329.279 4.66377C328.566 5.49212 328.144 6.5204 327.666 7.49048C327.456 7.91639 327.256 8.3107 326.972 8.67675C326.717 9.00472 326.452 9.2514 326.108 9.38407C325.162 9.74993 324.129 9.16049 323.38 8.61171C322.349 7.85541 321.46 6.93153 320.609 5.98196C318.951 4.12976 317.336 2.21768 315.094 1.04934C313.022 -0.0304956 310.622 -0.179976 308.528 0.917784C306.633 1.91059 305.237 3.57987 303.828 5.14438C302.478 6.64181 301.035 8.15457 299.086 8.74956C297.334 9.28448 295.348 9.01748 293.497 8.68322C291.449 8.3133 289.416 7.8264 287.324 7.80146C285.248 7.77651 283.157 8.37039 281.559 9.73552C279.842 11.2023 278.815 13.2199 278.168 15.3514C277.494 17.5749 277.311 19.8947 277.269 22.2068C277.219 24.9999 277.401 27.7938 277.746 30.5649C278.441 36.151 279.739 41.6829 281.29 47.0893C282.866 52.5829 284.895 57.9854 287.885 62.8779C290.386 66.9729 293.623 70.6698 297.541 73.4645C301.368 76.1942 305.824 78.0592 310.534 78.4476C315.724 78.8757 320.874 77.6954 325.709 75.8773C328.052 74.9963 330.334 73.9647 332.584 72.871C333.033 72.653 333.318 72.1879 333.133 71.6855C332.975 71.2529 332.399 70.9168 331.948 71.1363C327.469 73.313 322.793 75.3175 317.868 76.2112C313.196 77.0592 308.426 76.7999 304.01 74.9777C299.928 73.2932 296.314 70.5419 293.391 67.2495C289.935 63.3572 287.426 58.7382 285.525 53.9151C283.5 48.7759 282.057 43.3832 280.896 37.9879C279.755 32.6794 278.993 27.2575 279.116 21.8168C279.203 17.9869 279.851 13.0713 283.276 10.7475C284.812 9.70596 286.666 9.52562 288.475 9.70337C290.462 9.8985 292.398 10.4162 294.371 10.6991C296.361 10.9844 298.461 11.0365 300.353 10.259C302.354 9.43674 303.873 7.8532 305.293 6.27521C306.552 4.87626 307.895 3.20994 309.574 2.44885C311.43 1.60719 313.431 2.05601 315.116 3.19941C317.142 4.57508 318.59 6.58083 320.276 8.32087C321.853 9.94802 324.239 12.0232 326.692 11.1378C328.789 10.3804 329.248 8.023 330.316 6.35502C331.35 4.73915 333.342 4.05419 335.212 4.25227C337.336 4.47733 339.07 5.76836 340.267 7.49141C340.897 8.39718 341.366 9.39295 341.713 10.4384C342.041 11.4279 342.199 12.4724 342.614 13.4333C343.034 14.4065 343.691 15.2818 344.741 15.6031C346.075 16.0113 347.26 15.2932 348.373 14.6438C350.06 13.6598 352.083 13.3991 354.017 13.7509C355.919 14.0968 357.772 15.032 359.073 16.476C359.977 17.4779 360.753 18.6089 361.615 19.6479C362.453 20.658 363.279 21.6642 363.922 22.8146C365.232 25.1583 365.376 27.8492 365.333 30.4764C365.288 33.1741 364.933 35.8572 364.608 38.5319C364.256 41.4342 363.904 44.3363 363.551 47.2386C363.211 50.0387 362.946 52.8606 362.51 55.6474C362.179 57.7637 361.449 60.2949 359.27 61.2036C359.046 61.2975 358.812 61.3772 358.572 61.4173C358.443 61.4389 358.311 61.4509 358.18 61.4573C358.129 61.4597 357.814 61.4544 357.944 61.4629C357.765 61.4512 357.586 61.4241 357.411 61.3871C357.31 61.3659 357.209 61.3408 357.11 61.3117C357.009 61.282 357.108 61.3104 357.125 61.3164C357.07 61.2973 357.014 61.2768 356.96 61.2556C356.203 60.9614 355.769 60.6307 355.134 60.0815C353.866 58.9858 352.809 57.6502 351.448 56.6602C349.85 55.497 347.866 54.9722 345.984 55.8152C343.626 56.8706 342.328 59.1572 341.403 61.4496C340.937 62.6044 340.515 63.7828 339.914 64.8768C339.37 65.8665 338.623 66.7708 337.777 67.5178C336.05 69.0428 334.007 70.1323 331.948 71.1361C331.499 71.3547 331.214 71.8189 331.399 72.3217C331.557 72.7539 332.133 73.0911 332.584 72.871Z" fill="white"/>
<path d="M338.046 96.1103C341.656 94.3501 345.304 92.4682 348.301 89.7519C349.763 88.4273 351.036 86.9491 352.056 85.2569C353.148 83.4431 353.885 81.4492 354.665 79.4891C356.058 75.9881 358.019 71.7375 362.048 70.7212C364.833 70.0185 367.261 71.7253 369.2 73.5173C371.252 75.4131 373.052 77.6239 375.445 79.1151C378.221 80.845 381.52 80.8985 384.259 79.0112C387.685 76.6511 388.942 72.5535 389.524 68.6332C390.224 63.9201 390.696 59.1645 391.27 54.4348C391.861 49.568 392.453 44.7013 393.043 39.8345C393.585 35.369 394.109 30.8874 394.115 26.3825C394.12 21.8819 393.584 17.5487 391.36 13.5658C390.266 11.6079 388.845 9.91041 387.422 8.18977C386.014 6.48705 384.746 4.6317 383.251 3.00621C378.561 -2.094 370.448 -4.07443 364.072 -1.11228C363.216 -0.714636 362.422 -0.210928 361.601 0.24972C360.795 0.701868 359.809 1.17471 358.863 0.921747C357.433 0.539444 356.838 -1.1398 356.443 -2.40054C355.9 -4.13504 355.554 -5.90114 354.85 -7.58723C354.109 -9.3633 353.142 -11.0695 351.915 -12.5564C349.594 -15.371 346.364 -17.4327 342.671 -17.7289C339.234 -18.0048 335.605 -16.9395 333.303 -14.2654C332.172 -12.9515 331.508 -11.3181 330.75 -9.77942C330.106 -8.47213 329.324 -6.94512 327.88 -6.38691C326.127 -5.70952 324.247 -6.72431 322.855 -7.74521C321.132 -9.00908 319.652 -10.5603 318.231 -12.1468C315.596 -15.0892 313.024 -18.1491 309.461 -20.0052C306.236 -21.6855 302.531 -21.9411 299.263 -20.2382C293.235 -17.0975 290.495 -9.4701 283.787 -7.4224C280.732 -6.48983 277.443 -6.94771 274.363 -7.50407C271.075 -8.09795 267.801 -8.89544 264.443 -8.93572C261.146 -8.97527 257.864 -8.0549 255.326 -5.88672C252.651 -3.60177 251.036 -0.415665 250.029 2.90496C248.944 6.48427 248.636 10.2173 248.569 13.94C248.488 18.4975 248.784 23.0564 249.347 27.578C250.475 36.6423 252.58 45.6161 255.096 54.3886C257.652 63.3004 260.934 72.0754 265.784 80.0129C269.843 86.6569 275.081 92.642 281.438 97.1765C287.604 101.575 294.783 104.557 302.37 105.183C310.731 105.873 319.04 103.944 326.827 101.016C330.649 99.5784 334.374 97.8949 338.046 96.1103C339.105 95.5955 338.479 93.8555 337.409 94.3756C330.049 97.9527 322.375 101.222 314.282 102.69C306.56 104.092 298.672 103.636 291.376 100.625C284.619 97.8369 278.656 93.2729 273.819 87.8249C268.148 81.4373 264.03 73.843 260.911 65.9285C257.586 57.4932 255.229 48.642 253.325 39.787C251.462 31.125 250.219 22.2781 250.419 13.4003C250.5 9.82356 250.858 6.19529 251.992 2.78264C253.02 -0.31274 254.697 -3.3174 257.45 -5.18476C262.977 -8.93332 270.026 -6.21987 275.997 -5.36343C279.144 -4.91202 282.46 -4.82481 285.453 -6.05487C288.618 -7.35533 291.02 -9.88455 293.265 -12.3792C295.386 -14.7353 297.542 -17.4582 300.499 -18.7991C303.767 -20.2812 307.24 -19.4281 310.114 -17.4768C313.422 -15.2316 315.783 -11.96 318.535 -9.11995C320.937 -6.64117 324.658 -3.25919 328.43 -4.62137C331.7 -5.80228 332.396 -9.64287 334.095 -12.2493C335.917 -15.0445 339.412 -16.225 342.637 -15.8833C346.245 -15.5012 349.226 -13.2887 351.258 -10.3628C352.313 -8.84426 353.108 -7.16815 353.689 -5.41555C354.225 -3.80096 354.483 -2.09676 355.16 -0.528748C355.77 0.885904 356.724 2.1956 358.257 2.66068C360.236 3.26102 362.025 2.13203 363.67 1.17249C366.579 -0.524319 370.029 -0.98311 373.322 -0.384064C376.576 0.207962 379.725 1.81773 381.944 4.29762C383.413 5.93844 384.684 7.77697 386.091 9.47322C387.459 11.1211 388.809 12.7628 389.856 14.6405C392.047 18.5703 392.338 23.0235 392.265 27.4335C392.191 31.8865 391.612 36.3139 391.076 40.7292C390.501 45.4648 389.926 50.2004 389.35 54.9361C388.796 59.5051 388.364 64.1095 387.652 68.6571C387.076 72.3362 385.756 76.5986 381.992 78.1683C379.261 79.3071 376.737 78.0267 374.669 76.2394C372.6 74.4515 370.875 72.272 368.656 70.6569C366.206 68.8744 363.192 68.0859 360.311 69.3759C356.616 71.0303 354.612 74.6851 353.166 78.267C352.406 80.1513 351.717 82.0739 350.736 83.8594C349.795 85.5708 348.517 87.1032 347.059 88.3983C344.212 90.9269 340.809 92.7172 337.409 94.3754C336.351 94.8917 336.976 96.6319 338.046 96.1103Z" fill="white"/>
<path d="M343.505 119.35C348.485 116.922 353.512 114.322 357.646 110.575C359.625 108.782 361.357 106.77 362.738 104.48C364.254 101.964 365.275 99.1981 366.357 96.4791C368.329 91.5223 371.117 85.5858 376.8 84.1312C380.795 83.1086 384.28 85.49 387.072 88.0697C389.893 90.676 392.37 93.7329 395.657 95.7862C399.399 98.123 403.824 98.2254 407.525 95.6757C412.2 92.4548 413.891 86.8535 414.685 81.5079C415.655 74.9703 416.31 68.3732 417.106 61.8124C417.926 55.0613 418.747 48.3105 419.566 41.5595C420.313 35.3959 421.041 29.2101 421.048 22.9922C421.055 16.8199 420.345 10.8572 417.292 5.39219C415.775 2.67634 413.803 0.321552 411.829 -2.06521C409.876 -4.42722 408.118 -7.00097 406.044 -9.25562C399.64 -16.218 388.543 -18.8779 379.854 -14.8409C377.646 -13.8156 375.047 -11.3425 372.442 -12.0031C370.312 -12.5435 369.401 -14.9632 368.813 -16.8405C368.059 -19.2465 367.579 -21.6965 366.603 -24.0352C365.587 -26.4711 364.259 -28.8045 362.577 -30.8435C359.412 -34.6806 355.012 -37.4709 349.981 -37.8746C345.344 -38.2466 340.43 -36.8009 337.326 -33.1946C335.776 -31.395 334.871 -29.1565 333.832 -27.0491C332.894 -25.1437 331.75 -22.9698 329.65 -22.1579C327.093 -21.1691 324.365 -22.6089 322.33 -24.1019C319.915 -25.8732 317.844 -28.0519 315.852 -30.2755C312.24 -34.3082 308.711 -38.5158 303.828 -41.0598C299.448 -43.3412 294.439 -43.7014 289.996 -41.3941C281.604 -37.0363 277.838 -26.4491 268.486 -23.5943C264.184 -22.2811 259.566 -22.9077 255.228 -23.6913C250.7 -24.5093 246.185 -25.6174 241.56 -25.6729C237.043 -25.727 232.57 -24.4801 229.092 -21.5089C225.459 -18.4056 223.256 -14.0508 221.888 -9.54147C220.392 -4.60626 219.96 0.539951 219.868 5.67305C219.755 11.995 220.166 18.3188 220.946 24.5911C222.507 37.1334 225.419 49.5491 228.9 61.6876C232.437 74.0176 236.972 86.1652 243.681 97.1474C249.298 106.341 256.536 114.614 265.332 120.888C273.838 126.956 283.74 131.055 294.204 131.918C305.737 132.869 317.204 130.192 327.943 126.154C333.245 124.161 338.412 121.826 343.505 119.35C344.564 118.835 343.939 117.095 342.868 117.615C332.628 122.593 321.955 127.126 310.695 129.17C299.922 131.125 288.916 130.472 278.74 126.273C269.309 122.381 260.996 116.004 254.246 108.401C246.359 99.5179 240.633 88.9483 236.295 77.9421C231.672 66.2108 228.4 53.9011 225.751 41.5863C223.167 29.571 221.443 17.2988 221.721 4.98402C221.926 -4.07928 223.458 -15.5785 231.622 -21.1168C239.395 -26.3887 249.219 -22.6309 257.621 -21.4258C261.926 -20.8082 266.457 -20.6857 270.552 -22.3687C274.88 -24.1472 278.165 -27.6221 281.236 -31.0334C284.225 -34.3544 287.255 -38.1575 291.422 -40.047C296.074 -42.1566 301.025 -40.9266 305.111 -38.1527C309.7 -35.0379 312.974 -30.5004 316.792 -26.5604C320.018 -23.232 325.078 -18.5423 330.168 -20.3801C334.601 -21.981 335.56 -27.3226 337.872 -30.8533C340.48 -34.8348 345.462 -36.5058 350.061 -36.0185C355.152 -35.4792 359.38 -32.3455 362.247 -28.2167C363.728 -26.0857 364.849 -23.7292 365.665 -21.2693C366.408 -19.0294 366.765 -16.6655 367.704 -14.4904C368.504 -12.6367 369.756 -10.8865 371.772 -10.2811C374.398 -9.4927 376.786 -11.0271 378.966 -12.2983C383.085 -14.7017 387.958 -15.3677 392.625 -14.5186C397.231 -13.6807 401.68 -11.3952 404.813 -7.88015C406.847 -5.59945 408.613 -3.05432 410.566 -0.701004C412.464 1.58487 414.336 3.86187 415.789 6.46686C418.863 11.981 419.298 18.1998 419.196 24.3913C419.093 30.5996 418.289 36.7714 417.541 42.927C416.744 49.496 415.946 56.065 415.148 62.6341C414.379 68.9719 413.78 75.3591 412.792 81.667C411.971 86.908 410.06 92.9027 404.712 95.1332C400.807 96.7616 397.166 94.9574 394.203 92.3977C388.749 87.6848 382.997 79.1938 374.638 82.9368C369.606 85.1898 366.893 90.2135 364.928 95.0846C363.873 97.6986 362.917 100.366 361.557 102.842C360.22 105.274 358.41 107.438 356.34 109.279C352.37 112.809 347.613 115.302 342.869 117.615C341.81 118.131 342.435 119.871 343.505 119.35Z" fill="white"/>
<path d="M348.965 142.59C355.315 139.493 361.721 136.175 366.992 131.398C369.487 129.136 371.68 126.592 373.42 123.703C375.36 120.485 376.666 116.947 378.05 113.47C380.6 107.059 384.216 99.4315 391.552 97.5416C396.758 96.2007 401.3 99.2547 404.945 102.623C408.535 105.94 411.689 109.841 415.871 112.458C420.577 115.403 426.131 115.552 430.792 112.34C436.716 108.259 438.841 101.153 439.846 94.3825C441.087 86.0202 441.925 77.582 442.944 69.19C443.992 60.5548 445.042 51.9198 446.089 43.2847C447.043 35.423 447.973 27.533 447.982 19.6022C447.991 11.7582 447.106 4.16592 443.225 -2.78133C441.284 -6.25513 438.763 -9.26718 436.238 -12.3203C433.74 -15.3412 431.491 -18.6348 428.838 -21.5173C420.716 -30.3393 406.643 -33.6827 395.636 -28.5693C392.741 -27.2242 389.439 -24.0774 386.022 -24.9276C383.192 -25.6316 381.965 -28.7835 381.183 -31.2802C380.219 -34.3577 379.605 -37.4913 378.357 -40.4828C377.065 -43.5784 375.376 -46.5391 373.239 -49.13C369.23 -53.9898 363.661 -57.5085 357.292 -58.0196C351.456 -58.4879 345.256 -56.6615 341.349 -52.123C339.381 -49.8379 338.234 -46.9942 336.916 -44.3182C335.683 -41.8149 334.177 -38.9937 331.421 -37.9281C328.059 -36.6284 324.483 -38.493 321.804 -40.4579C318.697 -42.7367 316.035 -45.543 313.473 -48.4033C308.885 -53.5264 304.398 -58.8814 298.194 -62.1136C292.663 -64.995 286.346 -65.4626 280.73 -62.5491C269.978 -56.9701 265.181 -43.4265 253.186 -39.7652C247.637 -38.0713 241.691 -38.8664 236.094 -39.8773C230.325 -40.9195 224.57 -42.3382 218.677 -42.4088C212.94 -42.4775 207.276 -40.9043 202.858 -37.1299C198.267 -33.2082 195.476 -27.6846 193.748 -21.9867C191.84 -15.6956 191.284 -9.13599 191.167 -2.59249C191.023 5.4939 191.548 13.5827 192.546 21.6055C194.54 37.6259 198.258 53.4834 202.705 68.9881C207.223 84.7362 213.009 100.257 221.579 114.284C228.754 126.026 237.993 136.587 249.227 144.601C260.073 152.338 272.698 157.555 286.038 158.655C300.743 159.868 315.369 156.441 329.059 151.294C335.842 148.743 342.451 145.756 348.965 142.59C350.025 142.075 349.399 140.335 348.329 140.855C335.207 147.233 321.535 153.031 307.108 155.649C293.285 158.158 279.16 157.309 266.105 151.921C253.999 146.925 243.337 138.736 234.673 128.977C224.572 117.599 217.236 104.054 211.68 89.956C205.758 74.9286 201.571 59.1603 198.179 43.3857C194.873 28.0169 192.667 12.3197 193.023 -3.4323C193.288 -15.1181 195.271 -29.9095 205.796 -37.0488C215.813 -43.8439 228.413 -39.0416 239.245 -37.488C244.709 -36.7043 250.455 -36.5467 255.651 -38.6822C261.143 -40.9389 265.312 -45.3595 269.207 -49.6873C273.064 -53.9732 276.97 -58.8563 282.346 -61.2943C288.382 -64.0315 294.811 -62.4247 300.109 -58.828C305.979 -54.8437 310.166 -49.04 315.05 -44.0003C319.098 -39.823 325.5 -33.8251 331.905 -36.1384C337.502 -38.1591 338.726 -45.0025 341.651 -49.4565C345.045 -54.6244 351.513 -56.7857 357.485 -56.1532C364.061 -55.4566 369.534 -51.4019 373.237 -46.0701C375.143 -43.3264 376.59 -40.2896 377.641 -37.1225C378.591 -34.2575 379.048 -31.234 380.249 -28.4516C381.239 -26.1571 382.788 -23.9708 385.287 -23.2228C388.557 -22.2437 391.55 -24.1874 394.261 -25.7689C399.592 -28.8787 405.887 -29.7519 411.929 -28.6527C417.89 -27.568 423.629 -24.6055 427.683 -20.0576C430.284 -17.1402 432.543 -13.8849 435.042 -10.8747C437.468 -7.95102 439.864 -5.03837 441.721 -1.70647C445.678 5.39136 446.258 13.3769 446.126 21.3494C445.994 29.3131 444.966 37.229 444.007 45.1252C442.987 53.5276 441.967 61.9301 440.946 70.3325C439.962 78.4392 439.196 86.6091 437.932 94.6774C436.867 101.48 434.364 109.208 427.432 112.099C422.353 114.217 417.594 111.889 413.737 108.556C406.842 102.599 399.538 91.7637 388.964 96.498C382.595 99.3497 379.175 105.743 376.689 111.902C375.34 115.246 374.118 118.657 372.377 121.825C370.645 124.978 368.304 127.773 365.62 130.16C360.526 134.69 354.416 137.886 348.328 140.855C347.27 141.371 347.896 143.111 348.965 142.59Z" fill="white"/>
<path d="M354.426 165.828C362.146 162.064 369.93 158.028 376.339 152.219C379.351 149.49 382.003 146.412 384.104 142.926C386.467 139.005 388.058 134.695 389.744 130.459C392.872 122.595 397.316 113.275 406.306 110.951C412.722 109.292 418.321 113.018 422.819 117.174C427.179 121.203 431.011 125.943 436.085 129.128C441.752 132.684 448.442 132.875 454.06 129.004C461.232 124.062 463.792 115.452 465.008 107.256C466.52 97.0689 467.541 86.7896 468.782 76.5664C470.059 66.0471 471.338 55.5279 472.614 45.0085C473.774 35.4487 474.907 25.8546 474.917 16.2107C474.928 6.69523 473.868 -2.52679 469.159 -10.9561C466.795 -15.1879 463.724 -18.857 460.648 -22.5764C457.604 -26.2564 454.866 -30.2701 451.633 -33.7803C441.792 -44.4615 424.744 -48.4889 411.42 -42.2991C407.84 -40.6354 403.831 -36.8118 399.604 -37.8536C396.075 -38.7231 394.532 -42.6045 393.555 -45.7214C392.38 -49.4703 391.632 -53.2878 390.112 -56.9321C388.545 -60.6874 386.495 -64.2752 383.902 -67.4184C379.05 -73.3008 372.312 -77.5481 364.604 -78.1665C357.569 -78.731 350.083 -76.5239 345.374 -71.0534C342.988 -68.2824 341.599 -64.8337 340.001 -61.5892C338.473 -58.4879 336.606 -55.0195 333.193 -53.7004C329.027 -52.0897 324.603 -54.3793 321.281 -56.8159C317.482 -59.6022 314.229 -63.0359 311.096 -66.5333C305.531 -72.7466 300.087 -79.2495 292.563 -83.1695C285.88 -86.6513 278.254 -87.2263 271.466 -83.7065C258.353 -76.9067 252.525 -60.4065 237.888 -55.9386C231.092 -53.8641 223.817 -54.8277 216.961 -56.0661C209.952 -57.3322 202.956 -59.0615 195.797 -59.1474C188.839 -59.2308 181.985 -57.3312 176.626 -52.7536C171.078 -48.0135 167.698 -41.3213 165.61 -34.4346C163.291 -26.7876 162.611 -18.8149 162.468 -10.8608C162.292 -1.00996 162.932 8.84382 164.148 18.617C166.574 38.1154 171.099 57.4147 176.512 76.2857C182.01 95.4521 189.049 114.345 199.479 131.417C208.211 145.708 219.451 158.558 233.124 168.312C246.309 177.717 261.657 184.051 277.874 185.389C295.75 186.863 313.535 182.688 330.178 176.431C338.44 173.324 346.49 169.686 354.426 165.828C355.486 165.313 354.86 163.573 353.79 164.094C337.787 171.872 321.117 178.934 303.522 182.128C286.649 185.19 269.406 184.144 253.47 177.568C238.689 171.468 225.678 161.466 215.101 149.551C202.784 135.678 193.84 119.158 187.066 101.969C179.844 83.6452 174.743 64.4184 170.606 45.1841C166.58 26.4617 163.893 7.33955 164.326 -11.8495C164.65 -26.1579 167.084 -44.2415 179.969 -52.9818C192.232 -61.3001 207.608 -55.4534 220.87 -53.5513C227.492 -52.6015 234.453 -52.4088 240.751 -54.9968C247.406 -57.7317 252.458 -63.098 257.178 -68.3423C261.904 -73.5931 266.686 -79.5564 273.271 -82.5428C280.691 -85.9076 288.597 -83.924 295.108 -79.5047C302.258 -74.6509 307.359 -67.581 313.309 -61.4416C318.179 -56.4159 325.922 -49.1098 333.644 -51.8979C340.403 -54.3382 341.893 -62.6839 345.43 -68.0612C349.609 -74.4157 357.564 -77.0673 364.91 -76.2892C372.969 -75.4355 379.689 -70.4595 384.228 -63.9246C386.56 -60.5682 388.332 -56.8512 389.618 -52.9768C390.776 -49.4867 391.332 -45.8034 392.795 -42.414C393.976 -39.6786 395.821 -37.0564 398.803 -36.1654C402.718 -34.9956 406.316 -37.3487 409.558 -39.2403C416.1 -43.0567 423.817 -44.1373 431.234 -42.7878C438.55 -41.4567 445.58 -37.8172 450.554 -32.2362C453.722 -28.6818 456.475 -24.7167 459.518 -21.0496C462.474 -17.4878 465.393 -13.9395 467.656 -9.88073C472.496 -1.19936 473.22 8.55316 473.058 18.3066C472.897 28.0255 471.645 37.6858 470.475 47.3225C469.232 57.5584 467.989 67.7941 466.746 78.03C465.547 87.9056 464.613 97.8581 463.074 107.687C461.764 116.051 458.669 125.512 450.154 129.063C443.901 131.671 438.023 128.819 433.273 124.714C424.938 117.513 416.08 104.333 403.292 110.059C395.587 113.509 391.458 121.271 388.453 128.72C386.809 132.793 385.32 136.949 383.2 140.808C381.071 144.681 378.2 148.108 374.903 151.041C368.684 156.571 361.222 160.471 353.79 164.094C352.731 164.61 353.357 166.35 354.426 165.828Z" fill="white"/>
<path d="M359.887 189.068C368.977 184.636 378.139 179.881 385.685 173.042C389.214 169.844 392.326 166.233 394.788 162.149C397.573 157.526 399.45 152.444 401.438 147.449C405.144 138.133 410.416 127.118 421.06 124.361C428.686 122.385 435.341 126.782 440.693 131.727C445.822 136.466 450.332 142.049 456.299 145.799C462.929 149.965 470.75 150.2 477.328 145.668C485.749 139.866 488.743 129.752 490.171 120.13C491.953 108.119 493.157 95.9984 494.62 83.9442C496.126 71.5406 497.634 59.1373 499.139 46.7338C500.504 35.4761 501.84 24.1775 501.853 12.8206C501.865 1.63344 500.63 -9.21815 495.093 -19.1298C492.305 -24.1195 488.684 -28.4458 485.057 -32.8313C481.469 -37.1703 478.241 -41.9044 474.427 -46.0421C462.869 -58.5824 442.845 -63.2942 427.204 -56.0277C422.938 -54.0459 418.221 -49.5448 413.184 -50.7783C408.957 -51.8135 407.097 -56.4246 405.926 -60.1611C404.541 -64.5816 403.659 -69.0829 401.866 -73.3799C400.024 -77.7948 397.613 -82.0099 394.565 -85.7051C388.869 -92.6102 380.961 -97.5857 371.916 -98.3117C363.681 -98.9724 354.909 -96.3846 349.397 -89.9819C346.594 -86.7254 344.963 -82.6716 343.085 -78.8583C341.262 -75.1593 339.033 -71.0432 334.965 -69.4706C329.994 -67.5487 324.722 -70.2633 320.756 -73.1718C316.265 -76.4657 312.421 -80.5267 308.718 -84.6611C302.177 -91.9647 295.775 -99.6151 286.93 -104.223C279.095 -108.305 270.161 -108.987 262.201 -104.861C246.726 -96.8412 239.868 -77.384 222.589 -72.1095C214.546 -69.6544 205.942 -70.7865 197.827 -72.2522C189.578 -73.7424 181.341 -75.7823 172.914 -75.8832C164.737 -75.9812 156.692 -73.7552 150.393 -68.3745C143.886 -62.816 139.918 -54.955 137.47 -46.8797C134.74 -37.8769 133.935 -28.4909 133.768 -19.1264C133.56 -7.51136 134.315 4.10741 135.749 15.6314C138.607 38.6078 143.939 61.3489 150.318 83.5861C156.796 106.171 165.087 128.436 177.378 148.553C187.667 165.393 200.907 180.531 217.02 192.025C232.544 203.099 250.615 210.551 269.709 212.125C290.757 213.862 311.7 208.938 331.295 201.57C341.037 197.907 350.529 193.616 359.887 189.068C360.946 188.553 360.321 186.813 359.251 187.333C340.366 196.512 320.698 204.839 299.936 208.607C280.013 212.223 259.651 210.98 240.836 203.216C223.38 196.012 208.02 184.197 195.528 170.127C180.996 153.758 170.444 134.263 162.451 113.982C153.931 92.3628 147.915 69.6775 143.034 46.9832C138.286 24.9076 135.118 2.35998 135.629 -20.266C136.012 -37.1971 138.897 -58.5726 154.143 -68.914C168.651 -78.7554 186.802 -71.8645 202.495 -69.6138C210.275 -68.4981 218.451 -68.2701 225.851 -71.3108C233.67 -74.5238 239.605 -80.8358 245.15 -86.9966C250.744 -93.2122 256.401 -100.256 264.195 -103.791C272.999 -107.783 282.383 -105.423 290.106 -100.181C298.538 -94.4576 304.551 -86.1217 311.567 -78.8824C317.259 -73.0083 326.345 -64.3936 335.382 -67.657C343.307 -70.5184 345.052 -80.3661 349.208 -86.6655C354.182 -94.2037 363.609 -97.349 372.334 -96.4247C381.878 -95.4138 389.844 -89.5166 395.218 -81.7789C397.975 -77.8097 400.073 -73.4126 401.594 -68.8309C402.96 -64.7157 403.616 -60.3725 405.34 -56.3762C406.711 -53.2 408.854 -50.1416 412.319 -49.108C416.879 -47.7476 421.08 -50.51 424.855 -52.7118C432.608 -57.2348 441.747 -58.5225 450.538 -56.9231C459.21 -55.3453 467.529 -51.0287 473.424 -44.4148C477.16 -40.2237 480.405 -35.5485 483.994 -31.2245C487.48 -27.0247 490.921 -22.841 493.589 -18.0551C499.312 -7.79018 500.181 3.72936 499.99 15.2635C499.8 26.7378 498.323 38.1422 496.941 49.5193C495.476 61.5885 494.01 73.6578 492.545 85.7271C491.131 97.3715 490.03 109.107 488.215 120.696C486.661 130.622 482.974 141.815 472.875 146.027C465.448 149.124 458.453 145.749 452.808 140.872C443.034 132.426 432.621 116.902 417.62 123.619C408.578 127.667 403.74 136.799 400.215 145.537C398.277 150.339 396.522 155.239 394.021 159.789C391.497 164.384 388.095 168.442 384.184 171.92C376.842 178.451 368.026 183.053 359.251 187.333C358.192 187.849 358.817 189.589 359.887 189.068Z" fill="white"/>
<path d="M365.347 212.308C375.807 207.208 386.348 201.735 395.031 193.865C399.076 190.199 402.649 186.056 405.471 181.373C408.679 176.048 410.841 170.194 413.131 164.44C417.414 153.672 423.515 140.963 435.812 137.772C444.649 135.479 452.361 140.547 458.565 146.28C464.465 151.731 469.651 158.156 476.512 162.471C484.105 167.246 493.058 167.526 500.595 162.333C510.265 155.671 513.692 144.053 515.332 133.006C517.385 119.17 518.771 105.208 520.457 91.3227C522.192 77.035 523.929 62.7477 525.662 48.4599C527.234 35.504 528.771 22.5013 528.786 9.43146C528.801 -3.42717 527.39 -15.9087 521.025 -27.3022C517.815 -33.0499 513.643 -38.0335 509.465 -43.0851C505.332 -48.0826 501.617 -53.54 497.221 -58.3028C483.935 -72.6967 460.951 -78.1014 442.986 -69.7549C438.036 -67.4551 432.61 -62.2766 426.764 -63.7018C421.839 -64.9025 419.661 -70.2433 418.296 -74.5997C416.701 -79.6916 415.685 -84.8767 413.619 -89.8265C411.502 -94.901 408.73 -99.7432 405.227 -103.991C398.687 -111.918 389.61 -117.623 379.226 -118.456C369.792 -119.213 359.735 -116.244 353.42 -108.909C350.199 -105.167 348.327 -100.508 346.168 -96.1266C344.051 -91.8298 341.46 -87.0663 336.735 -85.2399C330.96 -83.0071 324.839 -86.1464 320.23 -89.5269C315.048 -93.3282 310.612 -98.0169 306.339 -102.788C298.821 -111.182 291.462 -119.98 281.296 -125.276C272.309 -129.958 262.068 -130.748 252.935 -126.015C235.099 -116.775 227.21 -94.3605 207.289 -88.2795C197.999 -85.4437 188.066 -86.7444 178.693 -88.4375C169.203 -90.1517 159.725 -92.5024 150.032 -92.6184C140.634 -92.731 131.398 -90.1786 124.159 -83.9947C116.695 -77.6179 112.139 -68.5882 109.329 -59.3242C106.188 -48.9656 105.26 -38.1662 105.067 -27.3913C104.827 -14.0117 105.697 -0.627975 107.349 12.6466C110.64 39.1011 116.779 65.284 124.123 90.8872C131.582 116.89 141.125 142.528 155.276 165.689C167.122 185.079 182.363 202.505 200.915 215.739C218.779 228.481 239.573 237.05 261.543 238.863C285.763 240.861 309.865 235.188 332.411 226.71C343.634 222.49 354.568 217.547 365.347 212.308C366.407 211.793 365.781 210.053 364.711 210.574C342.945 221.153 320.278 230.744 296.349 235.087C273.376 239.256 249.896 237.818 228.201 228.865C208.07 220.557 190.361 206.929 175.956 190.704C159.208 171.84 147.048 149.369 137.836 125.997C128.017 101.081 121.086 74.9375 115.461 48.7834C109.992 23.3542 106.343 -2.6184 106.932 -28.6814C107.374 -48.235 110.71 -72.9027 128.316 -84.8452C145.07 -96.2098 165.996 -88.2745 184.12 -85.6753C193.057 -84.3935 202.449 -84.1303 210.95 -87.6235C219.932 -91.3146 226.751 -98.5725 233.121 -105.65C239.583 -112.83 246.116 -120.954 255.119 -125.037C265.307 -129.657 276.169 -126.92 285.104 -120.855C294.816 -114.263 301.743 -104.661 309.825 -96.3216C316.339 -89.5994 326.767 -79.6763 337.12 -83.4145C346.206 -86.6952 348.219 -98.0457 352.987 -105.268C358.746 -113.993 369.66 -117.629 379.759 -116.559C390.786 -115.391 399.998 -108.572 406.208 -99.6316C409.391 -95.0497 411.815 -89.9724 413.57 -84.6834C415.143 -79.9431 415.899 -74.9403 417.886 -70.3367C419.447 -66.7199 421.886 -63.2252 425.834 -62.0488C431.039 -60.4977 435.845 -63.6698 440.151 -66.1815C449.115 -71.4108 459.676 -72.9059 469.842 -71.0564C479.87 -69.232 489.48 -64.2385 496.295 -56.5915C500.597 -51.7635 504.336 -46.3784 508.47 -41.3975C512.485 -36.5597 516.449 -31.7405 519.522 -26.2277C526.128 -14.3794 527.142 -1.09251 526.921 12.2223C526.702 25.4518 525.001 38.6007 523.408 51.7182C521.72 65.6208 520.032 79.5235 518.343 93.4261C516.715 106.839 515.447 120.357 513.356 133.707C511.557 145.194 507.278 158.121 495.595 162.993C486.995 166.58 478.881 162.681 472.342 157.031C461.129 147.342 449.162 129.473 431.947 137.181C421.568 141.828 416.023 152.329 411.978 162.355C409.746 167.888 407.723 173.532 404.843 178.773C401.922 184.089 397.989 188.779 393.465 192.802C384.999 200.334 374.83 205.639 364.711 210.574C363.652 211.09 364.278 212.83 365.347 212.308Z" fill="white"/>
<path d="M369.354 229.361C380.82 223.771 392.372 217.771 401.89 209.145C406.314 205.135 410.223 200.6 413.31 195.478C416.829 189.638 419.201 183.218 421.711 176.906C426.405 165.109 433.132 151.067 446.638 147.611C456.383 145.119 464.83 150.628 471.681 156.958C478.145 162.931 483.829 169.974 491.345 174.703C499.644 179.926 509.428 180.239 517.669 174.561C528.255 167.266 532.001 154.545 533.796 142.452C536.048 127.277 537.568 111.964 539.417 96.7352C541.32 81.065 543.225 65.3948 545.126 49.7242C546.849 35.5223 548.535 21.269 548.552 6.94209C548.568 -7.14308 547.028 -20.8206 540.056 -33.3018C536.535 -39.6056 531.959 -45.0717 527.377 -50.612C522.844 -56.0929 518.77 -62.0795 513.948 -67.3022C499.399 -83.0594 474.235 -88.9678 454.569 -79.8306C449.117 -77.2977 443.169 -71.6217 436.73 -73.1875C431.293 -74.5096 428.882 -80.3862 427.375 -85.1975C425.625 -90.782 424.51 -96.4688 422.245 -101.898C419.926 -107.456 416.89 -112.759 413.052 -117.411C405.893 -126.09 395.957 -132.328 384.592 -133.24C374.278 -134.068 363.277 -130.82 356.373 -122.801C352.845 -118.703 350.796 -113.6 348.431 -108.801C346.098 -104.065 343.241 -98.8266 338.036 -96.8144C331.67 -94.3533 324.927 -97.8046 319.846 -101.531C314.155 -105.705 309.286 -110.854 304.595 -116.093C296.36 -125.287 288.298 -134.927 277.164 -140.728C267.331 -145.85 256.13 -146.719 246.136 -141.542C226.568 -131.405 217.923 -106.821 196.063 -100.148C185.858 -97.0333 174.949 -98.4578 164.653 -100.318C154.252 -102.196 143.864 -104.775 133.241 -104.902C122.948 -105.026 112.839 -102.234 104.91 -95.4603C96.7424 -88.483 91.7543 -78.5956 88.6808 -68.4594C85.238 -57.1058 84.218 -45.2694 84.0067 -33.4594C83.7439 -18.785 84.6981 -4.10608 86.5096 10.453C90.1187 39.4599 96.849 68.1685 104.902 96.242C113.08 124.753 123.542 152.866 139.058 178.261C152.047 199.522 168.757 218.627 189.098 233.137C208.679 247.104 231.471 256.493 255.552 258.48C282.099 260.669 308.519 254.448 333.232 245.156C345.54 240.528 357.532 235.107 369.354 229.361C370.414 228.846 369.788 227.106 368.718 227.626C344.838 239.233 319.971 249.753 293.717 254.517C268.505 259.093 242.738 257.51 218.929 247.685C196.836 238.567 177.402 223.609 161.593 205.802C143.22 185.107 129.879 160.453 119.774 134.812C109.001 107.478 101.399 78.7957 95.2281 50.1028C89.2297 22.2128 85.2269 -6.27315 85.8731 -34.8585C86.3587 -56.3366 90.0252 -83.4203 109.363 -96.5376C127.765 -109.02 150.729 -100.318 170.636 -97.4631C180.423 -96.0594 190.706 -95.7704 200.016 -99.5958C209.852 -103.638 217.319 -111.59 224.294 -119.34C231.393 -127.228 238.568 -136.145 248.459 -140.63C259.662 -145.711 271.609 -142.697 281.433 -136.029C292.086 -128.798 299.683 -118.267 308.546 -109.121C315.664 -101.776 327.077 -90.8926 338.395 -94.9795C348.334 -98.5681 350.543 -111.021 355.759 -118.921C362.095 -128.517 374.1 -132.512 385.207 -131.335C397.323 -130.052 407.449 -122.558 414.273 -112.734C417.768 -107.703 420.431 -102.126 422.358 -96.3181C424.083 -91.119 424.912 -85.6321 427.091 -80.583C428.792 -76.6427 431.449 -72.8279 435.752 -71.5469C441.43 -69.8562 446.68 -73.3285 451.375 -76.0676C461.228 -81.8155 472.833 -83.4626 484.007 -81.4297C495.03 -79.4243 505.587 -73.934 513.077 -65.5291C517.796 -60.2336 521.897 -54.3277 526.431 -48.8648C530.834 -43.5587 535.181 -38.2732 538.552 -32.2269C545.806 -19.2166 546.926 -4.63289 546.684 9.98869C546.443 24.5062 544.577 38.9351 542.829 53.33C540.978 68.5779 539.126 83.8259 537.275 99.0741C535.488 113.785 534.098 128.611 531.805 143.253C529.826 155.886 525.113 170.085 512.268 175.442C502.806 179.388 493.872 175.104 486.677 168.888C474.407 158.285 461.3 138.696 442.46 147.131C431.1 152.217 425.035 163.724 420.609 174.696C418.16 180.763 415.942 186.954 412.783 192.702C409.572 198.547 405.25 203.7 400.276 208.124C390.984 216.39 379.824 222.211 368.718 227.626C367.66 228.142 368.285 229.883 369.354 229.361Z" fill="white"/>
<path d="M373.361 246.415C385.832 240.334 398.395 233.807 408.748 224.425C413.551 220.071 417.798 215.145 421.149 209.585C424.979 203.23 427.56 196.243 430.292 189.374C435.408 176.515 442.745 161.22 457.464 157.452C468.099 154.73 477.317 160.727 484.797 167.637C491.826 174.132 498.006 181.792 506.178 186.937C515.184 192.608 525.799 192.953 534.743 186.79C546.246 178.864 550.31 165.039 552.26 151.9C554.711 135.386 556.365 118.722 558.377 102.149C560.448 85.0963 562.521 68.0436 564.59 50.9904C566.464 35.5424 568.299 20.0384 568.316 4.45448C568.334 -10.8573 566.666 -25.7309 559.086 -39.2996C555.254 -46.1596 550.275 -52.108 545.289 -58.1372C540.356 -64.1016 535.923 -70.6172 530.674 -76.3001C514.863 -93.4206 487.519 -99.8325 466.15 -89.9048C460.196 -87.1385 453.728 -80.9653 446.695 -82.6719C440.746 -84.1156 438.102 -90.5277 436.452 -95.7936C434.548 -101.871 433.335 -108.06 430.871 -113.967C428.35 -120.01 425.048 -125.773 420.876 -130.831C413.098 -140.259 402.304 -147.032 389.957 -148.023C378.763 -148.922 366.818 -145.395 359.326 -136.692C355.49 -132.237 353.264 -126.69 350.694 -121.473C348.145 -116.299 345.022 -110.585 339.336 -108.387C332.379 -105.698 325.014 -109.461 319.461 -113.534C313.262 -118.08 307.959 -123.689 302.849 -129.395C293.898 -139.39 285.133 -149.872 273.03 -156.177C262.352 -161.741 250.191 -162.688 239.336 -157.066C218.036 -146.034 208.634 -119.28 184.835 -112.015C173.716 -108.621 161.831 -110.169 150.611 -112.195C139.301 -114.238 128.002 -117.045 116.449 -117.183C105.26 -117.318 94.2775 -114.286 85.6588 -106.923C76.7882 -99.3456 71.3687 -88.6006 68.0305 -77.5922C64.286 -65.2437 63.1748 -52.3701 62.9449 -39.5252C62.6591 -23.556 63.6975 -7.58188 65.6687 8.26181C69.5952 39.821 76.9176 71.0553 85.6789 101.599C94.5769 132.619 105.958 163.206 122.839 190.836C136.972 213.968 155.149 234.752 177.28 250.538C198.577 265.73 223.368 275.939 249.56 278.1C278.434 280.481 307.172 273.71 334.051 263.604C347.445 258.567 360.496 252.668 373.361 246.415C374.42 245.9 373.795 244.16 372.725 244.68C346.73 257.315 319.663 268.762 291.085 273.949C263.635 278.93 235.579 277.203 209.657 266.506C185.601 256.579 164.443 240.29 147.23 220.901C127.231 198.375 112.71 171.538 101.71 143.628C89.9841 113.875 81.7112 82.655 74.9942 51.4231C68.4666 21.0722 64.1105 -9.92726 64.8137 -41.0346C65.3428 -64.4372 69.3404 -93.9366 90.4105 -108.229C110.46 -121.829 135.461 -112.361 157.151 -109.25C167.788 -107.725 178.963 -107.41 189.081 -111.567C199.771 -115.96 207.886 -124.606 215.466 -133.029C223.203 -141.625 231.021 -151.335 241.799 -156.223C254.017 -161.764 267.049 -158.473 277.762 -151.201C289.355 -143.332 297.622 -131.872 307.267 -121.919C314.988 -113.952 327.387 -102.108 339.671 -106.544C350.461 -110.44 352.867 -123.996 358.531 -132.573C365.444 -143.04 378.54 -147.394 390.654 -146.111C403.86 -144.712 414.901 -136.542 422.337 -125.836C426.144 -120.355 429.046 -114.279 431.146 -107.952C433.024 -102.294 433.925 -96.3227 436.297 -90.8283C438.137 -86.5646 441.012 -82.4298 445.669 -81.0438C451.82 -79.2132 457.514 -82.9858 462.6 -85.9528C473.341 -92.2191 485.989 -94.0183 498.173 -91.8017C510.19 -89.6154 521.694 -83.6285 529.859 -74.4652C534.994 -68.7024 539.457 -62.2755 544.391 -56.3305C549.183 -50.5564 553.914 -44.8043 557.583 -38.2245C565.484 -24.0523 566.71 -8.17169 566.446 7.75664C566.185 23.5625 564.154 39.2712 562.251 54.9431C560.236 71.5364 558.221 88.13 556.206 104.723C554.262 120.733 552.749 136.867 550.254 152.801C548.096 166.579 542.948 182.049 528.941 187.891C518.618 192.197 508.863 187.529 501.012 180.745C487.685 169.23 473.437 147.92 452.973 157.083C440.633 162.608 434.048 175.12 429.24 187.037C426.576 193.64 424.162 200.377 420.724 206.633C417.222 213.006 412.51 218.623 407.087 223.447C396.97 232.447 384.816 238.784 372.725 244.68C371.666 245.196 372.291 246.936 373.361 246.415Z" fill="white"/>
<path d="M377.369 263.468C390.845 256.898 404.42 249.844 415.607 239.705C420.79 235.008 425.374 229.691 428.99 223.691C433.13 216.82 435.92 209.267 438.874 201.842C444.412 187.921 452.359 171.372 468.291 167.293C479.816 164.342 489.806 170.825 497.913 178.316C505.507 185.333 512.185 193.611 521.012 199.17C530.725 205.288 542.17 205.666 551.818 199.018C564.237 190.461 568.62 175.533 570.725 161.348C573.375 143.494 575.163 125.479 577.339 107.563C579.577 89.1271 581.818 70.6917 584.055 52.2558C586.08 35.5618 588.063 18.8071 588.082 1.96619C588.101 -14.5723 586.305 -30.6418 578.118 -45.2981C573.975 -52.7143 568.592 -59.1449 563.201 -65.6631C557.869 -72.1108 553.076 -79.1556 547.402 -85.2985C530.328 -103.782 500.803 -110.698 477.733 -99.9796C471.256 -96.9705 464.31 -90.3385 456.661 -92.1569C450.202 -93.6924 447.317 -100.691 445.531 -106.39C443.472 -112.961 442.161 -119.651 439.497 -126.038C436.774 -132.564 433.207 -138.788 428.701 -144.25C420.304 -154.429 408.652 -161.737 395.323 -162.807C383.249 -163.776 370.361 -159.97 362.279 -150.583C358.137 -145.772 355.733 -139.78 352.958 -134.147C350.193 -128.534 346.804 -122.345 340.636 -119.96C333.089 -117.043 325.102 -121.118 319.076 -125.537C312.371 -130.456 306.634 -136.526 301.105 -142.699C291.437 -153.493 281.97 -164.818 268.897 -171.628C257.373 -177.632 244.254 -178.657 232.538 -172.591C209.505 -160.663 199.347 -131.739 173.609 -123.883C161.574 -120.209 148.715 -121.881 136.571 -124.074C124.351 -126.282 112.141 -129.316 99.6592 -129.466C87.5744 -129.61 75.718 -126.34 66.4093 -118.387C56.8358 -110.209 50.9845 -98.6064 47.3819 -86.7258C43.3356 -73.3823 42.1333 -59.4716 41.8848 -45.5917C41.5756 -28.3278 42.6983 -11.0585 44.8294 6.0699C49.0735 40.1814 56.9877 73.9414 66.4577 106.955C76.075 140.483 88.3752 173.546 106.621 203.41C121.897 228.412 141.542 250.875 165.463 267.938C188.477 284.355 215.266 295.384 243.569 297.719C274.771 300.292 305.827 292.972 334.872 282.051C349.352 276.606 363.461 270.229 377.369 263.468C378.428 262.954 377.803 261.214 376.733 261.734C348.624 275.396 319.356 287.771 288.454 293.38C258.766 298.767 228.422 296.896 200.386 285.327C174.367 274.589 151.486 256.971 132.868 236C111.244 211.643 95.542 182.622 83.648 152.443C70.9688 120.272 62.0249 86.5143 54.7617 52.7436C47.7049 19.9321 42.9955 -13.5809 43.7556 -47.2107C44.3281 -72.5377 48.6567 -104.453 71.4589 -119.92C93.1559 -134.638 120.194 -124.404 143.667 -121.037C155.154 -119.39 167.221 -119.049 178.147 -123.539C189.691 -128.283 198.455 -137.623 206.64 -146.717C215.014 -156.022 223.474 -166.524 235.14 -171.815C248.374 -177.816 262.489 -174.25 274.092 -166.374C286.625 -157.867 295.562 -145.478 305.99 -134.717C314.314 -126.128 327.698 -113.324 340.947 -118.108C352.589 -122.312 355.192 -136.971 361.305 -146.225C368.794 -157.562 382.982 -162.277 396.103 -160.887C410.398 -159.372 422.353 -150.526 430.403 -138.937C434.522 -133.007 437.663 -126.432 439.935 -119.586C441.965 -113.469 442.94 -107.014 445.504 -101.074C447.484 -96.4868 450.576 -92.032 455.588 -90.5414C462.212 -88.5711 468.349 -92.644 473.825 -95.8384C485.456 -102.623 499.147 -104.574 512.339 -102.174C525.351 -99.8071 537.802 -93.3234 546.643 -83.4022C552.194 -77.1719 557.019 -70.2241 562.353 -63.7972C567.534 -57.5549 572.648 -51.3364 576.614 -44.2232C585.164 -28.889 586.496 -11.7114 586.21 5.52351C585.927 22.6174 583.732 39.6062 581.674 56.5552C579.495 74.4941 577.317 92.4327 575.139 110.372C573.037 127.679 571.401 145.121 568.704 162.347C566.367 177.272 560.784 194.014 545.615 200.34C534.43 205.005 523.855 199.953 515.348 192.602C500.965 180.174 485.576 157.144 463.488 167.034C450.167 172.998 443.062 186.515 437.872 199.378C434.992 206.516 432.382 213.799 428.666 220.562C424.874 227.464 419.772 233.545 413.899 238.77C402.956 248.503 389.811 255.357 376.732 261.734C375.674 262.25 376.299 263.99 377.369 263.468Z" fill="white"/>
<path d="M381.376 280.522C395.857 273.461 410.443 265.88 422.465 254.985C428.027 249.944 432.949 244.236 436.829 237.797C441.28 230.412 444.279 222.292 447.454 214.31C453.415 199.327 461.971 181.525 479.117 177.134C491.532 173.953 502.292 180.923 511.028 188.995C519.187 196.534 526.362 205.429 535.844 211.404C546.263 217.97 558.54 218.38 568.891 211.247C582.227 202.058 586.928 186.026 589.189 170.795C592.037 151.603 593.959 132.237 596.298 112.977C598.705 93.1583 601.114 73.3402 603.518 53.5218C605.694 35.5816 607.827 17.5764 607.847 -0.521561C607.867 -18.2866 605.942 -35.5521 597.148 -51.296C592.694 -59.2686 586.908 -66.1813 581.113 -73.1884C575.38 -80.1197 570.229 -87.6938 564.128 -94.2966C545.792 -114.144 514.087 -121.563 489.315 -110.054C482.335 -106.811 474.869 -99.6834 466.626 -101.641C459.655 -103.297 456.536 -110.833 454.608 -116.987C452.395 -124.05 450.986 -131.242 448.122 -138.108C445.197 -145.118 441.365 -151.802 436.525 -157.67C427.509 -168.599 414.999 -176.442 400.688 -177.59C387.733 -178.63 373.902 -174.544 365.231 -164.473C360.783 -159.305 358.202 -152.87 355.22 -146.819C352.239 -140.768 348.585 -134.103 341.936 -131.533C333.798 -128.387 325.188 -132.774 318.691 -137.54C311.477 -142.83 305.307 -149.361 299.359 -156.002C288.974 -167.596 278.805 -179.763 264.763 -187.078C252.394 -193.522 238.315 -194.626 225.739 -188.115C200.973 -175.292 190.059 -144.198 162.382 -135.75C149.432 -131.797 135.597 -133.592 122.53 -135.953C109.399 -138.324 96.2795 -141.587 82.8672 -141.747C69.8868 -141.903 57.157 -138.393 47.1584 -129.851C36.8818 -121.072 30.5988 -108.612 26.7318 -95.859C22.384 -81.5205 21.0904 -66.5728 20.8234 -51.6578C20.4912 -33.0992 21.698 -14.5347 23.9888 3.87817C28.5506 40.5418 37.0566 76.8275 47.2352 112.312C57.5722 148.348 70.7915 183.885 90.4026 215.984C106.821 242.857 127.934 266.999 153.645 285.339C178.376 302.98 207.163 314.829 237.577 317.338C271.106 320.104 304.48 312.234 335.691 300.498C351.257 294.645 366.424 287.79 381.376 280.522C382.435 280.008 381.809 278.267 380.739 278.788C350.517 293.477 319.048 306.781 285.821 312.811C253.895 318.605 221.262 316.589 191.114 304.148C163.132 292.601 138.527 273.652 118.505 251.099C95.2549 224.911 78.3727 193.707 65.5847 161.259C51.9522 126.669 42.3372 90.3735 34.5279 54.064C26.9419 18.7913 21.8794 -17.235 22.6965 -53.3868C23.3125 -80.6384 27.9719 -114.97 52.5064 -131.612C75.8511 -147.447 104.926 -136.447 130.183 -132.824C142.52 -131.055 155.478 -130.688 167.212 -135.51C179.61 -140.605 189.022 -150.639 197.813 -160.406C206.824 -170.418 215.926 -181.714 228.48 -187.407C242.729 -193.869 257.929 -190.026 270.421 -181.546C283.894 -172.401 293.501 -159.083 304.711 -147.515C313.638 -138.304 328.008 -124.54 342.222 -129.672C354.717 -134.184 357.516 -149.945 364.077 -159.877C372.142 -172.085 387.422 -177.159 401.551 -175.662C416.935 -174.033 429.804 -164.511 438.467 -152.039C442.899 -145.658 446.279 -138.584 448.723 -131.219C450.905 -124.644 451.954 -117.705 454.71 -111.319C456.829 -106.409 460.14 -101.634 465.506 -100.038C472.603 -97.928 479.184 -102.301 485.05 -105.723C497.569 -113.027 512.304 -115.13 526.505 -112.546C540.511 -109.998 553.91 -103.018 563.425 -92.3383C569.393 -85.6407 574.579 -78.1718 580.314 -71.2628C585.883 -64.5523 591.38 -57.8676 595.644 -50.2208C604.842 -33.7247 606.28 -15.2501 605.973 3.29131C605.669 21.6733 603.308 39.942 601.095 58.1684C598.753 77.4527 596.412 96.7369 594.07 116.021C591.811 134.626 590.052 153.377 587.152 171.895C584.636 187.965 578.618 205.979 562.288 212.79C550.241 217.814 538.846 212.377 529.683 204.46C514.243 191.119 497.714 166.368 474.001 176.986C459.699 183.389 452.075 197.911 446.503 211.72C443.407 219.393 440.602 227.223 436.607 234.493C432.524 241.924 427.033 248.468 420.709 254.093C408.942 264.561 394.803 271.93 380.739 278.788C379.681 279.304 380.306 281.044 381.376 280.522Z" fill="white"/>
<path d="M385.382 297.576C400.869 290.025 416.466 281.916 429.323 270.265C435.264 264.881 440.523 258.781 444.668 251.904C449.429 244.003 452.637 235.317 456.034 226.777C462.417 210.733 471.584 191.678 489.942 186.974C503.248 183.565 514.779 191.022 524.143 199.674C532.866 207.734 540.538 217.25 550.676 223.638C561.804 230.649 574.907 231.094 585.965 223.476C600.217 213.655 605.237 196.52 607.652 180.243C610.699 159.712 612.756 138.994 615.258 118.39C617.832 97.1894 620.409 75.9889 622.981 54.7876C625.309 35.6012 627.59 16.3456 627.612 -3.00957C627.633 -22.0011 625.58 -40.4627 616.178 -57.2942C611.413 -65.823 605.223 -73.2181 599.024 -80.714C592.892 -88.1287 587.381 -96.2319 580.855 -103.295C561.255 -124.505 527.37 -132.428 500.896 -120.129C493.414 -116.653 485.428 -109.028 476.591 -111.126C469.108 -112.902 465.756 -120.975 463.686 -127.583C461.319 -135.139 459.811 -142.833 456.746 -150.178C453.62 -157.673 449.523 -164.816 444.349 -171.089C434.714 -182.769 421.346 -191.146 406.052 -192.374C392.218 -193.484 377.443 -189.119 368.183 -178.364C363.428 -172.84 360.67 -165.961 357.483 -159.492C354.285 -153.002 350.365 -145.863 343.235 -143.106C334.507 -139.732 325.274 -144.431 318.305 -149.543C310.584 -155.206 303.979 -162.197 297.613 -169.305C286.512 -181.7 275.64 -194.708 260.629 -202.529C247.414 -209.413 232.375 -210.596 218.939 -203.64C192.441 -189.922 180.77 -156.657 151.154 -147.617C137.289 -143.385 122.479 -145.304 108.488 -147.831C94.4473 -150.367 80.4172 -153.858 66.0754 -154.03C52.1994 -154.196 38.5959 -150.446 27.9073 -141.315C16.9279 -131.936 10.2132 -118.618 6.08163 -104.993C1.43209 -89.6592 0.0473742 -73.6743 -0.238291 -57.7242C-0.593802 -37.8707 0.697234 -18.011 3.14811 1.68637C8.02733 40.9023 17.1256 79.7138 28.0126 117.668C39.0691 156.212 53.2073 194.225 74.1836 228.558C91.7442 257.301 114.326 283.122 141.826 302.739C168.274 321.605 199.059 334.274 231.584 336.957C267.441 339.915 303.133 331.495 336.51 318.945C353.162 312.684 369.387 305.35 385.382 297.576C386.441 297.061 385.816 295.321 384.745 295.841C352.408 311.558 318.739 325.79 283.188 332.242C249.024 338.442 214.103 336.282 181.841 322.969C151.897 310.611 125.567 290.332 104.141 266.197C79.2657 238.178 61.2032 204.791 47.521 170.075C32.9353 133.066 22.6489 94.2326 14.2939 55.384C6.17846 17.6507 0.76283 -20.8891 1.63701 -59.5633C2.29648 -88.7394 7.28675 -125.486 33.5533 -143.303C58.5459 -160.256 89.6579 -148.49 116.698 -144.611C129.885 -142.72 143.735 -142.328 156.277 -147.482C169.529 -152.927 179.589 -163.655 188.985 -174.095C198.634 -184.816 208.378 -196.904 221.819 -202.999C237.084 -209.922 253.368 -205.802 266.75 -196.719C281.163 -186.936 291.441 -172.689 303.433 -160.314C312.963 -150.48 328.318 -135.756 343.497 -141.237C356.844 -146.056 359.84 -162.92 366.85 -173.529C375.491 -186.608 391.862 -192.042 406.999 -190.438C423.472 -188.693 437.256 -178.495 446.532 -165.141C451.276 -158.311 454.895 -150.738 457.511 -142.853C459.846 -135.819 460.967 -128.396 463.915 -121.565C466.175 -116.331 469.703 -111.235 475.423 -109.535C482.994 -107.285 490.018 -111.959 496.274 -115.609C509.682 -123.43 525.461 -125.686 540.67 -122.919C555.671 -120.19 570.017 -112.712 580.207 -101.275C586.591 -94.1099 592.14 -86.1202 598.274 -78.7291C604.232 -71.5505 610.113 -64.3993 614.674 -56.219C624.52 -38.561 626.064 -18.7895 625.735 1.05867C625.41 20.7287 622.885 40.2776 620.516 59.7809C618.011 80.4106 615.506 101.04 613.001 121.67C610.584 141.573 608.703 161.632 605.601 181.441C602.905 198.657 596.453 217.943 578.96 225.239C566.053 230.622 553.836 224.801 544.017 216.317C527.522 202.064 509.851 175.592 484.514 186.937C469.232 193.779 461.087 209.306 455.134 224.061C451.822 232.27 448.821 240.645 444.547 248.422C440.174 256.382 434.293 263.39 427.52 269.415C414.927 280.617 399.796 288.502 384.746 295.841C383.687 296.357 384.312 298.097 385.382 297.576Z" fill="white"/>
<path d="M389.39 314.629C405.883 306.588 422.489 297.951 436.182 285.545C442.503 279.818 448.099 273.326 452.508 266.01C457.58 257.593 460.997 248.341 464.616 239.245C471.422 222.138 481.198 201.83 500.769 196.815C514.965 193.176 527.267 201.12 537.26 210.353C546.548 218.935 554.717 229.069 565.51 235.871C577.345 243.329 591.278 243.808 603.04 235.704C618.208 225.252 623.547 207.013 626.117 189.69C629.363 167.82 631.554 145.752 634.219 123.804C636.961 101.22 639.706 78.637 642.446 56.0532C644.924 35.6209 647.354 15.1146 647.377 -5.49768C647.4 -25.7158 645.219 -45.3735 635.209 -63.2926C630.134 -72.3775 623.54 -80.2549 616.936 -88.2397C610.404 -96.138 604.535 -104.77 597.582 -112.293C576.72 -134.867 540.654 -143.294 512.479 -130.203C504.494 -126.494 495.989 -118.373 486.557 -120.611C478.562 -122.508 474.977 -131.118 472.764 -138.18C470.243 -146.228 468.636 -154.424 465.372 -162.248C462.044 -170.227 457.683 -177.831 452.174 -184.509C441.92 -196.939 427.693 -205.851 411.418 -207.157C396.703 -208.338 380.984 -203.693 371.136 -192.254C366.074 -186.374 363.139 -179.051 359.746 -172.166C356.332 -165.237 352.147 -157.622 344.535 -154.68C335.217 -151.077 325.362 -156.088 317.92 -161.546C309.691 -167.582 302.653 -175.033 295.868 -182.609C284.05 -195.803 272.476 -209.654 256.496 -217.979C242.436 -225.304 226.437 -226.566 212.14 -219.165C183.91 -204.551 171.482 -169.117 139.928 -159.485C125.148 -154.973 109.363 -157.016 94.4482 -159.71C79.4967 -162.411 64.5561 -166.129 49.2846 -166.312C34.5132 -166.489 20.0359 -162.499 8.65754 -152.779C-3.02497 -142.799 -10.1712 -128.624 -14.5672 -114.126C-19.5185 -97.7978 -20.9945 -80.7758 -21.2985 -63.7907C-21.6771 -42.6424 -20.3018 -21.4877 -17.6913 -0.505569C-12.4946 41.2629 -2.80454 82.6001 8.79114 123.024C20.5672 164.077 35.6242 204.565 57.9656 241.132C76.6697 271.746 100.719 299.246 130.01 320.14C158.174 340.23 190.958 353.719 225.594 356.576C263.777 359.726 301.787 350.757 337.331 337.392C355.069 330.723 372.352 322.911 389.39 314.629C390.449 314.115 389.824 312.374 388.753 312.895C354.302 329.64 318.433 344.799 280.557 351.673C244.155 358.28 206.945 355.975 172.57 341.789C140.663 328.622 112.61 307.013 89.779 281.296C63.2783 251.446 44.0355 215.876 29.4592 178.891C13.9202 139.463 2.96272 98.0918 -5.93854 56.7041C-14.5831 16.51 -20.3521 -24.5432 -19.4208 -65.7396C-18.7177 -96.8401 -13.3965 -136.003 14.602 -154.995C41.2422 -173.065 74.3914 -160.533 103.215 -156.398C117.251 -154.385 131.993 -153.967 145.344 -159.454C159.45 -165.25 170.158 -176.672 180.159 -187.785C190.445 -199.213 200.832 -212.094 215.16 -218.591C231.44 -225.975 248.809 -221.579 263.08 -211.892C278.433 -201.47 289.381 -186.294 302.155 -173.112C312.288 -162.656 328.629 -146.972 344.773 -152.801C358.972 -157.928 362.165 -175.895 369.623 -187.182C378.841 -201.131 396.303 -206.924 412.448 -205.214C430.009 -203.354 444.708 -192.48 454.597 -178.243C459.654 -170.963 463.512 -162.891 466.301 -154.488C468.787 -146.995 469.981 -139.087 473.122 -131.811C475.521 -126.253 479.267 -120.838 485.342 -119.033C493.385 -116.644 500.853 -121.618 507.5 -125.495C521.796 -133.835 538.619 -136.242 554.837 -133.292C570.832 -130.382 586.125 -122.408 596.991 -110.212C603.791 -102.58 609.701 -94.069 616.236 -86.1958C622.582 -78.549 628.847 -70.9314 633.705 -62.2177C644.199 -43.3978 645.849 -22.3294 645.499 -1.17445C645.152 19.7837 642.462 40.6125 639.939 61.3932C637.27 83.3682 634.602 105.343 631.933 127.318C629.359 148.52 627.355 169.886 624.05 190.988C621.175 209.35 614.289 229.908 595.634 237.688C581.865 243.43 568.828 237.225 558.353 228.174C540.801 213.008 521.99 184.816 495.029 196.888C478.765 204.17 470.101 220.701 463.767 236.401C460.239 245.146 457.041 254.068 452.489 262.352C447.825 270.841 441.555 278.312 434.331 284.738C420.913 296.674 404.79 305.075 388.753 312.895C387.695 313.411 388.32 315.151 389.39 314.629Z" fill="white"/>
<path d="M393.396 331.684C410.894 323.152 428.513 313.989 443.04 300.826C449.74 294.755 455.674 287.872 460.347 280.117C465.73 271.185 469.356 261.366 473.196 251.713C480.424 233.545 490.811 211.984 511.595 206.656C526.681 202.788 539.755 211.219 550.375 221.032C560.228 230.136 568.894 240.888 580.343 248.105C592.884 256.011 607.648 256.522 620.113 247.934C636.199 236.851 641.855 217.507 644.581 199.138C648.026 175.929 650.351 152.51 653.179 129.218C656.089 105.252 659.002 81.2863 661.91 57.3199C664.539 35.6414 667.118 13.8845 667.143 -7.98474C667.167 -29.4294 664.857 -50.2831 654.239 -69.2898C648.854 -78.9309 641.856 -87.2906 634.848 -95.7643C627.916 -104.146 621.688 -113.308 614.309 -121.29C592.184 -145.227 553.938 -154.158 524.061 -140.277C515.574 -136.334 506.548 -127.718 496.523 -130.095C488.016 -132.112 484.197 -141.26 481.842 -148.776C479.166 -157.317 477.462 -166.014 473.998 -174.317C470.467 -182.78 465.841 -190.845 459.998 -197.928C449.125 -211.109 434.04 -220.555 416.783 -221.94C401.188 -223.191 384.526 -218.267 374.089 -206.144C368.72 -199.908 365.607 -192.14 362.009 -184.838C358.379 -177.471 353.928 -169.381 345.835 -166.252C335.927 -162.422 325.449 -167.744 317.535 -173.548C308.798 -179.956 301.327 -187.868 294.123 -195.911C281.589 -209.906 269.312 -224.599 252.363 -233.429C237.457 -241.194 220.499 -242.534 205.341 -234.689C175.378 -219.18 162.194 -181.575 128.701 -171.351C113.006 -166.56 96.2453 -168.727 80.407 -171.588C64.5454 -174.453 48.6943 -178.399 32.493 -178.593C16.826 -178.781 1.47509 -174.552 -10.5932 -164.242C-22.9787 -153.662 -30.5565 -138.628 -35.2172 -123.259C-40.4702 -105.936 -42.0373 -87.8764 -42.3599 -69.8562C-42.7616 -47.4132 -41.3022 -24.9632 -38.5319 -2.69643C-33.0181 41.6244 -22.736 85.4871 -10.4318 128.382C2.06379 171.943 18.04 214.905 41.7465 253.707C61.5934 286.191 87.1111 315.371 118.191 337.541C148.072 358.856 182.854 373.165 219.601 376.196C260.112 379.537 300.44 370.019 338.15 355.84C356.974 348.763 375.315 340.472 393.396 331.684C394.456 331.169 393.83 329.429 392.76 329.949C356.194 347.722 318.124 363.809 277.925 371.105C239.284 378.117 199.787 375.669 163.298 360.611C129.428 346.634 99.6508 323.694 75.4156 296.396C47.289 264.715 26.8658 226.961 11.3954 187.707C-5.09687 145.861 -16.7254 101.952 -26.1727 58.0253C-35.3465 15.3703 -41.4687 -28.1964 -40.4805 -71.9148C-39.734 -104.94 -34.0819 -146.519 -4.3513 -166.685C23.9366 -185.874 59.1229 -172.574 89.7297 -168.184C104.616 -166.049 120.249 -165.606 134.409 -171.424C149.368 -177.571 160.724 -189.687 171.331 -201.472C182.254 -213.609 193.283 -227.282 208.499 -234.182C225.795 -242.026 244.248 -237.353 259.408 -227.063C275.701 -216.003 287.319 -199.898 300.876 -185.91C311.612 -174.831 328.938 -158.186 346.047 -164.364C361.098 -169.799 364.488 -188.869 372.395 -200.833C382.189 -215.653 400.742 -221.806 417.895 -219.989C436.545 -218.013 452.158 -206.463 462.661 -191.343C468.03 -183.614 472.127 -175.043 475.088 -166.12C477.727 -158.169 478.994 -149.777 482.327 -142.055C484.863 -136.181 488.83 -130.428 495.259 -128.529C503.784 -126.011 511.678 -131.269 518.723 -135.379C533.909 -144.237 551.774 -146.797 569.001 -143.663C585.992 -140.572 602.231 -132.101 613.772 -119.147C620.989 -111.048 627.261 -102.016 634.196 -93.6608C640.931 -85.5458 647.579 -77.4618 652.735 -68.2146C663.877 -48.2328 665.633 -25.8674 665.261 -3.40578C664.893 18.8404 662.038 40.9492 659.36 63.0071C656.528 86.3274 653.696 109.648 650.864 132.968C648.132 155.468 646.005 178.143 642.499 200.536C639.444 220.044 632.123 241.873 612.306 250.138C597.676 256.24 583.818 249.65 572.687 240.032C554.079 223.954 534.127 194.041 505.542 206.84C488.297 214.561 479.113 232.098 472.397 248.744C468.653 258.023 465.26 267.491 460.429 276.283C455.474 285.301 448.815 293.235 441.141 300.062C426.898 312.732 409.782 321.649 392.76 329.95C391.701 330.465 392.327 332.205 393.396 331.684Z" fill="white"/>
</g>
</g>
<defs>
<clipPath id="clip0_120_4862">
<rect width="354" height="354" rx="177" fill="white"/>
</clipPath>
</defs>
</svg>
