<svg width="34" height="34" viewBox="0 0 34 34" fill="none" xmlns="http://www.w3.org/2000/svg">
<g clip-path="url(#clip0_106_1427)">
<path d="M33.3333 16.6667C33.3333 25.8714 25.8714 33.3333 16.6667 33.3333C7.46193 33.3333 0 25.8714 0 16.6667C0 7.46193 7.46193 0 16.6667 0C25.8714 0 33.3333 7.46193 33.3333 16.6667Z" fill="#8200CC"/>
<g clip-path="url(#clip1_106_1427)">
<path d="M3.28226 39.8764C-8.84935 33.9248 4.87205 13.7196 16.2331 16.6013C5.11749 17.3419 -0.0904662 30.3966 3.28226 39.8764Z" fill="#FF49B8"/>
<path d="M8.3699 42.1811C3.21181 33.6745 5.50955 19.4267 16.2337 16.8308C-2.13213 26.0385 20.568 47.7641 8.3699 42.1811Z" fill="#B532FF"/>
<path d="M-5.04434 32.5019C-13.9131 22.1182 7.39193 8.98513 16.2321 16.6011C5.84062 12.5204 -4.38757 22.5136 -5.04434 32.5019Z" fill="#F46F00"/>
<path d="M19.4718 43.3334C11.5187 37.5663 7.41921 23.5232 16.4654 16.8308C3.16352 33.1163 32.8605 43.1759 19.4718 43.3334Z" fill="white"/>
<path d="M-9.66988 22.3619C-13.0674 9.31011 10.7482 6.09868 16.4635 16.3699C8.40154 8.79957 -4.93338 13.4888 -9.66988 22.3619Z" fill="#10CFC9"/>
<path d="M30.1102 39.8765C20.2989 37.8791 11.3104 26.8074 16.4652 16.8308C11.9792 37.8086 41.6496 34.0256 30.1102 39.8765Z" fill="#FF187D"/>
<path d="M-9.66992 11.3C-8.22751 -2.14913 16.178 4.64469 16.4638 16.3692C12.3368 5.95967 -1.56967 5.35178 -9.66992 11.3Z" fill="white"/>
<path d="M38.2053 32.2715C28.2254 34.6716 15.8448 27.9588 16.4653 16.8308C20.2598 37.6042 47.2296 22.3078 38.2053 32.2715Z" fill="#10CFC9"/>
<path d="M16.4646 16.3701C17.5189 5.26671 4.18209 -1.47704 -5.27539 1.16038C1.75697 -10.3205 20.9452 5.22167 16.4646 16.3701Z" fill="#FBAC2F"/>
<path d="M16.6958 16.831C22.5364 26.2566 36.761 24.2064 43.2928 16.6003C44.4746 30.1228 19.3038 28.1681 16.6958 16.831Z" fill="#B532FF"/>
<path d="M16.696 16.3702C21.6642 6.46058 12.9746 -4.65883 3.05029 -6.44453C14.216 -13.9376 24.9693 8.35665 16.696 16.3702Z" fill="#B532FF"/>
<path d="M16.6958 16.831C25.9476 22.8304 38.2206 15.39 40.9799 5.76892C47.5574 17.7728 24.0487 25.9004 16.6958 16.831Z" fill="#FBAC2F"/>
<path d="M16.6958 16.8309C27.382 18.2618 35.5779 7.2342 34.5037 -3.21924C44.9577 5.51849 27.2716 21.5903 16.6958 16.8309Z" fill="#10CFC9"/>
<path d="M16.6961 16.6005C25.5688 9.60228 21.7552 -3.99893 13.689 -9.90176C27.1511 -11.7074 27.5148 11.8848 16.6961 16.6003V16.6005Z" fill="#FF49B8"/>
<path d="M16.6958 16.6006C27.5983 13.8016 29.8112 0.0689906 24.7901 -8.74951C38.0081 -5.66632 28.4224 17.819 16.6958 16.6006Z" fill="white"/>
</g>
</g>
<defs>
<clipPath id="clip0_106_1427">
<rect width="33.3333" height="33.3333" rx="16.6667" fill="white"/>
</clipPath>
<clipPath id="clip1_106_1427">
<rect width="53.3333" height="53.3333" fill="white" transform="translate(-10 -10)"/>
</clipPath>
</defs>
</svg>
