<svg width="172" height="172" viewBox="0 0 172 172" fill="none" xmlns="http://www.w3.org/2000/svg">
<g clip-path="url(#clip0_106_1329)">
<path d="M172 86C172 133.496 133.496 172 86 172C38.5036 172 0 133.496 0 86C0 38.5036 38.5036 0 86 0C133.496 0 172 38.5036 172 86Z" fill="#3BCFFF"/>
<g clip-path="url(#clip1_106_1329)">
<path d="M38.3507 168.627C-4.83939 147.436 44.0105 75.4955 84.4575 85.7555C44.8843 88.3924 26.3433 134.874 38.3507 168.627Z" fill="#FF53BC"/>
<path d="M56.4625 176.833C38.0991 146.545 46.2793 95.8155 84.4586 86.5728C19.0739 119.357 99.8893 196.711 56.4625 176.833Z" fill="#FF53BC"/>
<path d="M8.70675 142.37C-22.867 105.399 52.9814 58.6382 84.4535 85.7548C47.4586 71.2256 11.0449 106.806 8.70675 142.37Z" fill="#FF53BC"/>
<path d="M95.9869 180.936C67.6729 160.402 53.0781 110.401 85.2836 86.5728C37.9273 144.558 143.652 180.375 95.9869 180.936Z" fill="#FF53BC"/>
<path d="M-7.76026 106.266C-19.856 59.7953 64.9308 48.361 85.2779 84.9318C56.5763 57.9775 9.10227 74.6738 -7.76026 106.266Z" fill="#FF53BC"/>
<path d="M133.862 168.627C98.9324 161.516 66.9324 122.095 85.2838 86.5728C69.3131 161.265 174.944 147.795 133.862 168.627Z" fill="#FF53BC"/>
<path d="M-7.76123 66.8803C-2.62606 18.9944 84.2608 43.1839 85.2783 84.9291C70.5856 47.8659 21.0767 45.7015 -7.76123 66.8803Z" fill="#FF53BC"/>
<path d="M162.681 141.55C127.151 150.095 83.0743 126.194 85.2835 86.5728C98.7924 160.537 194.808 106.074 162.681 141.55Z" fill="#FF53BC"/>
<path d="M85.2806 84.9324C89.0339 45.3986 41.5532 21.3874 7.8833 30.7779C32.9194 -10.0999 101.232 45.2382 85.2806 84.9324Z" fill="#FF53BC"/>
<path d="M86.105 86.5733C106.898 120.133 157.54 112.834 180.794 85.7522C185.001 133.899 95.3898 126.939 86.105 86.5733Z" fill="#FF53BC"/>
<path d="M86.105 84.9325C103.792 49.6493 72.8561 10.0584 37.5244 3.70043C77.2757 -22.9789 115.559 56.4003 86.105 84.9325Z" fill="#FF53BC"/>
<path d="M86.105 86.5734C119.043 107.934 162.736 81.4427 172.56 47.1866C195.976 89.9267 112.282 118.865 86.105 86.5734Z" fill="#FF53BC"/>
<path d="M86.105 86.5732C124.149 91.6681 153.328 52.404 149.503 15.1843C186.721 46.2951 123.756 103.519 86.105 86.5732Z" fill="#FF53BC"/>
<path d="M86.1053 85.7529C117.693 60.8357 104.116 12.4084 75.3994 -8.60876C123.326 -15.0377 124.621 68.9625 86.1053 85.7522V85.7529Z" fill="#FF53BC"/>
<path d="M86.105 85.7529C124.919 75.7871 132.798 26.8918 114.922 -4.50659C161.979 6.47116 127.853 90.091 86.105 85.7529Z" fill="#FF53BC"/>
</g>
</g>
<defs>
<clipPath id="clip0_106_1329">
<rect width="172" height="172" rx="86" fill="white"/>
</clipPath>
<clipPath id="clip1_106_1329">
<rect width="189.874" height="189.894" fill="white" transform="translate(-8.93555 -8.95874)"/>
</clipPath>
</defs>
</svg>
