<svg width="354" height="354" viewBox="0 0 354 354" fill="none" xmlns="http://www.w3.org/2000/svg">
<g clip-path="url(#clip0_211_1108)">
<rect width="354" height="354" rx="177" fill="#FF187D"/>
<g opacity="0.3">
<path d="M327.123 49.6316C327.997 49.205 328.888 48.7567 329.615 48.1C330.038 47.718 330.386 47.3128 330.68 46.8234C330.925 46.4146 331.094 45.9693 331.269 45.5277C331.352 45.3189 331.437 45.1105 331.534 44.9078C331.584 44.8036 331.643 44.7042 331.694 44.6009C331.756 44.4739 331.566 44.7712 331.704 44.584C331.741 44.5345 331.775 44.4839 331.813 44.4351C331.881 44.3474 331.954 44.266 332.029 44.1846C332.107 44.1005 332.032 44.1284 332.013 44.1977C332.018 44.1786 332.103 44.1234 332.125 44.1064C332.173 44.0702 332.221 44.0362 332.272 44.004C332.302 43.9844 332.437 43.9235 332.315 43.9747C332.172 44.0353 332.386 43.9504 332.397 43.9464C332.419 43.9388 332.441 43.9312 332.463 43.9237C332.565 43.8952 332.552 43.8965 332.424 43.9273C332.483 43.8784 332.635 43.9231 332.706 43.907C332.536 43.9456 332.529 43.8904 332.615 43.907C332.647 43.9131 332.679 43.9163 332.711 43.9224C332.75 43.9299 332.789 43.9442 332.828 43.9501C332.942 43.9673 332.606 43.8603 332.762 43.9316C332.835 43.9652 332.909 43.9946 332.98 44.0332C333.006 44.0473 333.038 44.0726 333.065 44.0815C333.053 44.0774 332.872 43.9493 332.989 44.0353C333.05 44.0798 333.111 44.1225 333.171 44.169C333.299 44.2705 333.421 44.3802 333.539 44.4931C334.04 44.9704 334.487 45.466 335.091 45.8184C335.928 46.306 336.986 46.2197 337.763 45.6545C338.656 45.0055 339.04 43.9503 339.198 42.8967C339.356 41.842 339.461 40.7769 339.589 39.7181C339.723 38.6121 339.858 37.506 339.992 36.3999C340.122 35.3317 340.242 34.2602 340.245 33.1828C340.248 32.0368 340.071 30.9558 339.51 29.9455C339.268 29.5114 338.962 29.1323 338.646 28.7514C338.323 28.3628 338.031 27.9443 337.696 27.567C336.469 26.186 334.386 25.5733 332.639 26.2869C332.395 26.3863 332.164 26.5162 331.938 26.6487C331.894 26.6744 331.85 26.7002 331.806 26.7259C331.627 26.8303 331.821 26.7246 331.823 26.717C331.817 26.7355 331.711 26.7625 331.686 26.7743C331.51 26.8597 331.825 26.776 331.646 26.7784C331.678 26.7788 331.709 26.7791 331.741 26.7795C331.663 26.7612 331.663 26.7625 331.741 26.783C331.761 26.7885 331.78 26.7939 331.8 26.7994C331.732 26.7636 331.734 26.766 331.804 26.8065C331.822 26.8172 331.84 26.8279 331.858 26.8386C331.785 26.7738 331.799 26.7932 331.901 26.8972C331.902 26.8918 331.828 26.8015 331.831 26.8055C331.834 26.81 331.773 26.705 331.768 26.7045C331.828 26.7102 331.849 26.8887 331.803 26.7582C331.767 26.6579 331.726 26.5609 331.695 26.4589C331.568 26.0494 331.484 25.6359 331.312 25.2407C331.117 24.792 330.872 24.3495 330.554 23.9755C329.917 23.2262 329.044 22.6396 328.04 22.5614C327.015 22.4818 326.003 22.7752 325.293 23.5489C324.998 23.8707 324.812 24.2819 324.624 24.6714C324.587 24.7475 324.55 24.8234 324.511 24.8981C324.492 24.9347 324.47 24.9705 324.451 25.0073C324.361 25.1839 324.55 24.9007 324.465 24.9873C324.456 24.9964 324.297 25.181 324.3 25.1913C324.293 25.1664 324.485 25.057 324.348 25.1409C324.165 25.2518 324.362 25.1341 324.369 25.1407C324.355 25.1283 324.275 25.1961 324.257 25.181C324.234 25.1616 324.451 25.1727 324.293 25.1618C324.508 25.1766 324.345 25.1664 324.29 25.1568C324.26 25.1516 324.114 25.1143 324.232 25.149C324.368 25.1895 324.151 25.1117 324.143 25.1082C324.099 25.0881 324.057 25.0644 324.014 25.0428C323.972 25.0219 323.878 24.9469 324.029 25.0559C323.967 25.0108 323.903 24.9683 323.842 24.9217C323.663 24.7858 323.496 24.6359 323.336 24.4788C323.289 24.4325 323.243 24.3848 323.196 24.3382C323.171 24.3131 323.074 24.2098 323.196 24.3401C323.105 24.2431 323.017 24.1436 322.928 24.0446C322.264 23.3 321.615 22.5607 320.714 22.0972C319.866 21.661 318.831 21.5728 317.957 21.9875C317.142 22.3742 316.543 23.0324 315.949 23.6937C315.825 23.8321 315.7 23.9701 315.572 24.1047C315.505 24.1754 315.436 24.2451 315.366 24.3135C315.342 24.3371 315.235 24.4304 315.337 24.343C315.449 24.2468 315.278 24.3925 315.256 24.411C315.12 24.5274 314.976 24.6365 314.824 24.732C314.789 24.7543 314.752 24.7747 314.716 24.7968C314.538 24.9081 314.867 24.7323 314.741 24.7832C314.646 24.8212 314.554 24.8647 314.457 24.8975C314.409 24.9134 314.361 24.9258 314.314 24.9415C314.215 24.974 314.255 24.9084 314.382 24.9299C314.316 24.9186 314.218 24.9604 314.149 24.9694C313.95 24.9953 313.752 24.9984 313.553 24.9971C313.413 24.9962 313.602 25.0112 313.611 25.0003C313.606 25.0058 313.484 24.9909 313.489 24.9912C313.407 24.9844 313.326 24.9757 313.245 24.9657C313.038 24.9406 312.833 24.907 312.629 24.87C311.831 24.7261 311.049 24.5535 310.235 24.5385C309.385 24.5228 308.496 24.7773 307.833 25.3214C307.137 25.8928 306.669 26.6681 306.394 27.5193C306.098 28.4364 305.997 29.361 305.972 30.3217C305.945 31.3655 306.007 32.4102 306.131 33.4464C306.387 35.5723 306.881 37.6793 307.468 39.7364C308.552 43.534 310.321 47.3662 313.617 49.7327C315.103 50.7996 316.837 51.5531 318.673 51.71C320.691 51.8824 322.685 51.4531 324.57 50.7469C325.44 50.4206 326.287 50.0376 327.123 49.6316C327.556 49.4211 327.878 48.9387 327.672 48.4461C327.495 48.0222 326.952 47.6707 326.487 47.8969C325.651 48.3029 324.804 48.6861 323.933 49.012C323.487 49.1794 323.034 49.3319 322.576 49.4638C322.373 49.522 322.17 49.5762 321.965 49.6259C321.914 49.6383 321.863 49.6495 321.812 49.6621C322 49.6152 321.864 49.651 321.823 49.6595C321.695 49.6859 321.567 49.7118 321.438 49.7351C320.991 49.8156 320.538 49.8716 320.084 49.8969C319.863 49.9091 319.643 49.9143 319.422 49.9115C319.371 49.911 319.074 49.8986 319.272 49.9099C319.142 49.9023 319.012 49.8929 318.882 49.8799C318.456 49.8376 318.034 49.7641 317.62 49.6586C317.518 49.6325 317.416 49.6046 317.315 49.5751C317.271 49.5621 317.223 49.5514 317.181 49.5344C317.207 49.5451 317.365 49.5965 317.206 49.5407C317.007 49.4712 316.81 49.3991 316.615 49.3182C316.237 49.1604 315.869 48.978 315.514 48.7742C315.422 48.7216 315.331 48.6672 315.241 48.6124C315.202 48.5887 315.09 48.5364 315.262 48.6255C315.221 48.6046 315.18 48.573 315.143 48.5484C314.966 48.4315 314.792 48.309 314.622 48.182C314.29 47.9339 313.972 47.6676 313.667 47.3858C313.519 47.2487 313.374 47.1077 313.233 46.9636C313.2 46.9296 313.167 46.8952 313.134 46.8612C313.015 46.7385 313.129 46.8607 313.15 46.8806C313.065 46.8004 312.989 46.7042 312.912 46.6159C312.313 45.9335 311.79 45.1885 311.332 44.4056C311.273 44.3048 311.215 44.2034 311.158 44.1014C311.129 44.0504 311.101 43.9992 311.073 43.948C311.079 43.9586 310.944 43.7054 311.007 43.8259C311.06 43.9259 310.975 43.7633 310.964 43.7411C310.938 43.689 310.911 43.6369 310.885 43.5846C310.82 43.4538 310.756 43.3224 310.694 43.1903C310.476 42.7267 310.276 42.2549 310.091 41.7773C309.718 40.8179 309.407 39.836 309.131 38.8451C308.994 38.3523 308.865 37.8572 308.743 37.3607C308.684 37.1241 308.627 36.8868 308.572 36.6494C308.546 36.5376 308.521 36.4254 308.496 36.3134C308.534 36.4819 308.5 36.3354 308.493 36.3031C308.475 36.2188 308.457 36.1348 308.439 36.0505C308.025 34.0911 307.755 32.0896 307.817 30.0833C307.819 30.026 307.821 29.9687 307.823 29.9116C307.822 29.9397 307.812 30.09 307.822 29.9333C307.828 29.8446 307.834 29.7557 307.841 29.6672C307.859 29.4649 307.883 29.2631 307.915 29.0624C307.946 28.8606 307.986 28.6602 308.034 28.4617C308.056 28.3739 308.08 28.2871 308.104 28.1999C308.14 28.0672 308.123 28.2232 308.092 28.2322C308.102 28.2293 308.153 28.0559 308.158 28.0426C308.218 27.8776 308.287 27.7156 308.365 27.5583C308.409 27.4713 308.458 27.3882 308.504 27.3026C308.564 27.1917 308.407 27.4419 308.48 27.3399C308.511 27.2969 308.539 27.2523 308.571 27.2095C308.626 27.1332 308.685 27.0592 308.748 26.9883C308.775 26.9569 308.803 26.926 308.832 26.8957C308.839 26.8881 308.847 26.8806 308.854 26.873C308.926 26.8022 308.912 26.8133 308.814 26.9064C308.83 26.8558 308.964 26.7801 309.008 26.7477C309.077 26.6958 309.222 26.6426 309.272 26.5744C309.259 26.592 309.066 26.6694 309.224 26.6004C309.264 26.5829 309.303 26.564 309.343 26.5472C309.417 26.516 309.493 26.4885 309.57 26.4643C309.608 26.4523 309.647 26.4426 309.685 26.4308C309.844 26.3815 309.633 26.4515 309.617 26.4438C309.663 26.465 309.853 26.4053 309.91 26.3992C310.08 26.3813 310.248 26.3865 310.418 26.3809C310.551 26.3767 310.186 26.3615 310.391 26.3795C310.432 26.383 310.472 26.3854 310.513 26.3891C310.615 26.3981 310.717 26.4098 310.819 26.4233C311.544 26.5193 312.254 26.7097 312.981 26.7919C313.795 26.8839 314.653 26.8643 315.406 26.5044C316.196 26.1269 316.797 25.5143 317.375 24.8706C317.498 24.7327 317.621 24.5943 317.747 24.4585C317.806 24.3955 317.865 24.3327 317.924 24.271C317.954 24.2405 317.984 24.21 318.014 24.1799C318.103 24.091 318.132 24.0866 318.021 24.1682C318.161 24.0648 318.284 23.9382 318.427 23.8371C318.501 23.7848 318.578 23.7386 318.655 23.6908C318.772 23.618 318.633 23.7414 318.594 23.7224C318.611 23.7307 318.713 23.669 318.73 23.6618C318.742 23.657 318.986 23.5797 318.987 23.5751C318.986 23.5858 318.746 23.6132 318.924 23.5891C318.966 23.5836 319.006 23.576 319.048 23.5714C319.12 23.5633 319.249 23.5343 319.316 23.5592C319.175 23.5075 319.199 23.5476 319.276 23.5616C319.341 23.5736 319.407 23.5801 319.472 23.5938C319.515 23.6028 319.558 23.6145 319.601 23.6246C319.772 23.6647 319.581 23.612 319.567 23.6128C319.638 23.6087 319.782 23.6983 319.846 23.7292C319.923 23.7656 320.059 23.8127 320.117 23.8737C320.101 23.8574 319.949 23.7595 320.091 23.858C320.139 23.8907 320.186 23.923 320.233 23.957C320.391 24.0723 320.542 24.198 320.685 24.331C320.755 24.3955 320.822 24.4618 320.889 24.5295C320.926 24.5673 320.963 24.6058 321 24.644C320.86 24.499 321.024 24.6706 321.053 24.703C321.401 25.0868 321.737 25.4816 322.103 25.8486C322.839 26.5858 323.897 27.2982 324.978 26.8869C325.488 26.693 325.828 26.2935 326.097 25.8377C326.188 25.684 326.265 25.523 326.342 25.3621C326.378 25.285 326.415 25.2078 326.453 25.1315C326.477 25.084 326.501 25.0369 326.526 24.9901C326.543 24.9594 326.607 24.7972 326.557 24.9277C326.513 25.0433 326.554 24.9334 326.579 24.8981C326.61 24.855 326.642 24.8135 326.677 24.7734C326.693 24.7543 326.758 24.6976 326.761 24.681C326.757 24.7019 326.591 24.8185 326.724 24.7178C326.79 24.6675 326.854 24.6158 326.925 24.571C326.917 24.576 327.029 24.5043 327.032 24.5073C326.914 24.5683 326.887 24.5832 326.952 24.5522C326.98 24.5387 327.009 24.5261 327.038 24.5141C327.116 24.4818 327.197 24.4589 327.276 24.4308C327.427 24.3772 327.249 24.4369 327.219 24.4384C327.259 24.4363 327.305 24.4217 327.345 24.4155C327.44 24.4007 327.536 24.3914 327.632 24.3872C327.675 24.3853 327.718 24.3872 327.76 24.3848C327.829 24.3857 327.803 24.3837 327.682 24.3789C327.714 24.3809 327.746 24.3837 327.779 24.3872C327.864 24.3959 327.949 24.4088 328.034 24.4258C328.086 24.4365 328.138 24.4508 328.19 24.4624C328.3 24.4868 328.226 24.4345 328.149 24.448C328.205 24.4382 328.335 24.521 328.386 24.5454C328.427 24.5648 328.468 24.5855 328.508 24.6071C328.563 24.637 328.736 24.6893 328.553 24.6298C328.711 24.6813 328.872 24.882 328.994 24.9907C329.166 25.1427 328.913 24.887 329.003 24.9971C329.034 25.0341 329.066 25.0694 329.096 25.1065C329.172 25.1997 329.244 25.2961 329.311 25.3959C329.365 25.4761 329.416 25.5581 329.464 25.642C329.497 25.6986 329.596 25.8107 329.469 25.647C329.494 25.6797 329.516 25.7436 329.532 25.7784C329.624 25.9768 329.702 26.1817 329.767 26.3907C329.88 26.7549 329.941 27.1335 330.107 27.4802C330.363 28.0171 330.755 28.4488 331.356 28.5868C331.965 28.7267 332.504 28.4501 333.012 28.1529C333.025 28.1455 333.23 28.0108 333.09 28.1038C332.976 28.1794 333.091 28.104 333.126 28.0875C333.214 28.0461 333.304 28.0086 333.396 27.9757C333.477 27.9465 333.56 27.9229 333.642 27.8983C333.712 27.8776 333.78 27.8976 333.589 27.9072C333.65 27.9042 333.719 27.8824 333.78 27.8736C333.951 27.8484 334.124 27.8364 334.297 27.837C334.335 27.8372 334.387 27.8329 334.426 27.8397C334.208 27.8019 334.353 27.8381 334.414 27.8444C334.511 27.8542 334.608 27.8676 334.705 27.8848C334.801 27.9022 334.897 27.9233 334.991 27.948C335.033 27.9589 335.075 27.9717 335.117 27.9831C335.249 28.019 334.911 27.9011 335.109 27.9833C335.29 28.0587 335.47 28.1302 335.643 28.2252C335.664 28.2366 335.741 28.2915 335.756 28.2899C335.74 28.2915 335.577 28.1683 335.72 28.2684C335.791 28.3179 335.862 28.3675 335.93 28.4209C336.006 28.4809 336.08 28.5439 336.151 28.6103C336.183 28.6396 336.212 28.6711 336.244 28.7003C336.327 28.7773 336.127 28.5565 336.234 28.691C336.839 29.4477 337.52 30.1799 338.006 31.0211C337.898 30.8342 338.058 31.1384 338.081 31.1929C338.123 31.2908 338.161 31.3902 338.196 31.4911C338.235 31.6072 338.268 31.7245 338.299 31.8429C338.289 31.8056 338.268 31.6643 338.298 31.8463C338.312 31.9311 338.327 32.0157 338.337 32.1011C338.398 32.58 338.409 33.0669 338.4 33.5492C338.399 33.6059 338.398 33.6628 338.396 33.7195C338.396 33.707 338.385 33.986 338.391 33.8555C338.396 33.7472 338.387 33.9252 338.386 33.9488C338.383 34.0056 338.379 34.0625 338.375 34.1192C338.356 34.3892 338.332 34.6589 338.304 34.9282C338.254 35.4161 338.194 35.9032 338.134 36.3901C338.005 37.4518 337.877 38.5134 337.748 39.5751C337.623 40.5984 337.528 41.6304 337.367 42.6485C337.332 42.8654 337.29 43.0813 337.232 43.2932C337.225 43.32 337.173 43.4735 337.212 43.3649C337.259 43.2354 337.169 43.4709 337.17 43.4693C337.127 43.5757 337.067 43.6751 337.024 43.7808C336.974 43.9054 337.152 43.6175 337.017 43.7963C336.987 43.8351 336.96 43.8749 336.93 43.9131C336.875 43.9826 336.808 44.0787 336.734 44.1289C336.915 44.0066 336.679 44.1598 336.63 44.1929C336.603 44.2106 336.543 44.2579 336.508 44.2679C336.732 44.2058 336.527 44.25 336.47 44.2701C336.443 44.2797 336.37 44.3119 336.336 44.3111C336.549 44.3158 336.417 44.2952 336.369 44.2943C336.34 44.2938 336.118 44.2799 336.297 44.3049C336.446 44.3257 336.33 44.3073 336.294 44.3013C336.234 44.2915 336.14 44.2564 336.081 44.2598C336.094 44.259 336.301 44.3427 336.171 44.2873C336.134 44.2718 336.097 44.2583 336.06 44.242C335.994 44.2125 335.932 44.1772 335.868 44.1428C335.738 44.0724 336.053 44.2714 335.862 44.1345C335.738 44.0456 335.621 43.9471 335.508 43.8449C335.058 43.4382 334.67 42.9545 334.165 42.6114C333.415 42.101 332.496 41.871 331.632 42.2664C330.653 42.7141 330.062 43.6007 329.666 44.568C329.491 44.9954 329.338 45.4331 329.12 45.8416C329.096 45.888 329.067 45.9327 329.044 45.9797C328.982 46.1035 329.125 45.8677 329.047 45.9762C328.982 46.0672 328.919 46.1596 328.849 46.2476C328.787 46.325 328.723 46.4002 328.655 46.473C328.622 46.5094 328.587 46.5453 328.553 46.5806C328.527 46.6066 328.344 46.7611 328.512 46.6225C328.18 46.8962 327.845 47.15 327.476 47.372C327.302 47.4764 327.125 47.5789 326.944 47.6711C327.143 47.5697 326.88 47.7029 326.825 47.7302C326.713 47.787 326.599 47.8426 326.486 47.898C326.053 48.1094 325.731 48.5904 325.937 49.0836C326.114 49.5058 326.658 49.8587 327.123 49.6316Z" fill="white"/>
<path d="M332.584 72.8708C334.825 71.7784 337.094 70.6145 338.954 68.9293C339.9 68.0732 340.713 67.1279 341.372 66.0338C342.041 64.9219 342.493 63.7005 342.971 62.4991C343.78 60.4656 344.922 57.8734 347.294 57.3111C347.783 57.1952 348.104 57.2119 348.509 57.2826C348.94 57.358 349.05 57.3998 349.464 57.5986C349.896 57.8059 350.008 57.885 350.384 58.1679C350.713 58.4155 351.024 58.6853 351.327 58.9645C352.61 60.15 353.733 61.514 355.231 62.4438C357.042 63.5671 359.214 63.5711 360.991 62.3466C363.168 60.8472 363.992 58.2531 364.362 55.7586C364.791 52.8701 365.08 49.9557 365.432 47.0571C365.794 44.0744 366.157 41.0919 366.519 38.1092C366.854 35.3417 367.177 32.5645 367.18 29.7727C367.182 28.3813 367.135 26.957 366.86 25.5895C366.586 24.2246 366.104 22.9542 365.426 21.7395C364.756 20.5396 363.885 19.4993 363.013 18.4447C362.15 17.4011 361.372 16.2653 360.457 15.2681C357.483 12.0284 352.349 10.7299 348.288 12.6163C347.734 12.8737 347.223 13.2011 346.689 13.4959C346.276 13.7239 345.766 13.9807 345.283 13.8466C345.009 13.7708 344.81 13.5838 344.593 13.2566C344.383 12.9391 344.209 12.4768 344.072 12.0394C343.739 10.9764 343.527 9.89418 343.096 8.86073C342.63 7.7443 342.024 6.66539 341.253 5.73042C339.774 3.93846 337.715 2.60529 335.359 2.41645C333.121 2.23685 330.779 2.92126 329.279 4.66352C328.566 5.49188 328.144 6.52016 327.666 7.49024C327.456 7.91615 327.256 8.31046 326.972 8.6765C326.717 9.00448 326.452 9.25116 326.108 9.38383C325.162 9.74969 324.129 9.16025 323.38 8.61146C322.349 7.85517 321.46 6.93129 320.609 5.98172C318.951 4.12951 317.336 2.21744 315.094 1.0491C313.022 -0.0307397 310.622 -0.18022 308.528 0.91754C306.633 1.91035 305.237 3.57962 303.828 5.14413C302.478 6.64156 301.035 8.15433 299.086 8.74931C297.334 9.28424 295.348 9.01724 293.497 8.68297C291.449 8.31305 289.416 7.82616 287.324 7.80121C285.248 7.77627 283.157 8.37015 281.559 9.73528C279.842 11.202 278.815 13.2196 278.168 15.3512C277.494 17.5746 277.311 19.8945 277.269 22.2066C277.219 24.9997 277.401 27.7935 277.746 30.5646C278.441 36.1508 279.739 41.6826 281.29 47.089C282.866 52.5826 284.895 57.9851 287.885 62.8777C290.386 66.9727 293.623 70.6695 297.541 73.4643C301.368 76.194 305.824 78.0589 310.534 78.4473C315.724 78.8755 320.874 77.6951 325.709 75.8771C328.052 74.9961 330.334 73.9645 332.584 72.8708C333.033 72.6527 333.318 72.1877 333.133 71.6852C332.975 71.2527 332.399 70.9166 331.948 71.1361C327.469 73.3128 322.793 75.3172 317.868 76.211C313.196 77.0589 308.426 76.7997 304.01 74.9774C299.928 73.293 296.314 70.5417 293.391 67.2493C289.935 63.357 287.426 58.7379 285.525 53.9149C283.5 48.7757 282.057 43.383 280.896 37.9877C279.755 32.6792 278.993 27.2573 279.116 21.8165C279.203 17.9867 279.851 13.0711 283.276 10.7473C284.812 9.70571 286.666 9.52537 288.475 9.70313C290.462 9.89825 292.398 10.416 294.371 10.6989C296.361 10.9842 298.461 11.0363 300.353 10.2588C302.354 9.4365 303.873 7.85296 305.293 6.27497C306.552 4.87602 307.895 3.2097 309.574 2.4486C311.43 1.60694 313.431 2.05577 315.116 3.19917C317.142 4.57483 318.59 6.58058 320.276 8.32063C321.853 9.94777 324.239 12.023 326.692 11.1376C328.789 10.3801 329.248 8.02276 330.316 6.35478C331.35 4.7389 333.342 4.05395 335.212 4.25203C337.336 4.47709 339.07 5.76812 340.267 7.49116C340.897 8.39694 341.366 9.39271 341.713 10.4382C342.041 11.4277 342.199 12.4722 342.614 13.433C343.034 14.4062 343.691 15.2815 344.741 15.6029C346.075 16.011 347.26 15.293 348.373 14.6435C350.06 13.6596 352.083 13.3988 354.017 13.7507C355.919 14.0966 357.772 15.0317 359.073 16.4758C359.976 17.4776 360.753 18.6086 361.615 19.6476C362.453 20.6578 363.279 21.6639 363.922 22.8143C365.232 25.158 365.376 27.849 365.333 30.4761C365.288 33.1739 364.933 35.857 364.608 38.5316C364.256 41.4339 363.904 44.336 363.551 47.2383C363.211 50.0384 362.946 52.8604 362.51 55.6472C362.179 57.7634 361.449 60.2947 359.27 61.2034C359.046 61.2973 358.812 61.3769 358.572 61.417C358.443 61.4386 358.311 61.4506 358.18 61.4571C358.129 61.4595 357.814 61.4541 357.944 61.4626C357.765 61.451 357.586 61.4238 357.411 61.3869C357.31 61.3656 357.209 61.3405 357.11 61.3115C357.009 61.2817 357.108 61.3102 357.125 61.3161C357.07 61.2971 357.014 61.2766 356.96 61.2553C356.203 60.9612 355.769 60.6304 355.134 60.0813C353.866 58.9855 352.809 57.65 351.448 56.6599C349.85 55.4968 347.866 54.972 345.984 55.8149C343.626 56.8704 342.328 59.157 341.403 61.4493C340.937 62.6042 340.515 63.7825 339.914 64.8766C339.37 65.8663 338.623 66.7705 337.777 67.5176C336.05 69.0426 334.007 70.132 331.948 71.1359C331.499 71.3545 331.214 71.8187 331.399 72.3214C331.557 72.7536 332.133 73.0908 332.584 72.8708Z" fill="white"/>
<path d="M338.046 96.1103C341.656 94.3501 345.304 92.4682 348.301 89.7519C349.763 88.4273 351.036 86.9491 352.056 85.2569C353.148 83.4431 353.885 81.4492 354.665 79.4891C356.058 75.9881 358.019 71.7375 362.048 70.7212C364.833 70.0185 367.261 71.7253 369.2 73.5173C371.252 75.4131 373.052 77.6239 375.445 79.1151C378.221 80.845 381.52 80.8985 384.259 79.0112C387.685 76.6511 388.942 72.5535 389.524 68.6332C390.224 63.9201 390.696 59.1645 391.27 54.4348C391.861 49.568 392.453 44.7013 393.043 39.8345C393.585 35.369 394.109 30.8874 394.115 26.3825C394.12 21.8819 393.584 17.5487 391.36 13.5658C390.266 11.6079 388.845 9.91041 387.422 8.18977C386.014 6.48705 384.746 4.6317 383.251 3.00621C378.561 -2.094 370.448 -4.07443 364.072 -1.11228C363.216 -0.714637 362.422 -0.210929 361.601 0.24972C360.795 0.701869 359.809 1.17471 358.863 0.921747C357.433 0.539443 356.838 -1.13981 356.443 -2.40054C355.9 -4.13504 355.554 -5.90114 354.85 -7.58723C354.109 -9.3633 353.142 -11.0695 351.915 -12.5564C349.594 -15.371 346.364 -17.4327 342.671 -17.7289C339.234 -18.0048 335.605 -16.9395 333.303 -14.2654C332.172 -12.9515 331.508 -11.3181 330.75 -9.77942C330.106 -8.47213 329.324 -6.94512 327.88 -6.38691C326.127 -5.70952 324.247 -6.72431 322.855 -7.74521C321.132 -9.00908 319.652 -10.5603 318.231 -12.1468C315.596 -15.0892 313.024 -18.1491 309.461 -20.0052C306.236 -21.6855 302.531 -21.9411 299.263 -20.2382C293.235 -17.0975 290.495 -9.4701 283.787 -7.4224C280.732 -6.48983 277.443 -6.94771 274.363 -7.50407C271.075 -8.09795 267.801 -8.89544 264.443 -8.93572C261.146 -8.97527 257.864 -8.0549 255.326 -5.88672C252.651 -3.60177 251.036 -0.415664 250.029 2.90496C248.944 6.48427 248.636 10.2173 248.569 13.94C248.488 18.4975 248.784 23.0564 249.347 27.578C250.475 36.6423 252.58 45.6161 255.096 54.3886C257.652 63.3004 260.934 72.0754 265.784 80.0129C269.843 86.6569 275.081 92.642 281.438 97.1765C287.604 101.575 294.783 104.557 302.37 105.183C310.731 105.873 319.04 103.944 326.827 101.016C330.649 99.5784 334.374 97.8949 338.046 96.1103C339.105 95.5955 338.479 93.8555 337.409 94.3756C330.049 97.9527 322.375 101.222 314.282 102.69C306.56 104.092 298.672 103.636 291.376 100.625C284.619 97.8369 278.656 93.2729 273.819 87.8249C268.148 81.4374 264.03 73.843 260.911 65.9285C257.586 57.4932 255.229 48.642 253.325 39.787C251.462 31.125 250.219 22.2781 250.419 13.4003C250.5 9.82356 250.858 6.19529 251.992 2.78264C253.02 -0.312741 254.697 -3.3174 257.45 -5.18475C262.977 -8.93332 270.026 -6.21987 275.997 -5.36343C279.144 -4.91202 282.46 -4.82481 285.453 -6.05487C288.618 -7.35533 291.02 -9.88455 293.265 -12.3792C295.386 -14.7353 297.542 -17.4582 300.499 -18.7991C303.767 -20.2812 307.24 -19.4281 310.114 -17.4768C313.422 -15.2316 315.783 -11.96 318.535 -9.11995C320.937 -6.64117 324.658 -3.25919 328.43 -4.62137C331.7 -5.80228 332.396 -9.64287 334.095 -12.2493C335.917 -15.0445 339.412 -16.225 342.637 -15.8833C346.245 -15.5012 349.226 -13.2887 351.258 -10.3628C352.313 -8.84426 353.108 -7.16815 353.689 -5.41555C354.225 -3.80096 354.483 -2.09676 355.16 -0.528747C355.77 0.885904 356.724 2.1956 358.257 2.66068C360.236 3.26102 362.025 2.13203 363.67 1.17249C366.579 -0.524318 370.029 -0.98311 373.322 -0.384063C376.576 0.207962 379.725 1.81773 381.944 4.29762C383.413 5.93844 384.684 7.77697 386.091 9.47322C387.459 11.1211 388.809 12.7628 389.856 14.6405C392.047 18.5703 392.338 23.0235 392.265 27.4335C392.191 31.8865 391.612 36.3139 391.076 40.7292C390.501 45.4648 389.926 50.2005 389.35 54.9361C388.796 59.5051 388.364 64.1095 387.652 68.6571C387.076 72.3362 385.756 76.5986 381.992 78.1683C379.261 79.307 376.737 78.0267 374.669 76.2394C372.6 74.4515 370.875 72.272 368.656 70.6569C366.206 68.8744 363.192 68.0859 360.311 69.3759C356.616 71.0303 354.612 74.6851 353.166 78.267C352.406 80.1513 351.717 82.0739 350.736 83.8594C349.795 85.5708 348.517 87.1032 347.059 88.3983C344.212 90.9269 340.809 92.7172 337.409 94.3754C336.351 94.8917 336.976 96.6319 338.046 96.1103Z" fill="white"/>
<path d="M343.505 119.35C348.485 116.922 353.512 114.322 357.646 110.574C359.625 108.781 361.357 106.77 362.738 104.48C364.254 101.964 365.275 99.198 366.357 96.479C368.329 91.5221 371.117 85.5856 376.8 84.1311C380.795 83.1085 384.28 85.4899 387.072 88.0696C389.893 90.6759 392.37 93.7328 395.657 95.786C399.399 98.1229 403.824 98.2253 407.525 95.6756C412.2 92.4547 413.891 86.8534 414.685 81.5078C415.655 74.9702 416.31 68.3731 417.106 61.8122C417.926 55.0612 418.747 48.3104 419.566 41.5594C420.313 35.3958 421.041 29.21 421.048 22.9921C421.055 16.8198 420.345 10.857 417.292 5.39207C415.775 2.67622 413.803 0.32143 411.829 -2.06533C409.876 -4.42734 408.118 -7.00109 406.044 -9.25574C399.64 -16.2181 388.543 -18.878 379.854 -14.841C377.646 -13.8157 375.047 -11.3426 372.442 -12.0032C370.312 -12.5437 369.401 -14.9633 368.813 -16.8407C368.059 -19.2466 367.579 -21.6966 366.603 -24.0353C365.587 -26.4712 364.259 -28.8046 362.577 -30.8436C359.412 -34.6807 355.012 -37.471 349.981 -37.8747C345.344 -38.2467 340.43 -36.801 337.326 -33.1947C335.776 -31.3952 334.871 -29.1566 333.832 -27.0492C332.894 -25.1438 331.75 -22.9699 329.65 -22.158C327.093 -21.1692 324.365 -22.609 322.33 -24.102C319.915 -25.8733 317.844 -28.052 315.852 -30.2756C312.24 -34.3084 308.711 -38.5159 303.828 -41.0599C299.448 -43.3414 294.439 -43.7015 289.996 -41.3942C281.604 -37.0364 277.838 -26.4492 268.486 -23.5944C264.184 -22.2812 259.566 -22.9078 255.228 -23.6914C250.7 -24.5094 246.185 -25.6176 241.56 -25.673C237.043 -25.7271 232.57 -24.4803 229.092 -21.509C225.459 -18.4057 223.256 -14.0509 221.888 -9.54159C220.392 -4.60639 219.96 0.53983 219.868 5.67293C219.755 11.9949 220.166 18.3187 220.946 24.5909C222.507 37.1332 225.419 49.549 228.9 61.6875C232.437 74.0175 236.972 86.1651 243.681 97.1473C249.298 106.341 256.536 114.614 265.332 120.888C273.838 126.956 283.74 131.055 294.204 131.918C305.737 132.869 317.204 130.192 327.943 126.154C333.245 124.161 338.412 121.825 343.505 119.35C344.564 118.835 343.939 117.095 342.868 117.615C332.628 122.593 321.955 127.126 310.695 129.17C299.922 131.125 288.916 130.472 278.74 126.273C269.309 122.381 260.996 116.004 254.246 108.401C246.359 99.5178 240.633 88.9482 236.295 77.942C231.672 66.2107 228.4 53.901 225.751 41.5862C223.167 29.5709 221.443 17.2987 221.721 4.9839C221.926 -4.07941 223.458 -15.5786 231.622 -21.1169C239.395 -26.3888 249.219 -22.631 257.621 -21.4259C261.926 -20.8084 266.457 -20.6859 270.552 -22.3688C274.88 -24.1473 278.165 -27.6222 281.236 -31.0336C284.225 -34.3546 287.255 -38.1576 291.422 -40.0472C296.074 -42.1568 301.025 -40.9267 305.111 -38.1528C309.7 -35.038 312.974 -30.5005 316.792 -26.5605C320.018 -23.2321 325.078 -18.5424 330.168 -20.3802C334.601 -21.9811 335.56 -27.3227 337.872 -30.8534C340.48 -34.835 345.462 -36.5059 350.061 -36.0187C355.152 -35.4793 359.38 -32.3457 362.247 -28.2168C363.728 -26.0858 364.849 -23.7293 365.665 -21.2694C366.408 -19.0295 366.765 -16.6657 367.704 -14.4905C368.504 -12.6368 369.756 -10.8866 371.772 -10.2813C374.398 -9.49282 376.786 -11.0272 378.966 -12.2985C383.085 -14.7019 387.958 -15.3678 392.625 -14.5187C397.231 -13.6808 401.68 -11.3953 404.813 -7.88027C406.847 -5.59957 408.613 -3.05445 410.566 -0.701126C412.464 1.58475 414.336 3.86175 415.789 6.46674C418.863 11.9809 419.298 18.1997 419.196 24.3912C419.093 30.5995 418.289 36.7713 417.541 42.9269C416.744 49.4959 415.946 56.0649 415.148 62.6339C414.379 68.9718 413.78 75.359 412.792 81.6669C411.971 86.9079 410.06 92.9026 404.712 95.133C400.807 96.7615 397.166 94.9573 394.203 92.3976C388.749 87.6847 382.997 79.1936 374.638 82.9367C369.606 85.1897 366.893 90.2134 364.928 95.0845C363.873 97.6985 362.917 100.365 361.557 102.842C360.22 105.274 358.41 107.438 356.34 109.279C352.37 112.808 347.613 115.301 342.869 117.615C341.81 118.131 342.435 119.871 343.505 119.35Z" fill="white"/>
<path d="M348.965 142.59C355.315 139.493 361.721 136.175 366.992 131.397C369.487 129.136 371.68 126.592 373.42 123.703C375.36 120.485 376.666 116.947 378.05 113.469C380.6 107.059 384.216 99.4314 391.552 97.5415C396.758 96.2006 401.3 99.2546 404.945 102.623C408.535 105.939 411.689 109.841 415.871 112.457C420.577 115.402 426.131 115.552 430.792 112.34C436.716 108.259 438.841 101.153 439.846 94.3824C441.087 86.0201 441.925 77.5819 442.944 69.1899C443.992 60.5547 445.042 51.9197 446.089 43.2845C447.043 35.4228 447.973 27.5329 447.982 19.6021C447.991 11.7581 447.106 4.1658 443.225 -2.78145C441.284 -6.25525 438.763 -9.2673 436.238 -12.3204C433.74 -15.3413 431.491 -18.6349 428.838 -21.5175C420.716 -30.3394 406.643 -33.6828 395.636 -28.5695C392.741 -27.2243 389.439 -24.0775 386.022 -24.9277C383.192 -25.6317 381.965 -28.7836 381.183 -31.2803C380.219 -34.3578 379.605 -37.4914 378.357 -40.483C377.065 -43.5785 375.376 -46.5392 373.239 -49.1301C369.23 -53.99 363.661 -57.5087 357.292 -58.0198C351.456 -58.488 345.256 -56.6617 341.349 -52.1232C339.381 -49.838 338.234 -46.9943 336.916 -44.3184C335.683 -41.815 334.177 -38.9938 331.421 -37.9282C328.059 -36.6285 324.483 -38.4931 321.804 -40.458C318.697 -42.7369 316.035 -45.5431 313.473 -48.4034C308.885 -53.5265 304.398 -58.8816 298.194 -62.1137C292.663 -64.9951 286.346 -65.4628 280.73 -62.5492C269.978 -56.9702 265.181 -43.4266 253.186 -39.7653C247.637 -38.0714 241.691 -38.8665 236.094 -39.8774C230.325 -40.9196 224.57 -42.3383 218.677 -42.4089C212.94 -42.4776 207.276 -40.9044 202.858 -37.13C198.267 -33.2083 195.476 -27.6848 193.748 -21.9868C191.84 -15.6957 191.284 -9.13611 191.167 -2.59261C191.023 5.49378 191.548 13.5826 192.546 21.6054C194.54 37.6257 198.258 53.4833 202.705 68.9879C207.223 84.7361 213.009 100.256 221.579 114.283C228.754 126.026 237.993 136.587 249.227 144.601C260.073 152.337 272.698 157.554 286.038 158.655C300.743 159.868 315.369 156.441 329.059 151.294C335.842 148.743 342.451 145.756 348.965 142.59C350.025 142.075 349.399 140.335 348.329 140.855C335.207 147.233 321.535 153.031 307.108 155.649C293.285 158.158 279.16 157.309 266.105 151.921C253.999 146.925 243.337 138.735 234.673 128.976C224.572 117.598 217.236 104.054 211.68 89.9559C205.758 74.9285 201.571 59.1602 198.179 43.3856C194.873 28.0168 192.667 12.3196 193.023 -3.43242C193.288 -15.1183 195.271 -29.9097 205.796 -37.0489C215.813 -43.8441 228.413 -39.0417 239.245 -37.4881C244.709 -36.7045 250.455 -36.5468 255.651 -38.6823C261.143 -40.939 265.312 -45.3596 269.207 -49.6874C273.064 -53.9733 276.97 -58.8564 282.346 -61.2944C288.382 -64.0317 294.811 -62.4248 300.109 -58.8282C305.979 -54.8438 310.166 -49.0402 315.05 -44.0004C319.098 -39.8231 325.5 -33.8253 331.905 -36.1385C337.502 -38.1592 338.726 -45.0026 341.651 -49.4567C345.045 -54.6245 351.513 -56.7858 357.485 -56.1533C364.061 -55.4567 369.534 -51.402 373.237 -46.0702C375.143 -43.3265 376.59 -40.2897 377.641 -37.1226C378.591 -34.2576 379.048 -31.2341 380.249 -28.4518C381.239 -26.1572 382.788 -23.9709 385.287 -23.2229C388.557 -22.2438 391.55 -24.1875 394.261 -25.769C399.592 -28.8788 405.887 -29.752 411.929 -28.6528C417.89 -27.5682 423.629 -24.6056 427.683 -20.0577C430.284 -17.1403 432.543 -13.8851 435.042 -10.8749C437.468 -7.95114 439.864 -5.03849 441.721 -1.7066C445.678 5.39124 446.258 13.3767 446.126 21.3493C445.994 29.313 444.966 37.2288 444.007 45.1251C442.987 53.5275 441.967 61.93 440.946 70.3324C439.962 78.4391 439.196 86.609 437.932 94.6773C436.867 101.48 434.364 109.208 427.432 112.098C422.353 114.217 417.594 111.889 413.737 108.556C406.842 102.599 399.538 91.7635 388.964 96.4979C382.595 99.3496 379.175 105.742 376.689 111.902C375.34 115.246 374.118 118.657 372.377 121.825C370.645 124.978 368.304 127.773 365.62 130.16C360.526 134.69 354.416 137.886 348.328 140.855C347.27 141.371 347.896 143.111 348.965 142.59Z" fill="white"/>
<path d="M354.426 165.828C362.146 162.064 369.93 158.028 376.339 152.219C379.351 149.49 382.003 146.412 384.104 142.926C386.467 139.005 388.058 134.695 389.744 130.459C392.872 122.595 397.316 113.275 406.306 110.951C412.722 109.293 418.321 113.018 422.819 117.174C427.179 121.203 431.011 125.944 436.085 129.128C441.752 132.684 448.442 132.875 454.06 129.004C461.232 124.062 463.792 115.452 465.008 107.256C466.52 97.069 467.541 86.7897 468.782 76.5665C470.059 66.0472 471.338 55.528 472.614 45.0087C473.774 35.4489 474.907 25.8547 474.917 16.2108C474.928 6.69535 473.868 -2.52667 469.159 -10.956C466.795 -15.1878 463.724 -18.8569 460.648 -22.5763C457.604 -26.2563 454.866 -30.27 451.633 -33.7802C441.792 -44.4614 424.744 -48.4888 411.42 -42.299C407.84 -40.6353 403.831 -36.8117 399.604 -37.8534C396.075 -38.723 394.532 -42.6044 393.555 -45.7212C392.38 -49.4702 391.632 -53.2877 390.112 -56.932C388.545 -60.6872 386.495 -64.2751 383.902 -67.4183C379.05 -73.3007 372.312 -77.5479 364.604 -78.1664C357.569 -78.7309 350.083 -76.5237 345.374 -71.0532C342.988 -68.2823 341.599 -64.8336 340.001 -61.5891C338.473 -58.4878 336.606 -55.0194 333.193 -53.7003C329.027 -52.0896 324.603 -54.3791 321.281 -56.8158C317.482 -59.6021 314.229 -63.0358 311.096 -66.5332C305.531 -72.7465 300.087 -79.2494 292.563 -83.1694C285.88 -86.6512 278.254 -87.2262 271.466 -83.7064C258.353 -76.9066 252.525 -60.4064 237.888 -55.9385C231.092 -53.864 223.817 -54.8276 216.961 -56.066C209.952 -57.332 202.956 -59.0614 195.797 -59.1473C188.839 -59.2306 181.985 -57.3311 176.626 -52.7535C171.078 -48.0134 167.698 -41.3211 165.61 -34.4345C163.291 -26.7875 162.611 -18.8148 162.468 -10.8607C162.292 -1.00984 162.932 8.84394 164.148 18.6172C166.574 38.1156 171.099 57.4148 176.512 76.2859C182.01 95.4522 189.049 114.345 199.479 131.417C208.211 145.708 219.451 158.558 233.124 168.312C246.309 177.717 261.657 184.051 277.874 185.389C295.75 186.863 313.535 182.688 330.178 176.431C338.44 173.325 346.49 169.686 354.426 165.828C355.486 165.314 354.86 163.573 353.79 164.094C337.787 171.872 321.117 178.935 303.522 182.128C286.649 185.19 269.406 184.144 253.47 177.568C238.689 171.469 225.678 161.466 215.101 149.552C202.784 135.678 193.84 119.158 187.066 101.969C179.844 83.6453 174.743 64.4186 170.606 45.1842C166.58 26.4619 163.893 7.33967 164.326 -11.8494C164.65 -26.1578 167.084 -44.2414 179.969 -52.9817C192.232 -61.3 207.608 -55.4532 220.87 -53.5511C227.492 -52.6014 234.453 -52.4087 240.751 -54.9967C247.406 -57.7315 252.458 -63.0978 257.178 -68.3422C261.904 -73.593 266.686 -79.5563 273.271 -82.5426C280.691 -85.9074 288.597 -83.9239 295.108 -79.5045C302.258 -74.6508 307.359 -67.5809 313.309 -61.4415C318.179 -56.4157 325.922 -49.1097 333.644 -51.8978C340.403 -54.3381 341.893 -62.6837 345.43 -68.0611C349.609 -74.4156 357.564 -77.0672 364.91 -76.2891C372.969 -75.4354 379.689 -70.4593 384.228 -63.9245C386.56 -60.5681 388.332 -56.8511 389.618 -52.9767C390.776 -49.4866 391.332 -45.8033 392.795 -42.4139C393.976 -39.6785 395.821 -37.0563 398.803 -36.1653C402.718 -34.9955 406.316 -37.3486 409.558 -39.2402C416.1 -43.0566 423.817 -44.1371 431.234 -42.7877C438.55 -41.4566 445.58 -37.817 450.554 -32.236C453.722 -28.6817 456.475 -24.7165 459.518 -21.0494C462.474 -17.4877 465.393 -13.9394 467.656 -9.88061C472.496 -1.19923 473.22 8.55329 473.058 18.3067C472.897 28.0256 471.645 37.686 470.475 47.3226C469.232 57.5585 467.989 67.7942 466.746 78.0301C465.547 87.9057 464.613 97.8582 463.074 107.687C461.764 116.051 458.669 125.512 450.154 129.063C443.901 131.671 438.023 128.819 433.273 124.715C424.938 117.513 416.08 104.333 403.292 110.059C395.587 113.509 391.458 121.271 388.453 128.72C386.809 132.793 385.32 136.949 383.2 140.808C381.071 144.682 378.2 148.108 374.903 151.041C368.684 156.571 361.222 160.471 353.79 164.094C352.731 164.61 353.357 166.35 354.426 165.828Z" fill="white"/>
<path d="M359.887 189.068C368.977 184.636 378.139 179.881 385.685 173.042C389.214 169.844 392.326 166.234 394.788 162.149C397.573 157.526 399.45 152.445 401.438 147.449C405.144 138.133 410.416 127.118 421.06 124.361C428.686 122.385 435.341 126.782 440.693 131.727C445.822 136.466 450.332 142.049 456.299 145.799C462.929 149.965 470.75 150.2 477.328 145.668C485.749 139.866 488.743 129.752 490.171 120.131C491.953 108.119 493.157 95.9986 494.62 83.9443C496.126 71.5408 497.634 59.1374 499.139 46.7339C500.504 35.4762 501.84 24.1776 501.853 12.8207C501.865 1.63356 500.63 -9.21802 495.093 -19.1296C492.306 -24.1194 488.684 -28.4457 485.057 -32.8312C481.469 -37.1701 478.241 -41.9043 474.427 -46.042C462.868 -58.5823 442.845 -63.2941 427.204 -56.0276C422.938 -54.0458 418.221 -49.5447 413.184 -50.7782C408.957 -51.8133 407.097 -56.4245 405.926 -60.161C404.541 -64.5814 403.659 -69.0828 401.866 -73.3798C400.024 -77.7946 397.613 -82.0098 394.565 -85.7049C388.869 -92.61 380.961 -97.5855 371.916 -98.3115C363.681 -98.9723 354.909 -96.3845 349.397 -89.9818C346.594 -86.7253 344.963 -82.6715 343.085 -78.8582C341.262 -75.1592 339.033 -71.0431 334.965 -69.4704C329.994 -67.5486 324.722 -70.2631 320.756 -73.1717C316.265 -76.4655 312.421 -80.5266 308.718 -84.6609C302.177 -91.9646 295.775 -99.6149 286.93 -104.223C279.095 -108.305 270.161 -108.987 262.201 -104.861C246.726 -96.8411 239.868 -77.3839 222.589 -72.1094C214.546 -69.6543 205.942 -70.7864 197.827 -72.2521C189.578 -73.7423 181.341 -75.7822 172.914 -75.8831C164.737 -75.981 156.692 -73.755 150.393 -68.3743C143.886 -62.8159 139.918 -54.9549 137.47 -46.8796C134.74 -37.8767 133.935 -28.4908 133.768 -19.1263C133.56 -7.51124 134.315 4.10753 135.749 15.6315C138.607 38.608 143.939 61.349 150.318 83.5862C156.796 106.171 165.087 128.436 177.378 148.553C187.667 165.394 200.907 180.531 217.02 192.025C232.544 203.099 250.615 210.551 269.709 212.125C290.757 213.862 311.7 208.938 331.295 201.57C341.037 197.907 350.529 193.616 359.887 189.068C360.946 188.553 360.321 186.813 359.251 187.333C340.366 196.512 320.698 204.839 299.936 208.607C280.013 212.223 259.651 210.981 240.836 203.216C223.38 196.013 208.02 184.197 195.528 170.127C180.996 153.759 170.444 134.263 162.451 113.982C153.931 92.3629 147.915 69.6776 143.034 46.9833C138.286 24.9077 135.118 2.3601 135.629 -20.2658C136.012 -37.1969 138.897 -58.5725 154.143 -68.9139C168.651 -78.7553 186.802 -71.8644 202.495 -69.6136C210.275 -68.498 218.451 -68.2699 225.851 -71.3106C233.67 -74.5237 239.605 -80.8357 245.15 -86.9965C250.744 -93.212 256.401 -100.256 264.195 -103.791C272.999 -107.783 282.383 -105.422 290.106 -100.181C298.538 -94.4575 304.551 -86.1216 311.567 -78.8822C317.259 -73.0082 326.345 -64.3935 335.382 -67.6569C343.307 -70.5183 345.052 -80.366 349.208 -86.6654C354.182 -94.2036 363.609 -97.3488 372.334 -96.4246C381.878 -95.4137 389.844 -89.5165 395.218 -81.7788C397.975 -77.8096 400.073 -73.4125 401.594 -68.8307C402.96 -64.7156 403.616 -60.3724 405.34 -56.376C406.711 -53.1999 408.854 -50.1415 412.319 -49.1078C416.879 -47.7475 421.08 -50.5099 424.855 -52.7117C432.608 -57.2347 441.747 -58.5224 450.538 -56.923C459.21 -55.3452 467.53 -51.0286 473.424 -44.4147C477.16 -40.2236 480.405 -35.5484 483.994 -31.2244C487.48 -27.0246 490.921 -22.8409 493.589 -18.055C499.312 -7.79006 500.181 3.72948 499.99 15.2636C499.8 26.7379 498.323 38.1423 496.941 49.5194C495.476 61.5887 494.01 73.6579 492.545 85.7272C491.131 97.3716 490.03 109.107 488.215 120.696C486.661 130.622 482.974 141.815 472.875 146.027C465.448 149.125 458.453 145.749 452.808 140.872C443.034 132.426 432.621 116.902 417.62 123.619C408.578 127.667 403.74 136.799 400.215 145.537C398.277 150.339 396.522 155.239 394.021 159.789C391.497 164.384 388.095 168.442 384.184 171.92C376.842 178.451 368.026 183.054 359.251 187.333C358.192 187.849 358.817 189.59 359.887 189.068Z" fill="white"/>
<path d="M365.347 212.308C375.807 207.208 386.348 201.735 395.031 193.865C399.076 190.199 402.649 186.055 405.471 181.372C408.679 176.048 410.841 170.194 413.131 164.439C417.414 153.671 423.515 140.962 435.812 137.772C444.649 135.479 452.361 140.547 458.565 146.28C464.465 151.731 469.651 158.156 476.512 162.47C484.105 167.246 493.058 167.526 500.595 162.333C510.265 155.67 513.692 144.053 515.332 133.006C517.385 119.169 518.771 105.208 520.457 91.3225C522.192 77.0348 523.929 62.7475 525.662 48.4596C527.234 35.5038 528.771 22.501 528.786 9.43121C528.801 -3.42741 527.39 -15.9089 521.025 -27.3024C517.815 -33.0501 513.643 -38.0337 509.465 -43.0853C505.332 -48.0828 501.617 -53.5402 497.221 -58.303C483.935 -72.697 460.951 -78.1017 442.986 -69.7551C438.036 -67.4554 432.61 -62.2768 426.764 -63.702C421.839 -64.9027 419.661 -70.2435 418.296 -74.6C416.701 -79.6919 415.685 -84.8769 413.619 -89.8267C411.502 -94.9012 408.73 -99.7435 405.227 -103.991C398.687 -111.919 389.61 -117.623 379.226 -118.456C369.792 -119.213 359.735 -116.245 353.42 -108.91C350.199 -105.168 348.327 -100.509 346.168 -96.1269C344.051 -91.8301 341.46 -87.0665 336.735 -85.2402C330.96 -83.0073 324.839 -86.1467 320.23 -89.5272C315.048 -93.3284 310.612 -98.0171 306.339 -102.788C298.821 -111.182 291.462 -119.98 281.296 -125.276C272.309 -129.958 262.068 -130.748 252.935 -126.016C235.099 -116.775 227.21 -94.3608 207.289 -88.2797C197.999 -85.444 188.066 -86.7446 178.693 -88.4377C169.203 -90.1519 159.725 -92.5026 150.032 -92.6187C140.634 -92.7312 131.398 -90.1789 124.159 -83.995C116.695 -77.6181 112.139 -68.5884 109.329 -59.3245C106.188 -48.9659 105.26 -38.1664 105.067 -27.3915C104.827 -14.012 105.697 -0.628224 107.349 12.6463C110.64 39.1008 116.779 65.2837 124.123 90.887C131.582 116.89 141.125 142.528 155.276 165.689C167.122 185.079 182.363 202.505 200.915 215.738C218.779 228.481 239.573 237.05 261.543 238.862C285.763 240.86 309.865 235.188 332.411 226.71C343.634 222.49 354.568 217.547 365.347 212.308C366.407 211.793 365.781 210.053 364.711 210.573C342.945 221.152 320.278 230.744 296.349 235.087C273.376 239.256 249.896 237.818 228.201 228.864C208.07 220.557 190.361 206.929 175.956 190.703C159.208 171.84 147.048 149.369 137.836 125.996C128.017 101.081 121.086 74.9372 115.461 48.7832C109.992 23.354 106.343 -2.61864 106.932 -28.6816C107.374 -48.2353 110.71 -72.903 128.316 -84.8455C145.07 -96.21 165.996 -88.2748 184.12 -85.6755C193.057 -84.3937 202.449 -84.1306 210.95 -87.6238C219.932 -91.3149 226.751 -98.5727 233.121 -105.65C239.583 -112.83 246.116 -120.954 255.119 -125.038C265.307 -129.658 276.169 -126.92 285.104 -120.856C294.816 -114.263 301.743 -104.661 309.825 -96.3218C316.339 -89.5996 326.767 -79.6765 337.12 -83.4148C346.206 -86.6955 348.219 -98.0459 352.987 -105.269C358.746 -113.993 369.66 -117.629 379.759 -116.559C390.786 -115.391 399.998 -108.573 406.208 -99.6319C409.391 -95.05 411.815 -89.9727 413.57 -84.6836C415.143 -79.9433 415.899 -74.9405 417.886 -70.337C419.447 -66.7202 421.886 -63.2255 425.834 -62.049C431.039 -60.498 435.845 -63.67 440.151 -66.1817C449.115 -71.4111 459.676 -72.9061 469.842 -71.0567C479.87 -69.2322 489.48 -64.2388 496.295 -56.5918C500.597 -51.7638 504.336 -46.3786 508.47 -41.3978C512.485 -36.5599 516.449 -31.7408 519.522 -26.228C526.128 -14.3797 527.142 -1.09276 526.921 12.2221C526.702 25.4516 525.001 38.6005 523.408 51.718C521.72 65.6206 520.032 79.5232 518.343 93.4258C516.715 106.839 515.447 120.357 513.356 133.707C511.557 145.194 507.278 158.121 495.595 162.993C486.995 166.58 478.881 162.681 472.342 157.031C461.129 147.341 449.162 129.472 431.947 137.18C421.568 141.828 416.023 152.329 411.978 162.355C409.746 167.887 407.723 173.532 404.843 178.773C401.922 184.088 397.989 188.778 393.465 192.802C384.999 200.333 374.83 205.639 364.711 210.573C363.652 211.089 364.278 212.829 365.347 212.308Z" fill="white"/>
<path d="M369.354 229.361C380.82 223.77 392.372 217.771 401.89 209.145C406.314 205.135 410.223 200.6 413.31 195.478C416.829 189.638 419.201 183.218 421.711 176.906C426.405 165.109 433.132 151.066 446.638 147.611C456.383 145.118 464.83 150.628 471.681 156.958C478.145 162.931 483.829 169.973 491.345 174.703C499.644 179.926 509.428 180.239 517.669 174.561C528.255 167.266 532.001 154.545 533.796 142.452C536.048 127.277 537.568 111.964 539.417 96.735C541.32 81.0649 543.225 65.3947 545.126 49.7241C546.849 35.5221 548.535 21.2688 548.552 6.94196C548.568 -7.14321 547.028 -20.8208 540.056 -33.3019C536.535 -39.6057 531.959 -45.0718 527.377 -50.6121C522.844 -56.093 518.77 -62.0796 513.948 -67.3023C499.399 -83.0595 474.235 -88.9679 454.569 -79.8307C449.117 -77.2978 443.169 -71.6218 436.73 -73.1876C431.293 -74.5097 428.882 -80.3864 427.375 -85.1976C425.625 -90.7821 424.51 -96.469 422.245 -101.898C419.926 -107.457 416.89 -112.759 413.052 -117.412C405.893 -126.09 395.957 -132.328 384.592 -133.24C374.278 -134.068 363.277 -130.82 356.373 -122.802C352.845 -118.703 350.796 -113.6 348.431 -108.801C346.098 -104.066 343.241 -98.8267 338.036 -96.8145C331.67 -94.3535 324.927 -97.8047 319.846 -101.531C314.155 -105.705 309.286 -110.854 304.595 -116.093C296.36 -125.287 288.298 -134.927 277.164 -140.728C267.331 -145.85 256.13 -146.719 246.136 -141.542C226.568 -131.405 217.923 -106.821 196.063 -100.149C185.858 -97.0335 174.949 -98.4579 164.653 -100.318C154.252 -102.196 143.864 -104.775 133.241 -104.902C122.948 -105.026 112.839 -102.234 104.91 -95.4605C96.7424 -88.4831 91.7543 -78.5957 88.6808 -68.4596C85.238 -57.1059 84.218 -45.2695 84.0067 -33.4595C83.7439 -18.7851 84.6981 -4.10621 86.5096 10.4529C90.1187 39.4597 96.849 68.1684 104.902 96.2419C113.08 124.753 123.542 152.866 139.058 178.261C152.047 199.522 168.757 218.627 189.098 233.137C208.679 247.104 231.471 256.493 255.552 258.48C282.099 260.669 308.519 254.448 333.232 245.156C345.54 240.528 357.532 235.107 369.354 229.361C370.414 228.846 369.788 227.106 368.718 227.626C344.838 239.233 319.971 249.752 293.717 254.517C268.505 259.093 242.738 257.51 218.929 247.684C196.836 238.567 177.402 223.609 161.593 205.801C143.22 185.107 129.879 160.453 119.774 134.811C109.001 107.477 101.399 78.7956 95.2281 50.1027C89.2297 22.2127 85.2269 -6.27328 85.8731 -34.8586C86.3587 -56.3367 90.0252 -83.4204 109.363 -96.5377C127.765 -109.02 150.729 -100.318 170.636 -97.4633C180.423 -96.0595 190.706 -95.7705 200.016 -99.5959C209.852 -103.638 217.319 -111.59 224.294 -119.34C231.393 -127.228 238.568 -136.145 248.459 -140.63C259.662 -145.711 271.609 -142.697 281.433 -136.029C292.086 -128.798 299.683 -118.267 308.546 -109.121C315.664 -101.776 327.077 -90.8928 338.395 -94.9797C348.334 -98.5682 350.543 -111.021 355.759 -118.921C362.095 -128.517 374.1 -132.512 385.207 -131.335C397.323 -130.052 407.449 -122.558 414.273 -112.734C417.768 -107.703 420.431 -102.126 422.358 -96.3182C424.083 -91.1191 424.912 -85.6322 427.091 -80.5831C428.792 -76.6428 431.449 -72.8281 435.752 -71.547C441.43 -69.8563 446.68 -73.3286 451.375 -76.0678C461.228 -81.8156 472.833 -83.4627 484.007 -81.4298C495.03 -79.4244 505.587 -73.9341 513.077 -65.5292C517.796 -60.2337 521.897 -54.3278 526.431 -48.8649C530.834 -43.5589 535.181 -38.2733 538.552 -32.227C545.806 -19.2167 546.926 -4.63301 546.684 9.98857C546.443 24.5061 544.577 38.935 542.829 53.3298C540.978 68.5778 539.126 83.8258 537.275 99.0739C535.488 113.785 534.098 128.611 531.805 143.253C529.826 155.886 525.113 170.085 512.268 175.441C502.806 179.388 493.872 175.104 486.677 168.887C474.407 158.285 461.3 138.696 442.46 147.131C431.1 152.217 425.035 163.724 420.609 174.696C418.16 180.763 415.942 186.954 412.783 192.702C409.572 198.546 405.25 203.7 400.276 208.124C390.984 216.39 379.824 222.211 368.718 227.626C367.66 228.142 368.285 229.882 369.354 229.361Z" fill="white"/>
<path d="M373.361 246.415C385.832 240.334 398.395 233.807 408.748 224.425C413.551 220.071 417.798 215.145 421.149 209.584C424.979 203.229 427.56 196.242 430.292 189.374C435.408 176.515 442.745 161.219 457.464 157.452C468.099 154.73 477.317 160.726 484.797 167.637C491.826 174.132 498.006 181.792 506.178 186.937C515.184 192.608 525.799 192.952 534.743 186.79C546.246 178.864 550.31 165.039 552.26 151.9C554.711 135.386 556.365 118.722 558.377 102.149C560.448 85.0962 562.521 68.0435 564.59 50.9902C566.464 35.5423 568.299 20.0383 568.316 4.45435C568.334 -10.8574 566.666 -25.731 559.086 -39.2997C555.254 -46.1597 550.275 -52.1081 545.289 -58.1373C540.356 -64.1018 535.923 -70.6174 530.674 -76.3002C514.863 -93.4207 487.519 -99.8326 466.15 -89.9049C460.196 -87.1386 453.728 -80.9654 446.695 -82.672C440.746 -84.1157 438.102 -90.5278 436.452 -95.7938C434.548 -101.871 433.335 -108.06 430.871 -113.967C428.35 -120.01 425.048 -125.773 420.876 -130.831C413.098 -140.259 402.304 -147.033 389.957 -148.024C378.763 -148.922 366.818 -145.395 359.326 -136.692C355.49 -132.237 353.264 -126.69 350.694 -121.474C348.145 -116.299 345.022 -110.586 339.336 -108.387C332.379 -105.698 325.014 -109.461 319.461 -113.534C313.262 -118.08 307.959 -123.689 302.849 -129.395C293.898 -139.39 285.133 -149.872 273.03 -156.178C262.352 -161.741 250.191 -162.688 239.336 -157.066C218.036 -146.034 208.634 -119.28 184.835 -112.015C173.716 -108.621 161.831 -110.169 150.611 -112.195C139.301 -114.239 128.002 -117.045 116.449 -117.184C105.26 -117.318 94.2775 -114.286 85.6588 -106.924C76.7882 -99.3457 71.3687 -88.6008 68.0305 -77.5923C64.286 -65.2439 63.1748 -52.3703 62.9449 -39.5253C62.6591 -23.5562 63.6975 -7.58201 65.6687 8.26169C69.5952 39.8208 76.9176 71.0552 85.6789 101.599C94.5769 132.618 105.958 163.206 122.839 190.836C136.972 213.968 155.149 234.751 177.28 250.538C198.577 265.73 223.368 275.939 249.56 278.1C278.434 280.481 307.172 273.71 334.051 263.604C347.445 258.567 360.496 252.668 373.361 246.415C374.42 245.9 373.795 244.16 372.725 244.68C346.73 257.315 319.663 268.762 291.085 273.949C263.635 278.93 235.579 277.203 209.657 266.506C185.601 256.578 164.443 240.29 147.23 220.901C127.231 198.375 112.71 171.537 101.71 143.627C89.9841 113.875 81.7112 82.6549 74.9942 51.423C68.4666 21.0721 64.1105 -9.92738 64.8137 -41.0348C65.3428 -64.4373 69.3404 -93.9368 90.4105 -108.229C110.46 -121.829 135.461 -112.361 157.151 -109.25C167.788 -107.725 178.963 -107.41 189.081 -111.567C199.771 -115.96 207.886 -124.606 215.466 -133.029C223.203 -141.625 231.021 -151.335 241.799 -156.223C254.017 -161.764 267.049 -158.474 277.762 -151.202C289.355 -143.332 297.622 -131.873 307.267 -121.919C314.988 -113.952 327.387 -102.109 339.671 -106.544C350.461 -110.44 352.867 -123.996 358.531 -132.573C365.444 -143.04 378.54 -147.394 390.654 -146.111C403.86 -144.712 414.901 -136.542 422.337 -125.836C426.144 -120.355 429.046 -114.279 431.146 -107.952C433.024 -102.294 433.925 -96.3228 436.297 -90.8284C438.137 -86.5647 441.012 -82.43 445.669 -81.044C451.82 -79.2134 457.514 -82.986 462.6 -85.9529C473.341 -92.2193 485.989 -94.0184 498.173 -91.8018C510.19 -89.6156 521.694 -83.6286 529.859 -74.4653C534.994 -68.7025 539.457 -62.2756 544.391 -56.3306C549.183 -50.5565 553.914 -44.8044 557.583 -38.2247C565.485 -24.0525 566.71 -8.17182 566.446 7.75651C566.185 23.5623 564.154 39.2711 562.251 54.943C560.236 71.5363 558.221 88.1299 556.206 104.723C554.262 120.733 552.749 136.867 550.254 152.8C548.096 166.579 542.948 182.049 528.941 187.891C518.618 192.196 508.863 187.529 501.012 180.745C487.685 169.23 473.437 147.92 452.973 157.083C440.633 162.608 434.048 175.119 429.24 187.037C426.576 193.64 424.162 200.377 420.724 206.633C417.222 213.006 412.51 218.622 407.087 223.447C396.97 232.447 384.816 238.784 372.725 244.68C371.666 245.196 372.291 246.936 373.361 246.415Z" fill="white"/>
<path d="M377.369 263.468C390.845 256.898 404.42 249.844 415.607 239.705C420.79 235.008 425.374 229.691 428.99 223.691C433.13 216.82 435.92 209.267 438.874 201.842C444.412 187.921 452.359 171.372 468.291 167.293C479.816 164.342 489.806 170.825 497.913 178.316C505.507 185.333 512.185 193.611 521.012 199.17C530.725 205.288 542.17 205.666 551.818 199.018C564.237 190.461 568.62 175.533 570.725 161.347C573.375 143.494 575.163 125.479 577.339 107.563C579.577 89.1271 581.818 70.6917 584.054 52.2558C586.08 35.5618 588.063 18.8071 588.082 1.96619C588.101 -14.5723 586.305 -30.6418 578.118 -45.2981C573.975 -52.7143 568.592 -59.1449 563.201 -65.6631C557.869 -72.1108 553.076 -79.1556 547.402 -85.2985C530.328 -103.782 500.803 -110.698 477.733 -99.9796C471.256 -96.9705 464.31 -90.3385 456.661 -92.1569C450.202 -93.6924 447.317 -100.691 445.531 -106.39C443.473 -112.961 442.161 -119.651 439.497 -126.038C436.774 -132.564 433.207 -138.788 428.701 -144.25C420.304 -154.429 408.652 -161.737 395.323 -162.807C383.249 -163.776 370.361 -159.97 362.279 -150.583C358.137 -145.772 355.733 -139.78 352.958 -134.147C350.193 -128.534 346.804 -122.345 340.636 -119.96C333.089 -117.043 325.102 -121.118 319.076 -125.537C312.371 -130.456 306.634 -136.526 301.105 -142.699C291.437 -153.493 281.97 -164.818 268.897 -171.628C257.373 -177.632 244.254 -178.657 232.538 -172.591C209.505 -160.663 199.347 -131.739 173.609 -123.883C161.574 -120.209 148.715 -121.881 136.571 -124.074C124.351 -126.282 112.141 -129.316 99.6592 -129.466C87.5744 -129.61 75.718 -126.34 66.4093 -118.387C56.8358 -110.209 50.9845 -98.6064 47.3819 -86.7258C43.3356 -73.3823 42.1333 -59.4716 41.8848 -45.5917C41.5756 -28.3278 42.6983 -11.0585 44.8294 6.06989C49.0735 40.1814 56.9877 73.9414 66.4577 106.955C76.075 140.483 88.3752 173.546 106.621 203.41C121.897 228.412 141.542 250.875 165.463 267.938C188.477 284.355 215.266 295.384 243.569 297.719C274.771 300.292 305.827 292.972 334.872 282.051C349.352 276.606 363.461 270.229 377.369 263.468C378.428 262.954 377.803 261.214 376.733 261.734C348.624 275.396 319.356 287.771 288.454 293.38C258.766 298.768 228.422 296.896 200.386 285.327C174.367 274.589 151.486 256.971 132.868 236C111.244 211.643 95.542 182.622 83.648 152.443C70.9688 120.272 62.0249 86.5144 54.7617 52.7436C47.7049 19.9321 42.9955 -13.5809 43.7556 -47.2107C44.3281 -72.5377 48.6567 -104.453 71.4589 -119.92C93.1559 -134.638 120.194 -124.404 143.667 -121.037C155.154 -119.39 167.221 -119.049 178.147 -123.539C189.691 -128.283 198.455 -137.623 206.64 -146.717C215.014 -156.022 223.474 -166.524 235.14 -171.815C248.374 -177.816 262.489 -174.25 274.092 -166.374C286.625 -157.867 295.562 -145.478 305.99 -134.717C314.314 -126.128 327.698 -113.324 340.947 -118.108C352.589 -122.312 355.192 -136.971 361.305 -146.225C368.794 -157.562 382.982 -162.277 396.103 -160.887C410.398 -159.372 422.353 -150.526 430.403 -138.937C434.522 -133.007 437.663 -126.432 439.935 -119.586C441.965 -113.469 442.94 -107.014 445.504 -101.074C447.484 -96.4868 450.576 -92.032 455.588 -90.5414C462.212 -88.5711 468.349 -92.644 473.825 -95.8384C485.456 -102.623 499.147 -104.574 512.339 -102.174C525.351 -99.8071 537.802 -93.3234 546.643 -83.4022C552.194 -77.1719 557.019 -70.2241 562.353 -63.7972C567.534 -57.5549 572.648 -51.3364 576.614 -44.2232C585.164 -28.889 586.496 -11.7114 586.21 5.52352C585.927 22.6174 583.732 39.6062 581.674 56.5552C579.495 74.4941 577.317 92.4327 575.139 110.372C573.037 127.679 571.401 145.121 568.704 162.347C566.367 177.272 560.784 194.014 545.615 200.34C534.43 205.005 523.855 199.953 515.348 192.602C500.965 180.174 485.576 157.144 463.488 167.034C450.167 172.998 443.062 186.515 437.872 199.378C434.992 206.516 432.382 213.799 428.666 220.562C424.874 227.464 419.772 233.545 413.899 238.77C402.956 248.503 389.811 255.357 376.732 261.734C375.674 262.25 376.299 263.99 377.369 263.468Z" fill="white"/>
<path d="M381.376 280.522C395.857 273.461 410.443 265.88 422.465 254.985C428.027 249.944 432.949 244.236 436.829 237.797C441.28 230.412 444.279 222.292 447.454 214.309C453.415 199.326 461.971 181.525 479.117 177.133C491.532 173.953 502.292 180.923 511.028 188.995C519.187 196.533 526.362 205.429 535.844 211.404C546.263 217.97 558.54 218.379 568.891 211.247C582.227 202.058 586.928 186.026 589.189 170.795C592.037 151.603 593.959 132.237 596.298 112.976C598.705 93.1582 601.114 73.3401 603.518 53.5217C605.694 35.5815 607.827 17.5763 607.847 -0.521683C607.867 -18.2867 605.943 -35.5522 597.148 -51.2961C592.694 -59.2687 586.908 -66.1814 581.113 -73.1885C575.38 -80.1199 570.229 -87.6939 564.128 -94.2967C545.792 -114.144 514.087 -121.563 489.315 -110.054C482.335 -106.811 474.869 -99.6835 466.626 -101.642C459.655 -103.298 456.536 -110.833 454.608 -116.987C452.395 -124.05 450.986 -131.242 448.122 -138.108C445.197 -145.118 441.365 -151.802 436.525 -157.67C427.509 -168.6 414.999 -176.442 400.688 -177.59C387.733 -178.63 373.902 -174.544 365.231 -164.473C360.783 -159.305 358.202 -152.87 355.22 -146.819C352.239 -140.768 348.585 -134.104 341.936 -131.533C333.798 -128.387 325.188 -132.774 318.691 -137.54C311.477 -142.831 305.307 -149.361 299.359 -156.002C288.974 -167.597 278.805 -179.763 264.763 -187.078C252.394 -193.522 238.315 -194.627 225.739 -188.115C200.973 -175.293 190.059 -144.198 162.382 -135.75C149.432 -131.797 135.597 -133.592 122.53 -135.953C109.399 -138.324 96.2795 -141.587 82.8672 -141.748C69.8868 -141.903 57.157 -138.393 47.1584 -129.851C36.8818 -121.073 30.5988 -108.612 26.7318 -95.8592C22.384 -81.5207 21.0904 -66.5729 20.8234 -51.6579C20.4912 -33.0993 21.698 -14.5348 23.9888 3.87805C28.5506 40.5417 37.0566 76.8274 47.2352 112.311C57.5722 148.348 70.7915 183.885 90.4026 215.984C106.821 242.856 127.934 266.999 153.645 285.339C178.376 302.98 207.163 314.829 237.577 317.338C271.106 320.103 304.48 312.234 335.691 300.498C351.257 294.645 366.424 287.789 381.376 280.522C382.435 280.007 381.809 278.267 380.739 278.787C350.517 293.477 319.048 306.781 285.821 312.811C253.895 318.605 221.262 316.589 191.114 304.148C163.132 292.6 138.527 273.651 118.505 251.099C95.2549 224.911 78.3727 193.707 65.5847 161.259C51.9522 126.669 42.3372 90.3734 34.5279 54.0638C26.9419 18.7912 21.8794 -17.2351 22.6965 -53.3869C23.3125 -80.6385 27.9719 -114.97 52.5064 -131.612C75.8511 -147.447 104.926 -136.447 130.183 -132.824C142.52 -131.055 155.478 -130.688 167.212 -135.51C179.61 -140.605 189.022 -150.639 197.813 -160.406C206.824 -170.419 215.926 -181.714 228.48 -187.407C242.729 -193.869 257.929 -190.026 270.421 -181.546C283.894 -172.401 293.501 -159.083 304.711 -147.516C313.638 -138.304 328.008 -124.54 342.222 -129.672C354.717 -134.184 357.516 -149.946 364.077 -159.877C372.142 -172.085 387.422 -177.159 401.551 -175.662C416.935 -174.033 429.804 -164.511 438.467 -152.039C442.899 -145.659 446.279 -138.585 448.723 -131.219C450.905 -124.644 451.954 -117.705 454.71 -111.319C456.829 -106.409 460.14 -101.634 465.506 -100.038C472.603 -97.9281 479.184 -102.301 485.05 -105.723C497.569 -113.027 512.304 -115.13 526.505 -112.547C540.511 -109.998 553.91 -103.018 563.425 -92.3384C569.393 -85.6408 574.579 -78.172 580.314 -71.263C585.883 -64.5524 591.38 -57.8677 595.644 -50.2209C604.842 -33.7248 606.28 -15.2502 605.973 3.29119C605.668 21.6732 603.308 39.9419 601.095 58.1683C598.753 77.4525 596.412 96.7368 594.07 116.021C591.811 134.626 590.052 153.377 587.152 171.894C584.636 187.965 578.618 205.979 562.288 212.79C550.241 217.814 538.846 212.377 529.683 204.46C514.243 191.119 497.714 166.368 474.001 176.985C459.699 183.389 452.075 197.911 446.503 211.72C443.407 219.393 440.602 227.223 436.607 234.493C432.524 241.924 427.033 248.467 420.709 254.093C408.942 264.561 394.803 271.93 380.739 278.788C379.681 279.304 380.306 281.044 381.376 280.522Z" fill="white"/>
<path d="M385.382 297.576C400.869 290.024 416.466 281.916 429.323 270.265C435.264 264.881 440.523 258.781 444.668 251.904C449.429 244.003 452.637 235.316 456.034 226.777C462.417 210.732 471.584 191.678 489.942 186.974C503.248 183.565 514.779 191.022 524.143 199.674C532.866 207.734 540.538 217.25 550.676 223.637C561.804 230.648 574.907 231.094 585.965 223.476C600.217 213.655 605.237 196.52 607.652 180.243C610.699 159.712 612.756 138.994 615.258 118.39C617.832 97.1893 620.409 75.9887 622.981 54.7874C625.309 35.6011 627.59 16.3455 627.612 -3.00968C627.633 -22.0012 625.58 -40.4628 616.178 -57.2944C611.413 -65.8231 605.223 -73.2182 599.024 -80.7141C592.892 -88.1288 587.381 -96.232 580.855 -103.295C561.255 -124.505 527.37 -132.428 500.896 -120.129C493.414 -116.653 485.428 -109.028 476.591 -111.126C469.108 -112.903 465.756 -120.976 463.686 -127.583C461.319 -135.139 459.811 -142.833 456.746 -150.178C453.62 -157.673 449.523 -164.816 444.349 -171.09C434.714 -182.769 421.346 -191.147 406.052 -192.374C392.218 -193.484 377.443 -189.119 368.183 -178.364C363.428 -172.84 360.67 -165.961 357.483 -159.493C354.285 -153.003 350.365 -145.863 343.235 -143.107C334.507 -139.733 325.274 -144.431 318.305 -149.543C310.584 -155.206 303.979 -162.197 297.613 -169.305C286.512 -181.7 275.64 -194.709 260.629 -202.529C247.414 -209.413 232.375 -210.596 218.939 -203.64C192.441 -189.922 180.77 -156.657 151.154 -147.617C137.289 -143.385 122.479 -145.304 108.488 -147.831C94.4473 -150.367 80.4172 -153.858 66.0754 -154.03C52.1994 -154.196 38.5959 -150.446 27.9073 -141.315C16.9279 -131.936 10.2132 -118.618 6.08163 -104.993C1.43209 -89.6593 0.0473742 -73.6745 -0.238291 -57.7243C-0.593802 -37.8708 0.697234 -18.0112 3.14811 1.68625C8.02733 40.9022 17.1256 79.7136 28.0126 117.668C39.0691 156.212 53.2073 194.225 74.1836 228.558C91.7442 257.301 114.326 283.122 141.826 302.739C168.274 321.605 199.059 334.274 231.584 336.957C267.441 339.914 303.133 331.495 336.51 318.945C353.162 312.684 369.387 305.35 385.382 297.576C386.441 297.061 385.816 295.321 384.745 295.841C352.408 311.558 318.739 325.79 283.188 332.242C249.024 338.442 214.103 336.282 181.841 322.969C151.897 310.611 125.567 290.332 104.141 266.197C79.2657 238.178 61.2032 204.791 47.521 170.075C32.9353 133.066 22.6489 94.2325 14.2939 55.3839C6.17846 17.6506 0.76283 -20.8892 1.63701 -59.5634C2.29648 -88.7395 7.28675 -125.486 33.5533 -143.304C58.5459 -160.256 89.6579 -148.49 116.698 -144.611C129.885 -142.72 143.735 -142.328 156.277 -147.482C169.529 -152.927 179.589 -163.655 188.985 -174.096C198.634 -184.816 208.378 -196.904 221.819 -202.999C237.084 -209.922 253.368 -205.802 266.75 -196.719C281.163 -186.936 291.441 -172.689 303.433 -160.314C312.963 -150.48 328.318 -135.756 343.497 -141.237C356.844 -146.056 359.84 -162.92 366.85 -173.529C375.491 -186.608 391.862 -192.042 406.999 -190.438C423.472 -188.693 437.256 -178.495 446.532 -165.141C451.276 -158.311 454.895 -150.738 457.511 -142.853C459.846 -135.819 460.967 -128.396 463.915 -121.565C466.175 -116.331 469.703 -111.236 475.423 -109.535C482.994 -107.286 490.018 -111.959 496.274 -115.609C509.682 -123.43 525.461 -125.686 540.67 -122.919C555.671 -120.19 570.017 -112.712 580.207 -101.275C586.591 -94.11 592.14 -86.1203 598.274 -78.7292C604.232 -71.5506 610.113 -64.3994 614.674 -56.2191C624.52 -38.5611 626.064 -18.7896 625.735 1.05854C625.41 20.7286 622.885 40.2774 620.516 59.7808C618.011 80.4104 615.506 101.04 613.001 121.67C610.584 141.573 608.703 161.632 605.601 181.441C602.905 198.657 596.453 217.943 578.96 225.239C566.053 230.622 553.836 224.801 544.017 216.317C527.522 202.064 509.851 175.592 484.514 186.937C469.232 193.779 461.087 209.306 455.134 224.06C451.822 232.27 448.821 240.645 444.547 248.422C440.174 256.382 434.293 263.389 427.52 269.415C414.927 280.617 399.796 288.502 384.746 295.841C383.687 296.357 384.312 298.097 385.382 297.576Z" fill="white"/>
<path d="M389.39 314.629C405.883 306.588 422.489 297.951 436.182 285.545C442.503 279.818 448.099 273.326 452.508 266.01C457.58 257.593 460.997 248.341 464.616 239.245C471.421 222.138 481.198 201.83 500.769 196.815C514.965 193.176 527.267 201.12 537.26 210.353C546.548 218.935 554.717 229.069 565.51 235.871C577.345 243.329 591.278 243.808 603.04 235.704C618.208 225.252 623.547 207.013 626.117 189.69C629.363 167.82 631.554 145.752 634.219 123.804C636.961 101.22 639.706 78.637 642.446 56.0532C644.924 35.6209 647.354 15.1146 647.377 -5.49768C647.4 -25.7158 645.219 -45.3735 635.209 -63.2926C630.134 -72.3775 623.54 -80.2549 616.936 -88.2397C610.404 -96.138 604.535 -104.77 597.582 -112.293C576.72 -134.867 540.654 -143.294 512.479 -130.203C504.494 -126.494 495.989 -118.373 486.557 -120.611C478.562 -122.508 474.977 -131.118 472.764 -138.18C470.243 -146.228 468.636 -154.424 465.372 -162.248C462.044 -170.227 457.683 -177.831 452.174 -184.509C441.92 -196.939 427.693 -205.851 411.418 -207.157C396.703 -208.338 380.984 -203.693 371.136 -192.254C366.074 -186.374 363.139 -179.051 359.746 -172.166C356.332 -165.237 352.147 -157.622 344.535 -154.68C335.217 -151.077 325.362 -156.088 317.92 -161.546C309.691 -167.582 302.653 -175.033 295.868 -182.609C284.05 -195.803 272.476 -209.654 256.496 -217.979C242.436 -225.304 226.437 -226.566 212.14 -219.165C183.91 -204.551 171.482 -169.117 139.928 -159.485C125.148 -154.973 109.363 -157.016 94.4482 -159.71C79.4968 -162.411 64.5561 -166.129 49.2846 -166.312C34.5132 -166.489 20.0359 -162.499 8.65754 -152.779C-3.02497 -142.799 -10.1712 -128.624 -14.5672 -114.126C-19.5185 -97.7978 -20.9945 -80.7758 -21.2985 -63.7907C-21.6771 -42.6424 -20.3018 -21.4877 -17.6913 -0.505564C-12.4946 41.2629 -2.80454 82.6001 8.79114 123.024C20.5672 164.077 35.6242 204.565 57.9656 241.132C76.6697 271.746 100.719 299.246 130.01 320.14C158.174 340.23 190.958 353.719 225.594 356.576C263.778 359.726 301.787 350.757 337.331 337.392C355.069 330.723 372.352 322.911 389.39 314.629C390.449 314.115 389.824 312.374 388.753 312.895C354.302 329.64 318.433 344.799 280.557 351.673C244.155 358.28 206.945 355.975 172.57 341.789C140.663 328.622 112.61 307.013 89.779 281.296C63.2783 251.446 44.0355 215.876 29.4592 178.891C13.9202 139.463 2.96272 98.0918 -5.93854 56.7041C-14.5831 16.51 -20.3521 -24.5432 -19.4208 -65.7396C-18.7177 -96.8401 -13.3965 -136.003 14.602 -154.995C41.2422 -173.065 74.3914 -160.533 103.215 -156.398C117.251 -154.385 131.993 -153.967 145.344 -159.454C159.45 -165.25 170.158 -176.672 180.159 -187.785C190.445 -199.213 200.832 -212.094 215.16 -218.591C231.44 -225.975 248.809 -221.579 263.08 -211.892C278.433 -201.47 289.381 -186.294 302.155 -173.112C312.288 -162.656 328.629 -146.972 344.773 -152.801C358.972 -157.928 362.165 -175.895 369.623 -187.182C378.841 -201.131 396.303 -206.924 412.448 -205.214C430.009 -203.354 444.708 -192.48 454.597 -178.243C459.654 -170.963 463.512 -162.891 466.301 -154.488C468.787 -146.995 469.981 -139.087 473.122 -131.811C475.521 -126.253 479.267 -120.838 485.342 -119.033C493.385 -116.644 500.854 -121.618 507.5 -125.495C521.796 -133.835 538.619 -136.242 554.837 -133.292C570.832 -130.382 586.125 -122.408 596.991 -110.212C603.791 -102.58 609.701 -94.069 616.236 -86.1958C622.582 -78.549 628.847 -70.9314 633.705 -62.2177C644.199 -43.3978 645.849 -22.3294 645.499 -1.17446C645.152 19.7837 642.462 40.6125 639.939 61.3932C637.27 83.3682 634.602 105.343 631.933 127.318C629.359 148.52 627.355 169.886 624.051 190.988C621.175 209.35 614.289 229.908 595.634 237.688C581.865 243.43 568.828 237.225 558.353 228.174C540.801 213.008 521.99 184.816 495.029 196.888C478.765 204.17 470.101 220.701 463.767 236.401C460.239 245.146 457.041 254.068 452.489 262.352C447.825 270.841 441.555 278.312 434.331 284.738C420.913 296.674 404.79 305.075 388.753 312.895C387.695 313.411 388.32 315.151 389.39 314.629Z" fill="white"/>
<path d="M393.396 331.684C410.894 323.152 428.512 313.989 443.04 300.826C449.74 294.755 455.674 287.872 460.347 280.117C465.729 271.185 469.356 261.366 473.196 251.713C480.424 233.545 490.811 211.984 511.595 206.656C526.681 202.788 539.755 211.219 550.375 221.032C560.228 230.136 568.894 240.888 580.343 248.105C592.884 256.011 607.648 256.522 620.113 247.934C636.198 236.85 641.855 217.507 644.581 199.138C648.025 175.929 650.35 152.51 653.179 129.218C656.089 105.252 659.002 81.2862 661.909 57.3197C664.539 35.6413 667.118 13.8844 667.142 -7.98486C667.167 -29.4295 664.856 -50.2832 654.239 -69.29C648.853 -78.9311 641.856 -87.2907 634.848 -95.7644C627.916 -104.146 621.687 -113.308 614.309 -121.291C592.184 -145.227 553.938 -154.158 524.06 -140.277C515.574 -136.334 506.548 -127.718 496.523 -130.095C488.016 -132.112 484.197 -141.26 481.842 -148.776C479.166 -157.317 477.461 -166.015 473.997 -174.317C470.467 -182.78 465.841 -190.845 459.998 -197.928C449.125 -211.109 434.04 -220.555 416.783 -221.94C401.188 -223.191 384.526 -218.268 374.089 -206.144C368.72 -199.908 365.607 -192.141 362.009 -184.838C358.379 -177.471 353.928 -169.381 345.835 -166.252C335.927 -162.422 325.449 -167.744 317.535 -173.548C308.798 -179.956 301.327 -187.868 294.123 -195.911C281.588 -209.906 269.311 -224.599 252.362 -233.429C237.457 -241.194 220.499 -242.535 205.341 -234.689C175.377 -219.18 162.194 -181.575 128.7 -171.351C113.005 -166.56 96.2451 -168.727 80.4067 -171.588C64.5451 -174.453 48.694 -178.399 32.4928 -178.593C16.8257 -178.781 1.47484 -174.552 -10.5935 -164.242C-22.9789 -153.662 -30.5568 -138.628 -35.2174 -123.259C-40.4704 -105.936 -42.0375 -87.8765 -42.3601 -69.8563C-42.7619 -47.4133 -41.3025 -24.9633 -38.5321 -2.69654C-33.0184 41.6242 -22.7363 85.4869 -10.432 128.381C2.06354 171.943 18.0397 214.905 41.7462 253.707C61.5931 286.191 87.1108 315.371 118.191 337.541C148.072 358.856 182.854 373.165 219.601 376.196C260.112 379.537 300.44 370.019 338.15 355.84C356.974 348.762 375.315 340.472 393.396 331.684C394.455 331.169 393.83 329.429 392.759 329.949C356.194 347.722 318.124 363.809 277.925 371.105C239.284 378.117 199.786 375.669 163.298 360.611C129.427 346.634 99.6505 323.694 75.4154 296.396C47.2888 264.715 26.8656 226.961 11.3951 187.707C-5.09712 145.861 -16.7257 101.951 -26.173 58.0252C-35.3468 15.3702 -41.469 -28.1965 -40.4808 -71.9149C-39.7343 -104.94 -34.0821 -146.519 -4.35154 -166.685C23.9363 -185.874 59.1226 -172.574 89.7295 -168.185C104.615 -166.05 120.249 -165.606 134.408 -171.424C149.368 -177.571 160.724 -189.687 171.331 -201.473C182.254 -213.609 193.283 -227.282 208.499 -234.182C225.795 -242.026 244.248 -237.354 259.408 -227.063C275.701 -216.004 287.319 -199.898 300.875 -185.91C311.612 -174.831 328.938 -158.186 346.047 -164.364C361.098 -169.799 364.488 -188.869 372.394 -200.833C382.189 -215.653 400.742 -221.806 417.895 -219.989C436.545 -218.013 452.158 -206.464 462.661 -191.343C468.03 -183.614 472.127 -175.043 475.088 -166.12C477.726 -158.169 478.994 -149.777 482.327 -142.055C484.862 -136.181 488.83 -130.428 495.258 -128.529C503.783 -126.011 511.678 -131.269 518.723 -135.379C533.909 -144.237 551.774 -146.797 569.001 -143.663C585.991 -140.572 602.231 -132.101 613.772 -119.147C620.988 -111.048 627.261 -102.016 634.195 -93.6609C640.93 -85.5459 647.578 -77.4619 652.735 -68.2147C663.876 -48.233 665.632 -25.8676 665.261 -3.4059C664.892 18.8403 662.038 40.9491 659.359 63.007C656.528 86.3273 653.696 109.648 650.864 132.968C648.132 155.468 646.005 178.143 642.498 200.536C639.444 220.044 632.123 241.873 612.306 250.138C597.675 256.24 583.818 249.65 572.687 240.032C554.079 223.953 534.127 194.041 505.541 206.84C488.297 214.561 479.113 232.098 472.397 248.744C468.653 258.023 465.26 267.491 460.429 276.283C455.474 285.301 448.815 293.235 441.141 300.062C426.898 312.732 409.782 321.649 392.759 329.95C391.701 330.465 392.326 332.205 393.396 331.684Z" fill="white"/>
</g>
</g>
<defs>
<clipPath id="clip0_211_1108">
<rect width="354" height="354" rx="177" fill="white"/>
</clipPath>
</defs>
</svg>
